<svg xmlns="http://www.w3.org/2000/svg" xmlns:xlink="http://www.w3.org/1999/xlink" fill="none" version="1.1" width="23" height="23" viewBox="0 0 23 23"><defs><clipPath id="master_svg0_1070_1422"><rect x="0" y="0" width="23" height="23" rx="0"/></clipPath><clipPath id="master_svg1_1070_1429"><g><rect x="-522.078857421875" y="-210.50018310546875" width="434.05126953125" height="261.1296081542969" rx="0" fill="#FFFFFF" fill-opacity="1"/></g></clipPath><radialGradient cx="0" cy="0" r="1" gradientUnits="userSpaceOnUse" id="master_svg2_1011_1471" gradientTransform="translate(-202.42585175693966 -83.40553542863199) rotate(0) scale(682.1966534752864 1544.7780336720145)"><stop offset="20.999999344348907%" stop-color="#FFFFFF" stop-opacity="1"/><stop offset="100%" stop-color="#000000" stop-opacity="1"/></radialGradient><clipPath id="master_svg3_1070_1437"><g><rect x="-522.078857421875" y="-210.50018310546875" width="434.05126953125" height="261.1296081542969" rx="0" fill="#FFFFFF" fill-opacity="1"/></g></clipPath><clipPath id="master_svg4_1070_1440"><g><rect x="-522.078857421875" y="-210.50018310546875" width="434.05126953125" height="261.1296081542969" rx="0" fill="#FFFFFF" fill-opacity="1"/></g></clipPath><clipPath id="master_svg5_1070_1427"><g><rect x="-522.078857421875" y="-210.50018310546875" width="434.05126953125" height="261.1296081542969" rx="0" fill="#FFFFFF" fill-opacity="1"/></g></clipPath><clipPath id="master_svg6_1070_1432"><g><rect x="-522.078857421875" y="-210.50018310546875" width="434.05126953125" height="261.1296081542969" rx="0" fill="#FFFFFF" fill-opacity="1"/></g></clipPath></defs><g clip-path="url(#master_svg0_1070_1422)"><g><g><g><path d="M4.37300670715332,9.032961571273804C4.191096707153321,9.027101571273803,4.04497670715332,8.878821571273804,4.03919670715332,8.694231571273804L4.03919670715332,4.381021571273804C4.02702670715332,3.8242115712738034,3.5754447071533204,3.3810825712738035,3.02661370715332,3.387407571273804C2.84469970715332,3.381542571273804,2.6985764071533205,3.2332685712738036,2.6927967071533203,3.0486745712738035C2.6927967071533203,2.8615975712738035,2.8422517071533204,2.7099411438738037,3.02661370715332,2.7099411438738037C3.94413670715332,2.7036518012738036,4.694616707153321,3.4500545712738035,4.70682670715332,4.381021571273804L4.70682670715332,8.716811571273805C4.69509670715332,8.895021571273805,4.549016707153321,9.033361571273804,4.37300670715332,9.032961571273804Z" fill="#898989" fill-opacity="1"/></g></g><g><g><path d="M3.33824,21.63373504219055C3.15847,21.60513504219055,3.0376,21.43133504219055,3.07118,21.24983504219055L3.33824,19.352935042190552L0.289374,14.215535042190552C0.1035,13.868735042190552,0.00416835,13.481135042190552,0.0000659754,13.086435042190551L0.0000659754,3.014725042190552C-0.00401325,2.550385042190552,0.181228,2.104977042190552,0.511919,1.7839950421905517C0.836016,1.4641780421905517,1.2728,1.2893312221905517,1.72479,1.2984766581905518C2.62934,1.3578094421905518,3.33428,2.1175260421905517,3.33824,3.037305042190552L3.33824,11.449235042190551C3.34481,11.638935042190552,3.19144,11.794635042190551,3.00442,11.787935042190552C2.82006,11.787935042190552,2.6706,11.636235042190552,2.6706,11.449235042190551L2.6706,3.037305042190552C2.67737,2.474365042190552,2.24542,2.0061700421905515,1.69141,1.9759430421905517C1.11749,1.9631430421905518,0.645446,2.431955042190552,0.645446,3.014725042190552L0.645446,13.075135042190551C0.64452,13.358735042190553,0.713363,13.638235042190551,0.845736,13.888035042190552L3.97249,19.11583504219055C4.00064,19.192335042190553,4.00064,19.276535042190552,3.97249,19.352935042190552L3.67205,21.35153504219055C3.64462,21.51623504219055,3.50289,21.636135042190553,3.33824,21.63373504219055Z" fill="#898989" fill-opacity="1"/></g></g><g><g><path d="M11.505580352172851,0.677488C12.814550352172851,0.677488,13.875690352172851,1.75425,13.875690352172851,3.08249C13.875690352172851,4.41074,12.814560352172851,5.4875,11.505580352172851,5.4875C10.19661035217285,5.4875,9.135482352172852,4.41074,9.135481352172851,3.08249C9.129280352172852,1.75165,10.194050352172852,0.671195,11.505580352172851,0.677488ZM11.505580352172851,0.0000211258C9.826450352172852,-0.00621976,8.460832942172852,1.37108,8.456729372172852,3.07494C8.452626332172851,4.77881,9.811590352172852,6.16286,11.490730352172852,6.16495C13.169890352172851,6.16702,14.53219035217285,4.78635,14.53219035217285,3.08249C14.53220035217285,1.38449,13.178930352172852,0.00624063,11.505580352172851,0.0000211258Z" fill="#898989" fill-opacity="1"/></g></g><g><g><path d="M18.62700150402832,9.032838401107789C18.44263950402832,9.032838401107789,18.29318519572832,8.881188401107789,18.29318519572832,8.694108401107787L18.29318519572832,4.380898401107788C18.28606894402832,3.413965401107788,19.07686550402832,2.637239901107788,20.02903850402832,2.675944521107788C20.21339850402832,2.675944521107788,20.36284850402832,2.827600401107788,20.36284850402832,3.014677401107788C20.37552850402832,3.212355401107788,20.22416850402832,3.381311401107788,20.02903850402832,3.387284401107788C19.46979850402832,3.387285401107788,19.01645350402832,3.847308401107788,19.016455504028322,4.414778401107788L19.016455504028322,8.716688401107788C18.99917050402832,8.915448401107788,18.82189250402832,9.059358401107788,18.62700150402832,9.032838401107789Z" fill="#898989" fill-opacity="1"/></g></g><g><g><path d="M19.650678787719727,21.63373516139984C19.490233787719728,21.63063516139984,19.35470378771973,21.51203516139984,19.327987787719728,21.35153516139984L18.971916787719728,19.35293516139984C18.937617487719727,19.277735161399843,18.937617487719727,19.191035161399842,18.971916787719728,19.11583516139984L22.098671787719727,13.86553516139984C22.224911787719726,13.621835161399842,22.289891787719725,13.35033516139984,22.287831787719725,13.07513516139984L22.287831787719725,3.0147251613998414C22.287971787719727,2.4320851613998413,21.815921787719727,1.9632771613998412,21.241871787719727,1.9759431613998413C20.687861787719726,2.006170161399841,20.255911787719725,2.4743651613998416,20.262671787719725,3.0373051613998414L20.262671787719725,11.44923516139984C20.262671787719725,11.636235161399842,20.113221787719727,11.787935161399842,19.928859787719727,11.787935161399842C19.741844787719728,11.79463516139984,19.588474787719726,11.638935161399841,19.595043787719728,11.44923516139984L19.595043787719728,3.0373051613998414C19.599727787719726,2.109312161399841,20.317421787719727,1.3463632613998413,21.230741787719726,1.2984766433998414C21.682731787719728,1.2893314813998413,22.119521787719727,1.4641781613998412,22.443611787719725,1.7839941613998413C22.774301787719725,2.104978161399841,22.959551787719725,2.5503851613998414,22.955471787719727,3.0147251613998414L22.955471787719727,13.07513516139984C22.953021787719727,13.468635161399842,22.857631787719725,13.855835161399842,22.677291787719728,14.204235161399842L19.606168787719728,19.35293516139984L19.939985787719728,21.23853516139984C19.973571787719727,21.42003516139984,19.852701787719727,21.59383516139984,19.672931787719726,21.622435161399842L19.650678787719727,21.63373516139984Z" fill="#898989" fill-opacity="1"/></g></g><g><g><path d="M21.253011654052735,23.000081524658203L12.173190654052734,23.000081524658203C11.988827654052734,23.000081524658203,11.839372877552734,22.8483815246582,11.839372877552734,22.661281524658204L11.839372877552734,17.185111524658204C11.836373994052733,16.3703415246582,12.157302654052735,15.588771524658203,12.729551654052734,15.017221524658204L17.414121654052735,10.263658524658203C17.882501654052735,9.767288124658203,18.598771654052733,9.604784524658204,19.230871654052734,9.851482524658204C19.862981654052735,10.098180524658202,20.287331654052736,10.705845524658203,20.307201654052733,11.392771524658203C20.312871654052735,11.855171524658203,20.131961654052734,12.299831524658202,19.806471654052736,12.623501524658202L15.110781654052735,17.399641524658204C14.975051654052734,17.524581524658203,14.768041654052734,17.524581524658203,14.632311654052735,17.399641524658204C14.497631654052734,17.266651524658204,14.497631654052734,17.047111524658202,14.632311654052735,16.914121524658203L19.339131654052736,12.137981524658203C19.535531654052733,11.946401524658203,19.644391654052733,11.680461524658202,19.639561654052734,11.404061524658204C19.630281654052734,10.985431524658203,19.374211654052736,10.613389524658203,18.990071654052734,10.460431524658203C18.605921654052736,10.307472524658204,18.168841654052734,10.403509524658203,17.881461654052735,10.704012524658204L13.196891654052735,15.457571524658203C12.754628654052734,15.906911524658202,12.506456654052734,16.516171524658205,12.507007654052735,17.151241524658204L12.507007654052735,20.922481524658203L21.008221654052733,20.922481524658203C21.170411654052735,20.920881524658203,21.308541654052732,21.041781524658205,21.330911654052734,21.204781524658202L21.575701654052736,22.582281524658203C21.592901654052735,22.678081524658204,21.568571654052732,22.7768815246582,21.508941654052734,22.853281524658204C21.450601654052733,22.939681524658205,21.356111654052732,22.993881524658203,21.253011654052735,23.000081524658203ZM12.507007654052735,22.322581524658204L20.852431654052737,22.322581524658204L20.730031654052734,21.633781524658204L12.507007654052735,21.633781524658204L12.507007654052735,22.322581524658204Z" fill="#898989" fill-opacity="1"/></g></g><g><g><path d="M14.8660051171875,8.197301265869141C15.4431351171875,8.198531265869141,15.9564151171875,8.569906265869141,16.1455951171875,9.12317626586914C13.502845117187501,11.53042626586914,9.4971851171875,11.53042626586914,6.8543911171875,9.12317626586914C7.0436151171875,8.569906265869141,7.5568851171875,8.19853226586914,8.1340251171875,8.197301265869141L14.8660051171875,8.197301265869141ZM14.8660051171875,7.519834098869141L8.189655117187499,7.519834098869141C7.1357051171875,7.489887065869141,6.2354461171875,8.28553626586914,6.1199951171875,9.34899626586914C9.0918751171875,12.36263626586914,13.908155117187501,12.36263626586914,16.879995117187498,9.34899626586914C16.7664951171875,8.30735726586914,15.8987751171875,7.519245624869141,14.8660051171875,7.519834098869141Z" fill="#898989" fill-opacity="1"/></g></g><g><g><path d="M10.826777318115234,23.000090368652344L1.7469533181152344,23.000090368652344C1.6480393181152344,22.997790368652346,1.5548353181152343,22.952590368652345,1.4910270181152343,22.875890368652342C1.4247496881152344,22.793990368652345,1.4000455181152345,22.685390368652342,1.4242635381152344,22.582290368652345L1.6690623181152344,21.216090368652345C1.6914263181152345,21.05309036865234,1.8295623181152343,20.932190368652343,1.9917523181152343,20.933790368652346L10.492957318115234,20.933790368652346L10.492957318115234,17.185140368652345C10.493517318115234,16.550080368652345,10.245337318115235,15.940820368652343,9.803077318115234,15.491480368652343L5.118507318115235,10.737917368652344C4.833747318115234,10.420831368652344,4.386177318115235,10.313992368652343,3.9919673181152344,10.468998368652343C3.5977573181152342,10.624004368652344,3.3379973181152343,11.008970368652344,3.3381473181152344,11.437970368652344C3.3333173181152347,11.714360368652343,3.4421873181152343,11.980310368652344,3.6385873181152344,12.171890368652344L8.367657318115235,16.936740368652345C8.502337318115234,17.069730368652344,8.502337318115234,17.289270368652343,8.367657318115235,17.422260368652346C8.231927318115234,17.547190368652345,8.024917318115234,17.547190368652345,7.889187318115234,17.422260368652346L3.1934973181152344,12.657410368652343C2.868007318115234,12.333730368652343,2.6870973181152342,11.889080368652344,2.6927673181152345,11.426670368652344C2.7126373181152346,10.739752368652344,3.1369973181152346,10.132088368652344,3.7690973181152345,9.885390368652343C4.401197318115234,9.638693368652344,5.117467318115235,9.801195868652345,5.585847318115234,10.297564368652344L10.270417318115234,15.017250368652345C10.842667318115234,15.588800368652343,11.163597318115235,16.370370368652345,11.160597318115235,17.185140368652345L11.160597318115235,22.661290368652345C11.167167318115235,22.851090368652343,11.013797318115234,23.006690368652343,10.826777318115234,23.000090368652344ZM2.1475333181152343,22.322590368652342L10.492957318115234,22.322590368652342L10.492957318115234,21.633890368652345L2.2254243181152344,21.633890368652345L2.1475333181152343,22.322590368652342Z" fill="#898989" fill-opacity="1"/></g></g></g><g><g clipPath="url(#master_svg1_1070_1429)"><g style="opacity:0.6000000238418579;"><rect x="-522.056640625" y="-226.08209228515625" width="629.73486328125" height="278.10015869140625" rx="0" fill="url(#master_svg2_1011_1471)" fill-opacity="1"/></g></g><g><g clipPath="url(#master_svg3_1070_1437)"><g><path d="M28.129727343749998,39.58666884765625L19.76201734375,39.58666884765625C17.409007343749998,39.58676884765625,15.49636344375,37.66106884765625,15.47802734375,35.27346884765625L15.47802734375,-6.85371115234375C15.49028814375,-9.24389115234375,17.40650734375,-11.17317339234375,19.76201734375,-11.16691607704375L28.129727343749998,-11.16691607704375C30.48342734375,-11.17315939234375,32.39642734375,-9.24207115234375,32.402527343749995,-6.85371115234375L32.402527343749995,35.27346884765625C32.39032734375,37.65916884765625,30.48092734375,39.58666884765625,28.129727343749998,39.58666884765625ZM19.76201734375,-10.86205515234375C17.57676734375,-10.86209115234375,15.80183234375,-9.07111115234375,15.78959034375,-6.85371115234375L15.78959034375,35.27346884765625C15.80185034375,37.48896884765625,17.57857734375,39.27676884765625,19.76201734375,39.27046884765625L28.129727343749998,39.27046884765625C30.31062734375,39.27056884765625,32.08382734375,37.48636884765625,32.10212734375,35.27346884765625L32.10212734375,-6.85371115234375C32.08992734375,-9.07107115234375,30.31502734375,-10.86205615234375,28.129727343749998,-10.86205515234375L19.76201734375,-10.86205515234375Z" fill="#AAA9A9" fill-opacity="1"/></g></g><g clipPath="url(#master_svg4_1070_1440)"><g><path d="M0.4895066406250006,7.5312569335937525L-13.085693359375,7.5312569335937525L-13.085693359375,-62.10108306640625L-6.676403359375,-67.74664306640625L0.4895066406250006,-62.10108306640625L0.4895066406250006,7.5312569335937525ZM-12.774131359375,7.215056933593743L0.17800664062500005,7.215056933593743L0.17800664062500005,-61.97688306640625L-6.676403359375,-67.29499706640625L-12.807512359375,-61.98817306640625L-12.774131359375,7.215056933593743Z" fill="#AAA9A9" fill-opacity="1"/></g></g></g><g><g clipPath="url(#master_svg5_1070_1427)"><g><path d="M67.87635156249996,39.58659716796876L37.46535156250002,39.58659716796876L37.46535156250002,38.660597167968746L16.779351562499983,38.660597167968746C16.718351562500004,38.75659716796875,16.61435156250002,38.81559716796875,16.50135156250002,38.81859716796876L-7.978648437499999,38.81859716796876C-8.091648437499998,38.81959716796874,-8.197648437499993,38.759597167968764,-8.256648437500019,38.660597167968746L-9.157648437499972,38.660597167968746C-9.216648437499998,38.759597167968764,-9.322648437499993,38.81959716796874,-9.435648437499992,38.81859716796876L-94.30364843749999,38.81859716796876C-99.06564843749999,38.81859716796876,-104.9186484375,38.81859716796876,-111.70664843750001,38.81859716796876C-111.76064843749998,38.83459716796875,-111.81864843749997,38.83459716796875,-111.87364843749998,38.81859716796876L-172.47264843750003,38.81859716796876C-172.58564843750003,38.81959716796874,-172.69164843750002,38.759597167968764,-172.7506484375,38.660597167968746L-175.9886484375,38.660597167968746L-175.9886484375,38.80759716796874L-195.61664843749998,38.80759716796874L-195.61664843749998,38.64959716796875L-198.9546484375,38.64959716796875C-199.0506484375,38.751597167968754,-199.18364843749998,38.80859716796874,-199.3226484375,38.80759716796874L-247.4696484375,38.80759716796874C-247.5956484375,38.80759716796874,-247.7146484375,38.749597167968744,-247.7926484375,38.64959716796875L-251.1306484375,38.64959716796875L-251.1306484375,38.75059716796875L-251.2086484375,38.75059716796875L-251.2086484375,38.80759716796874L-261.62364843750004,38.80759716796874C-262.90564843749996,39.422597167968746,-264.3916484375,39.422597167968746,-265.6736484375,38.80759716796874L-267.0866484375,38.80759716796874C-267.32564843750004,38.85259716796875,-267.5716484375,38.85259716796875,-267.8106484375,38.80759716796874L-269.07864843749996,38.80759716796874C-269.4896484375,38.85259716796875,-269.9036484375,38.85259716796875,-270.3136484375,38.80759716796874L-275.2206484375,38.80759716796874L-275.2206484375,38.70559716796876L-275.2766484375,38.70559716796876L-278.3696484375,38.70559716796876C-278.43164843750003,38.80159716796874,-278.53564843749996,38.86059716796876,-278.6486484375,38.86359716796875L-332.9376484375,38.86359716796875C-333.05164843750003,38.86459716796875,-333.15764843750003,38.80459716796875,-333.2166484375,38.70559716796876L-336.0536484375,38.70559716796876C-336.1446484375,38.80759716796874,-336.2746484375,38.86459716796875,-336.4096484375,38.86359716796875L-381.75364843750003,38.86359716796875L-381.75364843750003,38.70559716796876L-382.4206484375,38.70559716796876C-382.47764843749997,38.80159716796874,-382.57864843749996,38.86059716796876,-382.6876484375,38.86359716796875L-392.4576484375,38.86359716796875C-392.5713484375,38.86459716796875,-392.6770484375,38.80459716796875,-392.7358484375,38.70559716796876L-394.7387484375,38.70559716796876C-394.8099484375,38.80259716796874,-394.9205484375,38.86059716796876,-395.0391484375,38.86359716796875L-448.1606484375,38.86359716796875L-448.1606484375,38.70559716796876L-449.2733484375,38.70559716796876C-449.3192484375,38.80059716796876,-449.4137484375,38.86159716796874,-449.51814843750003,38.86359716796875L-461.7803484375,38.86359716796875C-461.8675484375,38.862597167968744,-461.9492484375,38.82059716796874,-462.0029484375,38.75059716796875L-468.3677484375,38.75059716796875L-485.2811084375,38.75059716796875L-485.2811084375,38.50259716796876L-489.2646484375,38.50259716796876L-489.2646484375,15.491597167968763L-487.9961284375,15.491597167968763L-487.9961284375,12.65759716796876L-484.7803384375,12.65759716796876L-483.3004284375,14.125597167968749L-483.3004284375,10.16159716796875L-481.2307784375,10.16159716796875C-480.6174384375,9.165597167968741,-479.5395184375,8.563597167968737,-478.3822484375,8.569597167968737C-477.2091484375,8.547597167968746,-476.1107484375,9.152597167968736,-475.4891484375,10.16159716796875L-474.2873484375,10.16159716796875L-474.2873484375,-26.827402832031254L-473.1190484375,-26.827402832031254L-473.1190484375,-27.448402832031263C-473.0885484375,-29.633402832031237,-471.3216484375,-31.38040283203125,-469.1688484375,-31.355402832031245L-462.83744843750003,-31.355402832031245C-460.6846484375,-31.38040283203125,-458.91784843749997,-29.633402832031237,-458.8873484375,-27.448402832031263L-458.8873484375,-26.827402832031254L-458.3532484375,-26.827402832031254L-458.3532484375,2.6415971679687402L-456.4727484375,2.6415971679687402L-456.4727484375,8.287597167968755C-455.73644843750003,8.446597167968747,-455.2085484375,9.104597167968763,-455.2041484375,9.868597167968744L-455.2041484375,10.037597167968755C-455.0785484375,10.035597167968746,-454.9700484375,10.126597167968754,-454.9482484375,10.252597167968759L-454.7702484375,10.252597167968759C-454.6245484375,10.245597167968754,-454.5030484375,10.363597167968749,-454.5031484375,10.511597167968745L-454.5031484375,13.549597167968756L-454.1470484375,13.549597167968756L-454.1470484375,2.5295971679687455L-452.6003484375,2.5295971679687455L-452.6003484375,-2.935402832031258L-451.4209484375,-2.935402832031258C-451.0776484375,-5.12040283203126,-449.3464484375,-6.808402832031248,-447.1814484375,-7.068402832031239L-447.0033484375,-10.105402832031245L-445.9462484375,-10.105402832031245L-445.7682484375,-7.057402832031244C-445.38704843749997,-6.999402832031251,-445.0137484375,-6.896402832031242,-444.6555484375,-6.752402832031237L-444.6555484375,-16.552402832031248L-444.6555484375,-16.936402832031263L-443.7764484375,-16.936402832031263L-443.7764484375,-29.718402832031245L-443.7764484375,-30.057402832031244L-436.1877484375,-30.057402832031244L-436.1877484375,-30.147402832031247L-435.6424484375,-30.147402832031247L-435.6424484375,-38.16440283203124L-433.5060484375,-38.16440283203124L-433.5060484375,-43.17740283203125L-431.8480484375,-43.17740283203125L-431.8480484375,-38.16440283203124L-425.0938484375,-38.16440283203124L-425.0938484375,-8.253402832031242L-418.5621484375,-8.253402832031242L-418.5621484375,5.984597167968758L-416.0474484375,5.984597167968758L-416.0474484375,-4.60640283203125C-416.0475484375,-4.817402832031263,-415.8762484375,-4.985402832031241,-415.6690484375,-4.979402832031241L-415.3797484375,-4.979402832031241L-415.3797484375,-10.162402832031262C-415.3782484375,-10.222402832031264,-415.3589484375,-10.281402832031262,-415.3241484375,-10.331402832031245C-415.2915484375,-10.510402832031247,-415.1362484375,-10.639402832031237,-414.9569484375,-10.636402832031251L-414.3560484375,-10.636402832031251L-414.3560484375,-11.494402832031255C-414.3662484375,-11.554402832031258,-414.3662484375,-11.615402832031236,-414.3560484375,-11.675402832031239L-410.5394484375,-18.303402832031253L-410.5394484375,-18.551402832031243C-410.5340484375,-18.750402832031256,-410.37934843749997,-18.912402832031262,-410.1833484375,-18.924402832031262L-407.7687484375,-23.101402832031255C-407.7026484375,-23.214402832031254,-407.5859484375,-23.286402832031257,-407.4571484375,-23.293402832031262L-407.32364843749997,-23.293402832031262C-407.2370484375,-23.26740283203125,-407.1647484375,-23.206402832031245,-407.1233484375,-23.12440283203125L-404.7087484375,-18.946402832031254C-404.5040484375,-18.946402832031254,-404.3364484375,-18.78140283203126,-404.33044843749997,-18.57440283203124L-404.33044843749997,-18.20140283203125L-400.5805484375,-11.697402832031258C-400.5625484375,-11.638402832031261,-400.5625484375,-11.575402832031244,-400.5805484375,-11.517402832031252L-400.5805484375,-10.658402832031243L-399.97964843750003,-10.658402832031243C-399.8204484375,-10.663402832031238,-399.67664843750003,-10.562402832031239,-399.6235484375,-10.410402832031252C-399.5382484375,-10.355402832031245,-399.48124843749997,-10.264402832031237,-399.4678484375,-10.162402832031262L-399.4678484375,-4.9564028320312445L-399.1674484375,-4.9564028320312445C-398.9603484375,-4.9634028320312495,-398.7890484375,-4.794402832031238,-398.7890484375,-4.584402832031259L-398.7890484375,0.9375971679687609L-390.6996484375,0.9375971679687609L-390.6996484375,-13.549402832031262C-390.6936484375,-13.72540283203125,-390.5508484375,-13.865402832031236,-390.3769484375,-13.865402832031236L-389.0526484375,-13.865402832031236L-389.0526484375,-14.678402832031253C-389.0546484375,-14.701402832031249,-389.0546484375,-14.72340283203124,-389.0526484375,-14.746402832031237Q-389.0526484375,-14.746402832031237,-389.0526484375,-14.814402832031249L-389.0526484375,-17.015402832031242Q-389.0526484375,-17.015402832031242,-389.0526484375,-17.083402832031254C-389.0526484375,-17.151402832031238,-389.0526484375,-17.140402832031242,-389.0526484375,-17.151402832031238L-389.0526484375,-19.014402832031237C-389.0526484375,-19.19540283203125,-388.9086484375,-19.341402832031264,-388.72964843750003,-19.341402832031264L-385.6926484375,-19.341402832031264C-385.5136484375,-19.341402832031264,-385.3696484375,-19.19540283203125,-385.3696484375,-19.014402832031237L-385.3696484375,-13.809402832031253L-384.4236484375,-13.809402832031253C-384.2496484375,-13.809402832031253,-384.1066484375,-13.669402832031238,-384.1006484375,-13.49340283203125L-384.1006484375,13.481597167968744L-379.9056484375,13.481597167968744L-379.9056484375,-15.34440283203125L-373.7976484375,-15.34440283203125L-373.7416484375,-30.361402832031246L-371.5166484375,-30.361402832031246L-371.5166484375,-22.69540283203125L-369.2906484375,-22.69540283203125L-369.2906484375,-20.43740283203124L-367.0656484375,-20.43740283203124L-367.0656484375,-17.523402832031252L-365.8416484375,-16.315402832031253L-364.3836484375,-17.76140283203125L-357.8186484375,-11.246402832031237L-357.8186484375,-9.913402832031238L-357.5626484375,-9.913402832031238L-357.5626484375,-0.3164028320312582L-354.6586484375,-0.3164028320312582L-354.6586484375,-16.462402832031245C-354.6586484375,-16.730402832031245,-354.4446484375,-16.948402832031263,-354.17964843749996,-16.948402832031263L-353.80164843750003,-16.948402832031263L-353.80164843750003,-18.25740283203126L-354.17964843749996,-18.25740283203126C-354.4446484375,-18.25740283203126,-354.6586484375,-18.47540283203125,-354.6586484375,-18.74340283203125L-354.6586484375,-23.97140283203126C-354.6586484375,-24.23940283203126,-354.4446484375,-24.456402832031245,-354.17964843749996,-24.456402832031245L-349.5846484375,-24.456402832031245L-349.5846484375,-28.34040283203126C-349.57864843749996,-28.61040283203124,-349.3606484375,-28.82640283203125,-349.09464843750004,-28.82640283203125L-348.1376484375,-28.82640283203125L-348.1376484375,-34.03140283203126C-348.1446484375,-34.29740283203125,-347.9326484375,-34.51740283203125,-347.6706484375,-34.51740283203125L-347.6706484375,-40.49040283203125C-347.6666484375,-40.711402832031254,-347.5156484375,-40.90140283203125,-347.3036484375,-40.953402832031244L-347.3036484375,-46.94840283203125C-347.30464843749996,-47.16740283203124,-347.15764843750003,-47.35940283203125,-346.9476484375,-47.41140283203126L-346.9476484375,-58.973402832031255C-346.9416484375,-59.24340283203125,-346.7236484375,-59.459402832031245,-346.4576484375,-59.459402832031245L-346.1686484375,-59.459402832031245C-345.90264843750003,-59.459402832031245,-345.68464843749996,-59.24340283203125,-345.6786484375,-58.973402832031255L-345.6786484375,-47.366402832031255C-345.53564843749996,-47.27740283203126,-345.4466484375,-47.119402832031255,-345.4446484375,-46.94840283203125L-345.4446484375,-40.941402832031244C-345.2656484375,-40.86540283203125,-345.14764843750004,-40.68740283203125,-345.1446484375,-40.49040283203125L-345.1446484375,-34.50540283203125C-344.9286484375,-34.450402832031244,-344.7746484375,-34.25740283203126,-344.7666484375,-34.03140283203126L-344.7666484375,-28.82640283203125L-343.9206484375,-28.82640283203125C-343.6546484375,-28.82640283203125,-343.4366484375,-28.61040283203124,-343.4306484375,-28.34040283203126L-343.4306484375,-24.456402832031245L-342.25164843749997,-24.456402832031245L-342.25164843749997,-33.76040283203125L-339.3806484375,-33.76040283203125L-339.3806484375,-37.43040283203125L-332.4926484375,-37.43040283203125L-332.4926484375,-63.59140283203125C-332.4626484375,-65.77600283203125,-330.69564843750004,-67.52340283203125,-328.5426484375,-67.49830283203126L-317.9276484375,-67.49830283203126C-315.77264843750004,-67.52350283203126,-314.0026484375,-65.77780283203126,-313.9656484375,-63.59140283203125L-313.9656484375,-51.736402832031246L-300.92464843749997,-61.57040283203125L-300.92464843749997,-22.164402832031243L-297.7316484375,-22.164402832031243L-297.7316484375,-122.96030283203126L-279.5826484375,-122.96030283203126L-279.5826484375,-22.164402832031243L-278.1256484375,-22.164402832031243L-278.1256484375,-27.09840283203124L-275.4656484375,-27.09840283203124L-275.4656484375,-32.744402832031255C-275.4596484375,-32.95140283203125,-275.2926484375,-33.117402832031246,-275.0876484375,-33.11640283203124L-274.27564843749997,-33.11640283203124C-274.07064843750004,-33.117402832031246,-273.90264843750003,-32.95140283203125,-273.8966484375,-32.744402832031255L-273.8966484375,-19.059402832031253L-273.5636484375,-19.059402832031253L-273.5636484375,-27.97940283203124C-273.55664843750003,-28.18740283203124,-273.3896484375,-28.35240283203126,-273.18464843749996,-28.35240283203126L-271.90564843749996,-28.35240283203126C-271.70064843750004,-28.35240283203126,-271.53264843750003,-28.18740283203124,-271.5266484375,-27.97940283203124L-271.5266484375,-25.653402832031247L-271.2266484375,-25.653402832031247L-271.2266484375,-31.649402832031257C-271.2396484375,-31.69740283203126,-271.2396484375,-31.74740283203124,-271.2266484375,-31.795402832031243L-271.2266484375,-31.863402832031255C-271.22964843750003,-32.04540283203124,-271.10264843749997,-32.20340283203126,-270.9256484375,-32.236402832031246L-270.9256484375,-34.18940283203125C-270.9196484375,-34.39740283203125,-270.7526484375,-34.56240283203124,-270.5476484375,-34.56240283203124C-270.3426484375,-34.56240283203124,-270.1756484375,-34.39740283203125,-270.1696484375,-34.18940283203125L-270.1696484375,-32.236402832031246L-268.0776484375,-32.236402832031246L-268.0776484375,-34.22340283203124C-268.0776484375,-34.42740283203125,-267.9116484375,-34.591402832031264,-267.7106484375,-34.58440283203126C-267.5076484375,-34.591402832031264,-267.3376484375,-34.42940283203126,-267.3316484375,-34.22340283203124L-267.3316484375,-32.236402832031246L-265.1066484375,-32.236402832031246L-265.1066484375,-34.22340283203124C-265.1006484375,-34.42940283203126,-264.9306484375,-34.591402832031264,-264.7286484375,-34.58440283203126C-264.52764843750003,-34.591402832031264,-264.3606484375,-34.42740283203125,-264.3606484375,-34.22340283203124L-264.3606484375,-32.236402832031246L-262.1356484375,-32.236402832031246L-262.1356484375,-34.22340283203124C-262.1296484375,-34.42940283203126,-261.9596484375,-34.591402832031264,-261.7576484375,-34.58440283203126C-261.55464843749996,-34.591402832031264,-261.3846484375,-34.42940283203126,-261.37864843750003,-34.22340283203124L-261.37864843750003,-32.236402832031246L-259.1536484375,-32.236402832031246L-259.1536484375,-34.22340283203124C-259.14764843750004,-34.42940283203126,-258.97764843749997,-34.591402832031264,-258.7746484375,-34.58440283203126C-258.5726484375,-34.591402832031264,-258.40264843750003,-34.42940283203126,-258.3966484375,-34.22340283203124L-258.3966484375,-32.24740283203124L-255.1366484375,-32.450402832031244L-255.1366484375,-83.26070283203126C-255.1056484375,-85.44690283203126,-253.3406484375,-87.19760283203125,-251.1866484375,-87.17870283203125L-239.7586484375,-87.17870283203125C-237.6036484375,-87.19760283203125,-235.8386484375,-85.44690283203126,-235.8086484375,-83.26070283203126L-235.8086484375,-75.14240283203125L-235.1856484375,-75.14240283203125L-235.1856484375,-77.02800283203125L-234.4176484375,-77.02800283203125L-234.4176484375,-75.14240283203125L-232.01364843750002,-75.14240283203125L-232.01364843750002,-77.02800283203125L-231.2576484375,-77.02800283203125L-231.2576484375,-75.14240283203125L-228.84264843749997,-75.14240283203125L-228.84264843749997,-77.02800283203125L-228.0866484375,-77.02800283203125L-228.0866484375,-75.14240283203125L-226.7616484375,-75.14240283203125L-225.7046484375,-119.74230283203124L-222.9566484375,-119.74230283203124L-222.9566484375,-124.49590283203125L-220.5196484375,-124.49590283203125L-215.46764843749997,-136.81450283203125L-215.46764843749997,-164.08251183203126C-215.49364843749998,-164.49915783203124,-215.1666484375,-164.85117813103125,-214.75564843749999,-164.85031668763125C-214.3626484375,-164.85658800203126,-214.0386484375,-164.53809483203125,-214.03264843749997,-164.13897083203125L-214.03264843749997,-137.04030283203124L-208.9136484375,-124.54100283203125L-206.5436484375,-124.54100283203125L-206.5436484375,-119.78750283203125L-202.18164843749997,-119.78750283203125L-202.18164843749997,-119.34710283203125L-201.2356484375,-79.26370283203126L-201.2356484375,-79.11690283203124L-201.2356484375,-78.74430283203125L-200.65764843749997,-54.129402832031246L-188.9516484375,-54.129402832031246L-188.9516484375,-49.060402832031244L-178.61464843750002,-49.060402832031244L-178.61464843750002,-104.49930283203125L-165.1946484375,-104.49930283203125L-165.1946484375,-80.85570283203126L-164.67164843749998,-80.85570283203126L-164.67164843749998,-83.55430283203125C-164.67164843749998,-83.68470283203125,-164.5916484375,-83.80130283203125,-164.4716484375,-83.84790283203125L-163.3586484375,-84.28820283203125L-163.2476484375,-84.28820283203125L-162.35764843750002,-84.28820283203125L-162.35764843750002,-84.81890283203126C-162.35764843750002,-84.99800283203125,-162.2116484375,-85.14140283203125,-162.03464843749998,-85.13510283203125L-161.7786484375,-85.13510283203125L-161.7786484375,-85.98190283203125C-161.7786484375,-86.16100283203124,-161.6326484375,-86.30440283203124,-161.4566484375,-86.29800283203124L-161.0886484375,-86.29800283203124L-161.0886484375,-88.48850283203124C-161.08764843749998,-88.58020283203125,-161.04664843749998,-88.66670283203125,-160.97764843750002,-88.72560283203126L-160.71064843750003,-88.97400283203125L-160.71064843750003,-91.00640283203126C-160.71064843750003,-91.11000283203126,-160.66064843750002,-91.20700283203125,-160.5776484375,-91.26610283203125L-160.24364843749998,-91.49200283203125L-160.24364843749998,-94.10020283203124C-160.2426484375,-94.20930283203126,-160.18864843749998,-94.31100283203125,-160.0986484375,-94.37120283203124L-159.93164843749997,-94.47280283203125L-159.93164843749997,-94.84540283203125L-160.13164843750002,-94.98090283203125C-160.21964843749998,-95.03750283203125,-160.2746484375,-95.13490283203124,-160.2766484375,-95.24060283203124L-160.2766484375,-99.92640283203124C-160.2746484375,-100.02950283203126,-160.2256484375,-100.12570283203125,-160.14364843750002,-100.18610283203125L-160.14364843750002,-100.60390283203125L-160.2096484375,-100.60390283203125C-160.3866484375,-100.59750283203125,-160.53264843749997,-100.74090283203125,-160.53264843749997,-100.92000283203126L-160.53264843749997,-101.62010283203125C-160.5266484375,-101.79650283203125,-160.38364843750003,-101.93630283203126,-160.2096484375,-101.93620283203126L-159.73164843749998,-101.93620283203126L-159.73164843749998,-102.15080283203125L-160.2096484375,-102.15080283203125C-160.3866484375,-102.14440283203125,-160.53264843749997,-102.28780283203125,-160.53264843749997,-102.46690283203125L-160.53264843749997,-102.87340283203125C-160.53264843749997,-103.05250283203125,-160.3866484375,-103.19590283203125,-160.2096484375,-103.18950283203125L-160.0656484375,-103.18950283203125L-159.7986484375,-103.42660283203125L-159.73164843749998,-103.42660283203125L-159.73164843749998,-104.17190283203125C-159.9066484375,-104.16520283203124,-160.04964843750003,-104.31070283203124,-160.04264843750002,-104.48800283203124L-160.04264843750002,-105.00740283203125C-160.04264843750002,-105.18200283203126,-159.9036484375,-105.32360283203124,-159.73164843749998,-105.32360283203124L-159.29764843750002,-105.32360283203124L-158.74164843749998,-105.94460283203125L-158.6296484375,-120.23910283203125C-158.7546484375,-120.28200283203125,-158.8386484375,-120.39940283203126,-158.8416484375,-120.53270283203125L-158.8416484375,-120.81500283203124C-158.83564843750003,-120.99140283203124,-158.6926484375,-121.13120283203125,-158.51864843750002,-121.13110283203125L-158.31864843749997,-121.13110283203125L-158.31864843749997,-127.05900283203124C-158.41064843750002,-127.14230283203125,-158.46264843749998,-127.26140283203125,-158.46264843749998,-127.38640283203125C-158.4596484375,-127.60110283203124,-158.30464843750002,-127.78240283203125,-158.09564843750002,-127.81550283203126L-158.09564843750002,-131.20280283203124C-158.0896484375,-131.44160283203126,-157.89764843749998,-131.63190283203124,-157.6616484375,-131.63180283203124C-157.42264843750002,-131.63820283203125,-157.22264843750003,-131.44600283203124,-157.2166484375,-131.20280283203124L-157.2166484375,-127.81550283203126C-157.0096484375,-127.77830283203124,-156.85664843749998,-127.59940283203125,-156.84964843749998,-127.38640283203125C-156.84964843749998,-127.25880283203125,-156.9066484375,-127.13820283203125,-157.00564843749999,-127.05900283203124L-157.00564843749999,-121.13110283203125L-156.7936484375,-121.13110283203125C-156.6246484375,-121.12530283203125,-156.4876484375,-120.98710283203124,-156.48264843750002,-120.81500283203124L-156.48264843750002,-120.55530283203126C-156.47964843749997,-120.42380283203124,-156.5606484375,-120.30550283203125,-156.6826484375,-120.26170283203125L-156.57164843750002,-106.02360283203126L-156.00364843749998,-105.34610283203125L-155.58064843749997,-105.34610283203125C-155.4116484375,-105.34030283203126,-155.27564843750002,-105.20210283203124,-155.2696484375,-105.03000283203124L-155.2696484375,-104.49930283203125C-155.2696484375,-104.32470283203125,-155.4086484375,-104.18320283203124,-155.58064843749997,-104.18320283203124L-155.58064843749997,-103.46050283203125C-155.51364843750002,-103.44950283203124,-155.4516484375,-103.41800283203125,-155.40264843749998,-103.37020283203125L-155.22464843749998,-103.16700283203124L-155.10264843750002,-103.16700283203124C-154.9306484375,-103.16700283203124,-154.7906484375,-103.02540283203125,-154.7906484375,-102.85080283203125L-154.7906484375,-102.44430283203124C-154.7906484375,-102.26970283203124,-154.9306484375,-102.12820283203125,-155.10264843750002,-102.12820283203125L-155.58064843749997,-102.12820283203125L-155.58064843749997,-101.91360283203124L-155.10264843750002,-101.91360283203124C-154.9326484375,-101.90780283203125,-154.79664843749998,-101.76960283203124,-154.7906484375,-101.59750283203125L-154.7906484375,-100.95390283203125C-154.7906484375,-100.77930283203125,-154.9306484375,-100.63770283203125,-155.10264843750002,-100.63770283203125L-155.10264843750002,-100.24260283203125C-155.02064843749997,-100.18210283203125,-154.97064843750002,-100.08590283203125,-154.9686484375,-99.98290283203124L-154.9686484375,-95.26320283203125C-154.9716484375,-95.15750283203126,-155.02564843750002,-95.06010283203125,-155.1136484375,-95.00350283203124L-155.31364843749998,-94.86800283203125L-155.31364843749998,-94.55180283203126L-155.1466484375,-94.45020283203125C-155.0556484375,-94.39150283203125,-155.0006484375,-94.28890283203125,-155.0026484375,-94.17920283203125L-155.0026484375,-91.45810283203124L-154.67964843750002,-91.23230283203125C-154.59264843749997,-91.17600283203124,-154.5416484375,-91.07710283203124,-154.54664843749998,-90.97260283203126L-154.54664843749998,-88.94020283203125L-154.2676484375,-88.69170283203125C-154.2016484375,-88.63160283203125,-154.16464843749998,-88.54480283203125,-154.16764843750002,-88.45460283203126L-154.16764843750002,-86.26410283203126L-153.6226484375,-86.26410283203126C-153.44664843750002,-86.27050283203126,-153.29964843750003,-86.12710283203126,-153.29964843750003,-85.94800283203125L-153.29964843750003,-85.10120283203125L-153.0436484375,-85.10120283203125C-152.8676484375,-85.10760283203125,-152.7216484375,-84.96410283203124,-152.7216484375,-84.78500283203125L-152.7216484375,-84.25430283203124L-151.6086484375,-84.25430283203124L-151.50864843750003,-84.25430283203124L-150.39564843749997,-83.81400283203125C-150.27564843750002,-83.76740283203125,-150.19664843750002,-83.65080283203125,-150.19564843749998,-83.52040283203125L-150.19564843749998,-80.82180283203125L-148.5266484375,-80.82180283203125C-148.35264843750002,-80.82190283203126,-148.2096484375,-80.68210283203125,-148.20364843750002,-80.50570283203125L-148.20364843750002,-77.45710283203125L-147.8926484375,-77.45710283203125C-147.72964843749997,-77.45870283203125,-147.5916484375,-77.33780283203124,-147.5696484375,-77.17480283203125L-147.5696484375,-75.19890283203125L-142.2506484375,-75.19890283203125L-142.2506484375,-21.96140283203124L-137.71064843750003,-21.96140283203124L-136.1636484375,-37.06840283203125C-136.1736484375,-37.10940283203125,-136.1736484375,-37.15240283203126,-136.1636484375,-37.19340283203125L-130.7336484375,-47.580402832031254L-130.7336484375,-47.705402832031254L-130.6786484375,-47.705402832031254L-130.2336484375,-48.55140283203124L-129.2766484375,-75.76340283203125C-129.2646484375,-75.93540283203124,-129.12364843749998,-76.06870283203125,-128.95364843750002,-76.06830283203125C-128.7816484375,-76.07460283203125,-128.6366484375,-75.93810283203125,-128.63064843749999,-75.76340283203125L-128.1856484375,-50.866402832031255L-128.1856484375,-50.629402832031246L-120.3966484375,-54.01640283203125C-120.30264843750001,-54.06740283203125,-120.19064843749999,-54.06740283203125,-120.0966484375,-54.01640283203125C-120.00664843750002,-53.967402832031254,-119.95164843750001,-53.87140283203125,-119.95164843750001,-53.768402832031256L-119.35064843750001,-37.328402832031244L-118.6276484375,-36.51540283203124L-118.40464843749999,-36.51540283203124L-117.6036484375,-35.63440283203124L-117.6036484375,-35.307402832031244C-117.5676484375,-35.25740283203126,-117.54464843749997,-35.19940283203124,-117.53664843749999,-35.13840283203126L-116.42464843750003,-27.403402832031247L-110.93864843749998,-27.403402832031247L-110.93864843749998,-51.16040283203125L-102.3706484375,-51.16040283203125L-102.3706484375,-59.063402832031244C-102.36464843750002,-59.27140283203126,-102.19664843750002,-59.43640283203125,-101.99264843750001,-59.43640283203125L-101.2576484375,-59.43640283203125L-101.2576484375,-72.37610283203125C-101.25664843750002,-72.50570283203125,-101.18964843750001,-72.62550283203124,-101.0796484375,-72.69220283203126L-99.83364843750002,-73.49390283203125L-99.83364843750002,-75.75210283203126C-99.83564843750003,-75.83260283203126,-99.81164843750003,-75.91160283203125,-99.76664843750001,-75.97790283203125L-99.27764843749998,-76.66670283203125L-99.27764843749998,-79.67010283203125C-99.2766484375,-79.76090283203125,-99.24464843750002,-79.84860283203125,-99.18864843749998,-79.91860283203125L-98.5096484375,-80.68640283203125L-98.5096484375,-83.32850283203125C-98.50564843749999,-83.40980283203125,-98.4786484375,-83.48830283203125,-98.43164843749997,-83.55430283203125L-97.5746484375,-84.61570283203125L-97.5746484375,-87.40460283203124C-97.5746484375,-87.51760283203124,-97.5266484375,-87.62500283203126,-97.44164843750002,-87.69810283203125L-96.4956484375,-88.42080283203126L-96.4956484375,-91.23230283203125C-96.49664843750003,-91.33990283203126,-96.45164843750001,-91.44280283203125,-96.3726484375,-91.51450283203125L-95.60564843750001,-92.20330283203126L-95.60564843750001,-95.22930283203125C-95.62364843749998,-95.28810283203126,-95.62364843749998,-95.35110283203124,-95.60564843750001,-95.41000283203125L-95.12664843750002,-96.29070283203124L-95.12664843750002,-99.11350283203124C-95.03964843749998,-99.72060283203125,-94.80164843749998,-100.29550283203125,-94.43664843750003,-100.78450283203125L-94.29264843750002,-115.32750283203126C-94.29164843749999,-115.44810283203125,-94.24864843749998,-115.56450283203125,-94.16964843749997,-115.65490283203124C-94.11764843750001,-115.75730283203126,-94.02464843749999,-115.83150283203125,-93.9136484375,-115.85820283203125L-93.63564843749998,-115.85820283203125C-93.5216484375,-115.83310283203124,-93.42464843750003,-115.75890283203125,-93.36864843749998,-115.65490283203124C-93.29264843750002,-115.56340283203124,-93.25364843749998,-115.44680283203125,-93.2576484375,-115.32750283203126L-93.10164843749999,-100.78450283203125C-92.72664843749999,-100.32070283203124,-92.47064843750002,-99.76990283203125,-92.35564843750001,-99.18120283203125L-92.35564843750001,-96.29070283203124L-91.86664843749998,-95.41000283203125C-91.8536484375,-95.35040283203125,-91.8536484375,-95.28880283203125,-91.86664843749998,-95.22930283203125L-91.86664843749998,-92.20330283203126L-91.10964843750003,-91.51450283203125C-91.03064843750002,-91.44280283203125,-90.98664843749998,-91.33990283203126,-90.98764843750001,-91.23220283203125L-90.98764843750001,-88.42080283203126L-90.04164843749999,-87.69810283203125C-89.94664843750002,-87.63210283203125,-89.89164843750001,-87.52120283203125,-89.8966484375,-87.40460283203124L-89.8966484375,-84.61570283203125L-89.01764843749999,-83.55430283203125C-88.96364843750001,-83.49170283203125,-88.93164843749997,-83.41190283203125,-88.92864843749999,-83.32850283203125L-88.92864843749999,-80.66380283203125L-88.26164843750001,-79.89600283203124C-88.1996484375,-79.82880283203124,-88.16764843750002,-79.73920283203125,-88.17264843750002,-79.64760283203125L-88.17264843750002,-76.64410283203125L-87.67164843749998,-75.94410283203125C-87.62664843750002,-75.88200283203125,-87.6036484375,-75.80660283203125,-87.60464843749997,-75.72950283203124L-87.60464843749997,-73.47130283203126L-86.3586484375,-72.66970283203125C-86.25664843750002,-72.59740283203125,-86.1946484375,-72.47990283203124,-86.19164843750002,-72.35350283203125L-86.19164843750002,-59.38040283203125L-85.7576484375,-59.38040283203125C-85.55264843750001,-59.38040283203125,-85.38564843749998,-59.215402832031245,-85.37964843750001,-59.00740283203125L-85.37964843750001,-27.09840283203124L-79.00364843749998,-27.09840283203124L-79.00364843749998,-90.23860283203125L-71.65964843749998,-82.95590283203126L-71.65964843749998,-60.735402832031255L-69.2336484375,-60.735402832031255L-69.2336484375,-38.84140283203125L-67.59764843750003,-39.11240283203125L-67.59764843750003,-13.334402832031259L-64.73864843749999,-12.72540283203125L-64.73864843749999,-10.46740283203124L-59.497648437500004,-10.46740283203124L-59.497648437500004,-17.91940283203124L-53.01064843749998,-17.91940283203124L-53.01064843749998,-47.38840283203125L-39.757648437499995,-47.38840283203125L-39.757648437499995,-53.53140283203125C-39.75164843750002,-53.738402832031255,-39.58364843750002,-53.90440283203125,-39.37964843750001,-53.90340283203125L-38.94564843749998,-53.90340283203125C-38.7406484375,-53.90440283203125,-38.57264843749999,-53.738402832031255,-38.56664843750002,-53.53140283203125L-38.56664843750002,-53.30540283203125L-38.03264843749997,-53.30540283203125L-38.03264843749997,-67.48700283203125C-38.009648437500005,-67.60050283203125,-37.93564843749999,-67.69650283203126,-37.832648437499984,-67.74670283203125C-37.73864843749999,-67.82350283203125,-37.61464843750002,-67.84880283203125,-37.49864843749998,-67.81450283203125L-37.3656484375,-67.81450283203125L-37.3656484375,-71.66470283203125C-37.3656484375,-71.78300283203124,-37.30664843749997,-71.89350283203125,-37.20964843749999,-71.95830283203125C-37.116648437499975,-72.02680283203125,-36.99864843749998,-72.05150283203125,-36.886648437500014,-72.02610283203126L-35.773648437500015,-71.74380283203125L-35.37364843749998,-71.74380283203125C-35.30364843749999,-71.85670283203125,-35.18164843749997,-71.92510283203126,-35.0506484375,-71.92440283203125L-34.705648437499974,-71.92440283203125C-34.62164843750003,-71.92220283203125,-34.54064843750001,-71.89470283203126,-34.47264843750003,-71.84540283203125L-34.47264843750003,-76.98290283203124C-34.469648437499984,-77.10630283203125,-34.40764843749997,-77.22040283203125,-34.3056484375,-77.28770283203124C-34.19764843749999,-77.34800283203126,-34.0676484375,-77.34800283203126,-33.960648437500026,-77.28770283203124L-33.18164843749997,-76.99420283203125C-33.061648437500025,-76.95240283203125,-32.97264843750003,-76.84920283203125,-32.94764843749999,-76.72320283203125L-32.94764843749999,-78.91360283203124C-32.94464843750001,-79.01140283203125,-32.904648437499986,-79.10430283203125,-32.8366484375,-79.17330283203125L-32.446648437500016,-79.56850283203126C-32.299648437500025,-79.71780283203125,-32.06064843749999,-79.71780283203125,-31.912648437500025,-79.56850283203126L-31.523648437500015,-79.17330283203125C-31.458648437500017,-79.10320283203124,-31.422648437500015,-79.01010283203125,-31.423648437499992,-78.91360283203124L-31.423648437499992,-76.77960283203124C-31.396648437500005,-76.90120283203125,-31.313648437499978,-77.00230283203125,-31.20064843749998,-77.05060283203125L-30.521648437500005,-77.33290283203125C-30.41164843749999,-77.39520283203125,-30.2766484375,-77.39520283203125,-30.16564843750001,-77.33290283203125C-30.06464843750001,-77.25950283203125,-30.003648437499976,-77.14270283203125,-29.99864843749998,-77.01670283203126L-29.99864843749998,-71.86800283203125C-29.930648437499997,-71.92740283203125,-29.843648437500008,-71.95960283203125,-29.75464843750001,-71.95830283203125L-29.420648437500006,-71.95830283203125C-29.285648437500015,-71.96290283203125,-29.157648437499972,-71.89410283203125,-29.086648437500003,-71.77770283203125L-28.685648437499992,-71.77770283203125L-27.573648437500026,-72.05990283203126C-27.457648437499984,-72.08440283203124,-27.336648437500003,-72.06000283203124,-27.239648437500023,-71.99220283203125C-27.148648437500015,-71.92230283203125,-27.095648437500017,-71.81390283203125,-27.094648437499984,-71.69860283203126L-27.094648437499984,-67.74670283203125L-26.90564843750002,-67.74670283203125C-26.794648437499973,-67.77400283203124,-26.678648437499987,-67.75360283203125,-26.582648437499984,-67.69030283203125C-26.4906484375,-67.61690283203124,-26.437648437500002,-67.50430283203124,-26.438648437499978,-67.38540283203125L-26.438648437499978,-53.17040283203124L-26.282648437499972,-53.17040283203124L-26.282648437499972,-53.39540283203125C-26.2766484375,-53.60340283203125,-26.108648437499994,-53.768402832031256,-25.904648437499986,-53.768402832031256L-25.40364843750001,-53.768402832031256C-25.20064843749998,-53.768402832031256,-25.03664843749999,-53.601402832031255,-25.03664843749999,-53.39540283203125L-25.03664843749999,-47.253402832031256L-23.678648437499987,-47.253402832031256L-23.678648437499987,-22.20940283203126C-23.619648437500018,-22.145402832031237,-23.58764843749998,-22.060402832031258,-23.58964843749999,-21.972402832031264L-23.58964843749999,-13.549402832031262L-12.351648437499989,-13.549402832031262L-12.351648437499989,-5.894402832031261L-9.01264843749999,-6.786402832031257L-4.272648437499981,-5.656402832031262L-4.272648437499981,-6.2774028320312425C-4.284648437499982,-6.33040283203124,-4.284648437499982,-6.384402832031242,-4.272648437499981,-6.436402832031263L-4.1726484375000155,-6.774402832031257L-4.1726484375000155,-8.524402832031257C-4.178648437499987,-8.562402832031239,-4.178648437499987,-8.60040283203125,-4.1726484375000155,-8.637402832031256L-3.86164843749998,-9.58640283203124C-3.8036484374999873,-9.761402832031251,-3.628648437499976,-9.866402832031241,-3.4496484375000023,-9.834402832031259C-3.2646484375,-9.811402832031263,-3.12564843749999,-9.651402832031238,-3.126648437500023,-9.462402832031245L-3.126648437500023,-7.8244028320312395L-2.9156484375000105,-8.253402832031242C-2.8326484374999836,-8.413402832031238,-2.652648437499977,-8.49340283203125,-2.4816484374999845,-8.445402832031249C-2.3216484375000164,-8.403402832031247,-2.2146484374999886,-8.25140283203126,-2.2256484375000127,-8.084402832031259L-2.2256484375000127,-7.045402832031243L-2.091648437499998,-7.045402832031243L-1.1126484375000132,-7.045402832031243L-1.1126484375000132,-24.738402832031255C-1.1066484374999845,-24.946402832031254,-0.9386484374999782,-25.111402832031246,-0.7346484375000273,-25.111402832031246L-0.4446484375000068,-25.43940283203125L-0.4446484375000068,-26.08240283203125C-0.4446484375000068,-26.288402832031238,-0.28064843750001955,-26.45540283203124,-0.07764843749998818,-26.45540283203124L0.34535156250001364,-26.45540283203124L0.34535156250001364,-31.750402832031256C0.339351562499985,-31.784402832031247,0.339351562499985,-31.81840283203124,0.34535156250001364,-31.85240283203126L0.34535156250001364,-32.50740283203126C0.339351562499985,-32.54040283203125,0.339351562499985,-32.575402832031244,0.34535156250001364,-32.60840283203126L0.34535156250001364,-33.738402832031255C0.339351562499985,-33.77140283203124,0.339351562499985,-33.80540283203126,0.34535156250001364,-33.839402832031254L0.34535156250001364,-34.91240283203126C0.33835156250000864,-34.94540283203125,0.33835156250000864,-34.980402832031245,0.34535156250001364,-35.01340283203126L0.34535156250001364,-36.075402832031244C0.339351562499985,-36.11240283203125,0.339351562499985,-36.15040283203126,0.34535156250001364,-36.188402832031244L0.34535156250001364,-38.446402832031254C0.34635156249999,-38.52240283203125,0.36935156250001455,-38.59740283203125,0.4113515624999877,-38.66040283203125L0.6893515625000077,-39.05640283203125L1.1683515624999927,-40.39940283203126C1.225351562500009,-40.55340283203125,1.3733515624999768,-40.65340283203125,1.5353515625000114,-40.64840283203125C1.7033515625000177,-40.65040283203125,1.853351562499995,-40.54040283203125,1.9023515624999732,-40.37740283203125L2.0143515624999964,-39.98140283203125L3.3383515625000086,-43.233402832031246L3.3383515625000086,-44.48740283203125C3.322351562499989,-44.53840283203125,3.322351562499989,-44.593402832031245,3.3383515625000086,-44.64540283203125L3.672351562500012,-45.390402832031256L3.672351562500012,-46.587402832031245C3.673351562499988,-46.71640283203125,3.7403515624999955,-46.836402832031254,3.850351562500009,-46.90340283203125L4.106351562499981,-47.072402832031244L4.106351562499981,-47.637402832031256C4.0943515624999804,-47.685402832031244,4.0943515624999804,-47.735402832031255,4.106351562499981,-47.78440283203125L4.317351562499994,-48.29240283203124L4.317351562499994,-49.90640283203125C4.323351562500022,-50.114402832031246,4.491351562499972,-50.27940283203125,4.6953515624999795,-50.27940283203125L5.062351562499998,-50.27940283203125C5.312351562499998,-50.366402832031255,5.5703515624999795,-50.17440283203125,5.5633515624999745,-49.90640283203125L5.5633515624999745,-48.55140283203124L5.908351562500002,-47.750402832031256C5.918351562499993,-47.70140283203125,5.918351562499993,-47.65140283203125,5.908351562500002,-47.60340283203125L5.908351562500002,-47.03840283203125L6.164351562499974,-46.869402832031255C6.274351562499987,-46.80240283203125,6.3413515624999945,-46.68340283203125,6.342351562500028,-46.55340283203125L6.342351562500028,-45.35640283203125L6.687351562499998,-44.60040283203125C6.692351562499994,-44.55140283203124,6.692351562499994,-44.50240283203125,6.687351562499998,-44.453402832031244L6.687351562499998,-43.17740283203125L8.022351562499978,-39.98140283203125L8.123351562499977,-40.343402832031245C8.153351562500006,-40.51440283203125,8.297351562500012,-40.640402832031256,8.467351562500028,-40.64840283203125C8.628351562499972,-40.65640283203125,8.774351562499987,-40.55440283203124,8.824351562499999,-40.39940283203126L9.302351562500007,-39.06740283203125L9.580351562500027,-38.67240283203125C9.628351562499972,-38.611402832031246,9.656351562499992,-38.53540283203125,9.658351562500002,-38.45740283203125L9.658351562500002,-37.328402832031244C9.669351562500026,-37.268402832031256,9.669351562500026,-37.20740283203125,9.658351562500002,-37.14740283203125L9.658351562500002,-31.502402832031237C9.668351562499993,-31.442402832031263,9.668351562499993,-31.381402832031256,9.658351562500002,-31.321402832031254L9.658351562500002,-26.522402832031247C9.698351562500022,-26.534402832031247,9.740351562499995,-26.534402832031247,9.780351562500016,-26.522402832031247L10.081351562500004,-26.522402832031247C10.286351562499988,-26.523402832031252,10.453351562500018,-26.357402832031255,10.45935156249999,-26.15040283203126L10.45935156249999,-25.506402832031256L10.74935156250001,-25.168402832031262C10.953351562500018,-25.168402832031262,11.121351562500024,-25.00340283203124,11.127351562499996,-24.795402832031243L11.127351562499996,-7.023402832031252L11.694351562500003,-7.023402832031252L12.240351562499995,-7.113402832031255L12.240351562499995,-8.084402832031259C12.231351562499981,-8.258402832031237,12.349351562499976,-8.412402832031262,12.518351562500015,-8.445402832031249C12.685351562499989,-8.48740283203125,12.859351562500024,-8.408402832031243,12.941351562500017,-8.253402832031242L13.163351562499997,-7.8244028320312395L13.163351562499997,-9.462402832031245C13.161351562499988,-9.647402832031247,13.294351562500026,-9.806402832031239,13.475351562500009,-9.834402832031259C13.657351562500025,-9.872402832031241,13.839351562499985,-9.766402832031247,13.898351562500011,-9.58640283203124L14.20935156249999,-8.637402832031256C14.216351562499995,-8.60040283203125,14.216351562499995,-8.562402832031239,14.20935156249999,-8.524402832031257L14.20935156249999,-6.774402832031257L14.37635156250002,-6.3454028320312545C14.387351562499987,-6.293402832031262,14.387351562499987,-6.23940283203126,14.37635156250002,-6.187402832031239L14.198351562500022,-3.6024028320312595L14.465351562500018,-3.387402832031256C14.542351562500016,-3.319402832031244,14.587351562499975,-3.2204028320312545,14.587351562499975,-3.116402832031241L14.587351562499975,1.8515971679687482L18.315351562499984,1.8515971679687482L18.315351562499984,26.353597167968758L35.195351562500036,26.353597167968758L35.195351562500036,5.171597167968741L40.147351562500035,5.171597167968741L40.147351562500035,-16.39440283203126L55.55835156249998,-16.39440283203126L55.55835156249998,-6.232402832031255L61.5333515625,-6.232402832031255C63.708351562499956,-6.2514028320312605,65.47935156250003,-4.464402832031254,65.47235156249997,-2.258402832031237L65.47235156249997,-1.4454028320312489L67.87635156249996,-1.4454028320312489L67.87635156249996,12.962597167968738L71.65935156249998,12.962597167968738C73.85935156250002,12.904597167968745,75.67235156250001,14.702597167968747,75.66535156249995,16.936597167968756L75.66535156249995,24.388597167968754L80.93935156249995,24.388597167968754L80.93935156249995,30.305597167968756L85.05635156250003,30.305597167968756L85.05635156250003,38.67159716796874L67.87635156249996,38.67159716796874L67.87635156249996,39.58659716796876ZM37.73235156249996,39.281597167968755L67.59835156250006,39.281597167968755L67.59835156250006,38.38959716796876L84.70035156250003,38.38959716796876L84.70035156250003,30.598597167968762L80.58335156249996,30.598597167968762L80.58335156249996,24.682597167968737L75.30935156249996,24.682597167968737L75.30935156249996,16.936597167968756C75.28435156249998,14.914597167968736,73.65235156250003,13.293597167968755,71.65935156249998,13.312597167968761L67.59835156250006,13.312597167968761L67.59835156250006,-1.1294028320312464L65.17235156250001,-1.1294028320312464L65.17235156250001,-2.258402832031237C65.14735156250003,-4.274402832031257,63.52035156249997,-5.890402832031242,61.5333515625,-5.871402832031237L55.258351562500025,-5.871402832031237L55.258351562500025,-16.033402832031243L40.44735156249999,-16.033402832031243L40.44735156249999,5.476597167968748L35.50735156250005,5.476597167968748L35.50735156250005,26.658597167968736L17.992351562500005,26.658597167968736L17.992351562500005,2.156597167968755L14.265351562499973,2.156597167968755L14.265351562499973,-3.161402832031257C14.27535156250002,-3.1794028320312577,14.27535156250002,-3.2004028320312443,14.265351562499973,-3.218402832031245L13.920351562500002,-3.522402832031247L14.109351562500024,-6.255402832031251L13.88635156250001,-6.774402832031257L13.88635156250001,-8.524402832031257L13.575351562499975,-9.484402832031236C13.554351562500017,-9.496402832031237,13.529351562499983,-9.496402832031237,13.508351562500025,-9.484402832031236C13.462351562499975,-9.49340283203125,13.422351562500012,-9.452402832031254,13.430351562499993,-9.405402832031257L13.430351562499993,-7.531402832031262L12.9853515625,-7.3954028320312375L12.640351562499973,-8.062402832031239C12.620351562499991,-8.07440283203124,12.59435156249998,-8.07440283203124,12.573351562500022,-8.062402832031239C12.537351562500021,-8.062402832031239,12.507351562499991,-8.031402832031262,12.507351562499991,-7.9944028320312555L12.507351562499991,-6.774402832031257L11.772351562499978,-6.774402832031257L10.882351562499991,-6.774402832031257L10.882351562499991,-24.738402832031255Q10.882351562499991,-24.80640283203124,10.804351562500017,-24.80640283203124L10.571351562500013,-24.80640283203124L10.571351562500013,-24.95340283203126L10.214351562499985,-25.371402832031237L10.214351562499985,-26.11640283203124Q10.214351562499985,-26.184402832031253,10.137351562499987,-26.184402832031253L9.792351562500016,-26.184402832031253Q9.714351562499985,-26.184402832031253,9.714351562499985,-26.11640283203124L9.714351562499985,-25.43940283203125L9.35835156249999,-25.12240283203124L9.35835156249999,-31.36640283203124L9.35835156249999,-37.012402832031256L9.35835156249999,-38.28840283203125L9.035351562500011,-38.751402832031246L8.556351562500026,-40.10640283203125C8.532351562500025,-40.11840283203125,8.503351562499972,-40.11840283203125,8.479351562500028,-40.10640283203125C8.446351562500013,-40.10640283203125,8.417351562500016,-40.08240283203125,8.412351562500021,-40.04940283203125L8.078351562500018,-38.852402832031245L6.387351562499987,-43.17740283203125L6.387351562499987,-44.48740283203125L6.031351562499992,-45.322402832031244L6.031351562499992,-46.55340283203125C6.041351562499983,-46.57040283203125,6.041351562499983,-46.592402832031254,6.031351562499992,-46.60940283203125L5.5633515624999745,-46.90340283203125L5.5633515624999745,-47.637402832031256L5.20735156249998,-48.55140283203124L5.20735156249998,-49.90640283203125C5.20735156249998,-49.950402832031244,5.172351562500012,-49.985402832031255,5.1293515625000055,-49.985402832031255L4.762351562499987,-49.985402832031255Q4.6953515624999795,-49.985402832031255,4.6953515624999795,-49.90640283203125L4.6953515624999795,-48.21340283203125L4.4733515624999995,-47.67140283203125L4.4733515624999995,-46.90340283203125L4.072351562499989,-46.643402832031256C4.062351562499998,-46.626402832031246,4.062351562499998,-46.604402832031255,4.072351562499989,-46.587402832031245L4.072351562499989,-45.30040283203125L3.7163515624999945,-44.509402832031256L3.7163515624999945,-43.15440283203125L2.047351562500012,-39.05640283203125L1.7023515624999845,-40.29840283203124C1.6933515625000268,-40.328402832031244,1.6673515625000164,-40.351402832031255,1.6353515624999773,-40.354402832031255C1.600351562500009,-40.35640283203125,1.5683515625000268,-40.33240283203125,1.5573515625000027,-40.29840283203124L0.9683515625000041,-38.92040283203124L0.6673515625000164,-38.491402832031255L0.6673515625000164,-25.168402832031262L0.3333515625000132,-25.472402832031264L0.3333515625000132,-26.15040283203126Q0.3333515625000132,-26.218402832031245,0.256351562500015,-26.218402832031245L-0.07764843749998818,-26.218402832031245C-0.11464843750002274,-26.218402832031245,-0.14464843749999545,-26.18740283203124,-0.14464843749999545,-26.15040283203126L-0.14464843749999545,-25.405402832031257L-0.50064843749999,-24.98740283203125L-0.50064843749999,-24.87440283203125L-0.6236484374999804,-24.87440283203125L-0.7896484374999773,-24.87440283203125C-0.8266484375000118,-24.87440283203125,-0.8566484374999845,-24.84440283203125,-0.8566484374999845,-24.80640283203124L-0.8566484374999845,-6.774402832031257L-2.069648437500007,-6.774402832031257L-2.4816484374999845,-6.774402832031257L-2.4816484374999845,-8.084402832031259C-2.469648437499984,-8.105402832031245,-2.469648437499984,-8.131402832031256,-2.4816484374999845,-8.152402832031242C-2.508648437500028,-8.168402832031262,-2.54264843750002,-8.168402832031262,-2.570648437499983,-8.152402832031242L-2.9046484374999864,-7.486402832031246L-3.3496484374999795,-7.621402832031237L-3.3496484374999795,-9.462402832031245C-3.348648437500003,-9.50140283203126,-3.3776484374999995,-9.535402832031252,-3.4156484375000105,-9.541402832031253L-3.493648437499985,-9.541402832031253L-3.805648437499997,-8.603402832031236L-3.805648437499997,-6.774402832031257L-3.983648437499994,-6.311402832031263L-3.916648437499987,-5.250402832031256L-9.057648437500006,-6.46940283203125L-12.6516484375,-5.4874028320312505L-12.6516484375,-13.23340283203126L-23.945648437499983,-13.23340283203126L-23.945648437499983,-22.07440283203124L-24.001648437500023,-22.14240283203125L-24.001648437500023,-46.982402832031255L-25.358648437499994,-46.982402832031255L-25.358648437499994,-53.42940283203124C-25.358648437499994,-53.467402832031254,-25.388648437500024,-53.497402832031256,-25.4256484375,-53.497402832031256L-25.926648437499978,-53.497402832031256C-25.965648437500022,-53.497402832031256,-25.99864843749998,-53.468402832031245,-26.00464843750001,-53.42940283203124L-26.00464843750001,-52.91040283203125L-26.705648437499974,-52.91040283203125L-26.76064843749998,-53.07940283203125L-26.76064843749998,-67.41930283203125L-27.350648437500013,-67.26120283203124L-27.350648437500013,-71.51800283203124C-27.340648437500022,-71.53540283203125,-27.340648437500022,-71.55690283203126,-27.350648437500013,-71.57440283203125L-28.463648437500012,-71.28090283203124L-29.119648437500018,-71.28090283203124L-29.119648437500018,-71.40510283203125C-29.12564843749999,-71.44430283203125,-29.158648437500005,-71.47320283203125,-29.197648437499993,-71.47280283203125L-29.531648437499996,-71.47280283203125C-29.567648437499997,-71.46650283203125,-29.597648437500027,-71.44040283203125,-29.609648437500027,-71.40510283203125L-29.609648437500027,-71.28090283203124L-30.05464843750002,-71.28090283203124L-30.05464843750002,-76.82480283203125Q-30.05464843750002,-76.82480283203125,-30.05464843750002,-76.89250283203125C-30.07564843749998,-76.90460283203124,-30.100648437500013,-76.90460283203124,-30.121648437500028,-76.89250283203125L-30.8006484375,-76.59900283203125C-30.81464843750001,-76.57890283203125,-30.81464843750001,-76.55130283203125,-30.8006484375,-76.53120283203125L-30.8006484375,-76.30540283203125L-31.423648437499992,-76.30540283203125L-31.423648437499992,-78.80070283203125L-31.801648437499978,-79.19590283203125C-31.834648437499993,-79.22240283203125,-31.880648437499985,-79.22240283203125,-31.912648437500025,-79.19590283203125L-32.30264843750001,-78.80070283203125L-32.30264843750001,-76.30540283203125L-32.9256484375,-76.30540283203125L-32.9256484375,-76.53120283203125L-32.9256484375,-76.59900283203125L-33.7046484375,-76.89250283203125C-33.72664843749999,-76.89880283203125,-33.749648437500014,-76.89880283203125,-33.771648437500005,-76.89250283203125C-33.77864843750001,-76.87060283203125,-33.77864843750001,-76.84670283203126,-33.771648437500005,-76.82480283203125L-33.771648437500005,-71.28090283203124L-34.2166484375,-71.28090283203124L-34.2166484375,-71.40510283203125C-34.2166484375,-71.44250283203125,-34.24664843750003,-71.47280283203125,-34.28264843749997,-71.47280283203125L-34.6276484375,-71.47280283203125C-34.66464843749998,-71.46650283203125,-34.69464843750001,-71.44040283203125,-34.705648437499974,-71.40510283203125L-34.705648437499974,-71.28090283203124L-35.384648437500005,-71.28090283203124L-36.497648437500004,-71.57440283203125L-36.56364843749998,-71.57440283203125C-36.573648437500026,-71.55700283203124,-36.573648437500026,-71.53550283203126,-36.56364843749998,-71.51800283203124L-36.56364843749998,-67.27250283203125L-37.07564843749998,-67.41930283203125C-37.10164843749999,-67.42720283203126,-37.128648437499976,-67.42720283203126,-37.15364843750001,-67.41930283203125L-37.15364843750001,-53.18140283203125L-37.15364843750001,-53.057402832031244L-38.26664843750001,-53.057402832031244L-38.26664843750001,-53.57640283203125C-38.27264843749998,-53.61540283203125,-38.3056484375,-53.64440283203125,-38.344648437499984,-53.64440283203125L-38.83364843750002,-53.64440283203125C-38.872648437500004,-53.64440283203125,-38.906648437499996,-53.61540283203125,-38.91164843749999,-53.57640283203125L-38.91164843749999,-47.129402832031246L-52.72064843750002,-47.129402832031246L-52.72064843750002,-17.670402832031243L-59.207648437499984,-17.670402832031243L-59.207648437499984,-10.162402832031262L-65.04964843750003,-10.162402832031262L-65.04964843750003,-12.420402832031243L-67.87664843750002,-13.097402832031264L-67.87664843750002,-38.762402832031256L-69.51164843750001,-38.480402832031245L-69.51164843750001,-60.441402832031244L-71.9376484375,-60.441402832031244L-71.9376484375,-82.83170283203125L-78.6806484375,-89.51600283203125L-78.6806484375,-26.805402832031263L-85.67964843750002,-26.805402832031263L-85.67964843750002,-59.03040283203126C-85.67964843750002,-59.06740283203125,-85.7096484375,-59.09740283203125,-85.74664843750003,-59.09740283203125L-86.48064843750001,-59.09740283203125L-86.48064843750001,-72.37610283203125C-86.47064843750002,-72.39360283203125,-86.47064843750002,-72.41510283203125,-86.48064843750001,-72.43250283203125L-87.8606484375,-73.33580283203125L-87.8606484375,-75.72960283203125L-88.40564843750002,-76.50860283203124L-88.40564843750002,-79.60240283203125L-89.16264843750002,-80.46050283203125L-89.16264843750002,-83.32850283203125L-90.0746484375,-84.45760283203126L-90.0746484375,-87.34810283203124L-91.1876484375,-88.16110283203125L-91.1876484375,-91.23230283203125L-92.0556484375,-92.01130283203125L-92.0556484375,-95.20670283203125L-92.57864843750002,-96.15520283203125L-92.57864843750002,-99.05700283203124C-92.6586484375,-99.62730283203125,-92.88064843749999,-100.16750283203125,-93.2236484375,-100.62650283203125L-93.37964843750001,-115.30490283203125C-93.38164843750002,-115.35880283203124,-93.40064843750002,-115.41060283203126,-93.43564843749999,-115.45170283203126C-93.45664843750001,-115.46190283203126,-93.48064843750001,-115.46190283203126,-93.5026484375,-115.45170283203126L-93.6466484375,-115.45170283203126C-93.6926484375,-115.41260283203124,-93.71764843749997,-115.35400283203126,-93.71364843750001,-115.29360283203124L-93.8586484375,-100.61520283203124C-94.20364843750002,-100.16060283203124,-94.42964843750002,-99.62440283203125,-94.5146484375,-99.05700283203124L-94.5146484375,-96.14390283203124L-95.0266484375,-95.19540283203125L-95.0266484375,-92.03390283203125L-95.88364843750003,-91.25480283203125L-95.88364843750003,-88.29660283203125L-96.9956484375,-87.48360283203125L-96.9956484375,-84.59310283203125L-97.89764843749998,-83.46400283203126L-97.89764843749998,-80.68640283203125L-98.64264843749999,-79.82820283203125L-98.64264843749999,-76.73450283203125L-99.18864843749998,-75.95540283203125L-99.18864843749998,-73.56170283203124L-100.5676484375,-72.65840283203126C-100.57764843749999,-72.64090283203124,-100.57764843749999,-72.61940283203126,-100.5676484375,-72.60190283203124L-100.5676484375,-59.32340283203125L-101.30264843750001,-59.32340283203125C-101.3416484375,-59.324402832031254,-101.37464843750001,-59.29540283203124,-101.38064843749999,-59.25540283203125L-101.38064843749999,-50.810402832031244L-109.94864843750003,-50.810402832031244L-109.94864843750003,-27.09840283203124L-116.00164843750002,-27.09840283203124L-117.11464843750002,-35.09240283203124L-117.21464843749999,-35.21740283203124L-117.21464843749999,-35.53340283203124L-117.85964843750003,-36.25540283203125L-118.09364843750001,-36.25540283203125L-118.97264843750003,-37.24940283203125L-119.57364843750003,-53.745402832031246L-127.78564843750002,-50.18940283203125L-128.2526484375,-75.76340283203125L-129.22064843750002,-48.48440283203125L-129.74364843749998,-47.467402832031254L-135.18464843750002,-37.057402832031244L-136.75364843749998,-21.667402832031257L-141.8726484375,-21.667402832031257L-141.8726484375,-74.92790283203125L-147.1906484375,-74.92790283203125L-147.1906484375,-76.89250283203125L-147.1906484375,-77.16350283203126L-147.4136484375,-77.16350283203126L-147.82564843749998,-77.16350283203126L-147.82564843749998,-80.55090283203126L-149.81664843750002,-80.55090283203126L-149.81664843750002,-83.55430283203125L-150.92964843750002,-84.00590283203125L-152.3876484375,-84.00590283203125L-152.3876484375,-84.84150283203125L-152.96564843750002,-84.84150283203125L-152.96564843750002,-85.97060283203125L-153.83364843750002,-85.97060283203125L-153.83364843750002,-88.45460283203126L-154.2016484375,-88.81600283203124L-154.2016484375,-90.97260283203126L-154.6686484375,-91.30000283203125L-154.6686484375,-94.06630283203125L-154.9806484375,-94.28090283203124L-154.9806484375,-94.91320283203125L-154.6466484375,-95.13900283203125L-154.6466484375,-99.92640283203124L-154.8246484375,-100.06190283203125L-154.8246484375,-100.90870283203125L-154.4906484375,-100.90870283203125L-154.4906484375,-101.62010283203125L-155.7816484375,-101.62010283203125L-155.7816484375,-102.43300283203125L-155.0026484375,-102.43300283203125L-155.0026484375,-102.86210283203124L-155.2696484375,-102.86210283203124L-155.5366484375,-103.15570283203125L-155.7816484375,-103.15570283203125L-155.7816484375,-104.46540283203126L-155.4476484375,-104.46540283203126L-155.4476484375,-105.00740283203125L-156.0266484375,-105.00740283203125L-156.7496484375,-105.87680283203125L-156.87164843750003,-120.44240283203125L-156.67164843749998,-120.44240283203125L-156.67164843749998,-120.81500283203124L-157.1946484375,-120.81500283203124L-157.1946484375,-127.21700283203126L-157.1056484375,-127.21700283203126C-157.06664843750002,-127.24180283203125,-157.0416484375,-127.28370283203125,-157.0386484375,-127.32990283203125C-157.0436484375,-127.40240283203124,-157.1006484375,-127.46000283203125,-157.17264843750002,-127.46540283203126L-157.4166484375,-127.46540283203126L-157.4166484375,-131.16890283203125C-157.4166484375,-131.24220283203124,-157.4786484375,-131.29980283203125,-157.5506484375,-131.29310283203125C-157.6206484375,-131.29340283203123,-157.6786484375,-131.23930283203126,-157.68364843749998,-131.16890283203125L-157.68364843749998,-127.46540283203126L-157.91764843750002,-127.46540283203126C-157.99164843749998,-127.46540283203126,-158.05164843749998,-127.40480283203125,-158.05164843749998,-127.32990283203125C-158.04964843750003,-127.28310283203125,-158.0246484375,-127.24040283203125,-157.98464843750003,-127.21700283203126L-157.89564843749997,-127.21700283203126L-157.89564843749997,-120.81500283203124L-158.40764843749997,-120.81500283203124L-158.40764843749997,-120.54400283203125L-158.34064843750002,-120.54400283203125L-158.19564843749998,-120.54400283203125L-158.3076484375,-105.86550283203124L-159.11964843750002,-105.00740283203125L-159.68664843750003,-105.00740283203125L-159.68664843750003,-104.46540283203126L-159.33064843749997,-104.46540283203126L-159.33064843749997,-103.15570283203125L-159.48664843749998,-103.15570283203125L-159.8536484375,-102.86210283203124L-160.10964843750003,-102.86210283203124L-160.10964843750003,-102.43300283203125L-159.30864843749998,-102.43300283203125L-159.30864843749998,-101.62010283203125L-160.08764843749998,-101.62010283203125L-160.08764843749998,-100.96520283203125L-159.6976484375,-100.96520283203125L-159.6976484375,-100.09580283203125L-159.8316484375,-99.99420283203125L-159.8316484375,-95.26320283203125L-159.48664843749998,-95.02610283203126L-159.48664843749998,-94.39380283203126L-159.7866484375,-94.19050283203126L-159.7866484375,-91.41290283203125L-160.24364843749998,-91.10810283203125L-160.24364843749998,-88.92890283203126L-160.6106484375,-88.59010283203125L-160.6106484375,-86.08350283203124L-161.34464843749998,-86.08350283203124L-161.34464843749998,-84.95440283203125L-161.9016484375,-84.95440283203125L-161.9016484375,-84.09630283203126L-163.0916484375,-84.09630283203126L-164.2046484375,-83.65590283203124L-164.2046484375,-80.64120283203125L-165.3176484375,-80.64120283203125L-165.3176484375,-104.19440283203124L-178.25864843750003,-104.19440283203124L-178.25864843750003,-48.732402832031255L-189.16264843750002,-48.732402832031255L-189.16264843750002,-53.80240283203125L-200.86864843749998,-53.80240283203125L-201.49164843749998,-79.03780283203125L-202.44864843750003,-119.27940283203125L-202.44864843750003,-119.42620283203125L-211.9736484375,-119.42620283203125L-211.9736484375,-119.75360283203125L-207.7236484375,-119.75360283203125L-207.6566484375,-119.57290283203125L-207.1896484375,-119.75360283203125L-206.7666484375,-119.75360283203125L-206.7666484375,-124.20230283203125L-208.99164843749998,-124.20230283203125L-208.99164843749998,-124.29260283203125L-214.17664843749998,-136.95000283203126L-214.17664843749998,-164.04865683203124C-214.1826484375,-164.28119483203125,-214.3706484375,-164.46650883203125,-214.59964843749998,-164.46642283203124C-214.8246484375,-164.46049583203126,-215.00564843749999,-164.27688783203126,-215.0116484375,-164.04865683203124L-215.0116484375,-136.70160283203126L-220.26364843750002,-124.20230283203125L-222.61164843749998,-124.20230283203125L-222.61164843749998,-119.78750283203125L-222.0556484375,-119.78750283203125L-221.6546484375,-119.62940283203125L-221.5766484375,-119.79880283203124L-217.50364843749998,-119.79880283203124L-217.50364843749998,-119.47130283203126L-225.2936484375,-119.47130283203126L-226.40564843750002,-74.87140283203125L-228.3196484375,-74.87140283203125L-228.3196484375,-76.77960283203124L-228.4756484375,-76.77960283203124L-228.4756484375,-74.90530283203125L-231.4906484375,-74.90530283203125L-231.4906484375,-76.77960283203124L-231.6466484375,-76.77960283203124L-231.6466484375,-74.90530283203125L-234.6516484375,-74.90530283203125L-234.6516484375,-76.77960283203124L-234.7846484375,-76.77960283203124L-234.7846484375,-74.90530283203125L-236.0086484375,-74.90530283203125L-236.0086484375,-83.31720283203126C-236.0336484375,-85.33770283203125,-237.6676484375,-86.95540283203125,-239.6586484375,-86.93030283203124L-251.1416484375,-86.93030283203124C-253.1326484375,-86.95540283203125,-254.7666484375,-85.33770283203125,-254.7916484375,-83.31720283203126L-254.7916484375,-32.24740283203124L-255.1806484375,-32.24740283203124L-258.65264843750003,-32.02140283203124L-258.65264843750003,-34.27940283203125C-258.65264843750003,-34.359402832031236,-258.8086484375,-34.359402832031236,-258.8086484375,-34.27940283203125L-258.8086484375,-32.02140283203124L-261.6126484375,-32.02140283203124L-261.6126484375,-34.27940283203125C-261.6126484375,-34.359402832031236,-261.7686484375,-34.359402832031236,-261.7686484375,-34.27940283203125L-261.7686484375,-32.02140283203124L-264.58364843749996,-32.02140283203124L-264.58364843749996,-34.27940283203125C-264.58364843749996,-34.359402832031236,-264.72764843749997,-34.359402832031236,-264.72764843749997,-34.27940283203125L-264.72764843749997,-32.02140283203124L-267.5436484375,-32.02140283203124L-267.5436484375,-34.27940283203125C-267.5436484375,-34.359402832031236,-267.6876484375,-34.359402832031236,-267.6876484375,-34.27940283203125L-267.6876484375,-32.02140283203124L-270.3916484375,-32.02140283203124L-270.3916484375,-34.27940283203125C-270.3916484375,-34.359402832031236,-270.5366484375,-34.359402832031236,-270.5366484375,-34.27940283203125L-270.5366484375,-32.02140283203124L-270.7706484375,-32.02140283203124C-270.80664843750003,-32.02140283203124,-270.8366484375,-31.99140283203124,-270.8366484375,-31.954402832031263L-270.8366484375,-31.807402832031244L-270.8366484375,-25.518402832031256L-271.7496484375,-25.518402832031256L-271.7496484375,-28.137402832031256C-271.7496484375,-28.17540283203124,-271.7796484375,-28.20540283203124,-271.8166484375,-28.20540283203124L-273.0956484375,-28.20540283203124C-273.1346484375,-28.20540283203124,-273.1686484375,-28.176402832031243,-273.1736484375,-28.137402832031256L-273.1736484375,-18.912402832031262L-274.1196484375,-18.912402832031262L-274.1196484375,-32.744402832031255C-274.1196484375,-32.78140283203126,-274.1496484375,-32.81240283203124,-274.1866484375,-32.81240283203124L-274.99864843750004,-32.81240283203124C-275.0376484375,-32.81240283203124,-275.07064843750004,-32.78340283203124,-275.0766484375,-32.744402832031255L-275.0766484375,-26.782402832031238L-277.7356484375,-26.782402832031238L-277.7356484375,-21.81440283203125L-279.7946484375,-21.81440283203125L-279.7946484375,-122.61030283203125L-297.33064843750003,-122.61030283203125L-297.33064843750003,-21.81440283203125L-301.14764843750004,-21.81440283203125L-301.14764843750004,-60.97240283203125L-314.1886484375,-51.137402832031256L-314.1886484375,-63.557402832031244C-314.2136484375,-65.57820283203125,-315.84764843749997,-67.19600283203125,-317.8386484375,-67.17090283203125L-328.45364843749996,-67.17090283203125C-330.4446484375,-67.19600283203125,-332.07864843749996,-65.57820283203125,-332.1036484375,-63.557402832031244L-332.1036484375,-37.09140283203125L-338.9916484375,-37.09140283203125L-338.9916484375,-33.43340283203125L-341.9286484375,-33.43340283203125L-341.9286484375,-24.117402832031246L-343.7096484375,-24.117402832031246L-343.7096484375,-28.34040283203126C-343.70864843749996,-28.44540283203125,-343.7956484375,-28.528402832031247,-343.8986484375,-28.521402832031242L-345.0116484375,-28.521402832031242L-345.0116484375,-34.03140283203126C-345.0166484375,-34.13540283203125,-345.0986484375,-34.21740283203124,-345.20064843750004,-34.22340283203124L-345.3896484375,-34.22340283203124L-345.3896484375,-40.49040283203125C-345.3896484375,-40.58540283203125,-345.4626484375,-40.66440283203124,-345.55664843750003,-40.67040283203124L-345.6896484375,-40.67040283203124L-345.6896484375,-46.92640283203124C-345.6916484375,-47.009402832031256,-345.7446484375,-47.08240283203125,-345.82364843749997,-47.10640283203125L-345.9236484375,-47.10640283203125L-345.9236484375,-58.973402832031255C-345.92964843749996,-59.075402832031244,-346.0126484375,-59.15440283203125,-346.1126484375,-59.15440283203125L-346.4016484375,-59.15440283203125C-346.5026484375,-59.15440283203125,-346.5856484375,-59.075402832031244,-346.5916484375,-58.973402832031255L-346.5916484375,-47.129402832031246L-346.7356484375,-47.129402832031246C-346.8696484375,-47.129402832031246,-346.9476484375,-47.05040283203125,-346.9476484375,-46.94840283203125L-346.9476484375,-40.64840283203125L-347.1696484375,-40.64840283203125C-347.2786484375,-40.65440283203125,-347.3706484375,-40.566402832031244,-347.3696484375,-40.456402832031245L-347.3696484375,-34.18940283203125L-347.6706484375,-34.18940283203125C-347.7706484375,-34.18340283203125,-347.8486484375,-34.099402832031245,-347.8486484375,-33.99740283203124L-347.8486484375,-28.48740283203125L-349.1056484375,-28.48740283203125C-349.2066484375,-28.48740283203125,-349.2896484375,-28.408402832031243,-349.2946484375,-28.30640283203124L-349.2946484375,-24.117402832031246L-354.1906484375,-24.117402832031246C-354.2896484375,-24.117402832031246,-354.36864843750004,-24.037402832031262,-354.36864843750004,-23.93740283203124L-354.36864843750004,-18.70940283203126C-354.36864843750004,-18.609402832031236,-354.2896484375,-18.528402832031247,-354.1906484375,-18.528402832031247L-353.5126484375,-18.528402832031247L-353.5126484375,-16.609402832031236L-354.1906484375,-16.609402832031236C-354.2896484375,-16.609402832031236,-354.36864843750004,-16.528402832031247,-354.36864843750004,-16.428402832031253L-354.36864843750004,-0.00040283203125568434L-357.8746484375,-0.00040283203125568434L-357.8746484375,-9.575402832031244L-358.1306484375,-9.575402832031244L-358.1306484375,-11.08840283203125L-364.3946484375,-17.298402832031258L-365.8636484375,-15.807402832031244L-367.3876484375,-17.32040283203125L-367.3876484375,-20.09840283203124L-369.6136484375,-20.09840283203124L-369.6136484375,-22.35640283203125L-371.8386484375,-22.35640283203125L-371.8386484375,-30.023402832031252L-373.4416484375,-30.023402832031252L-373.49664843749997,-15.017402832031252L-379.6056484375,-15.017402832031252L-379.6056484375,13.775597167968755L-384.4016484375,13.775597167968755L-384.4016484375,-13.549402832031262L-385.6696484375,-13.549402832031262L-385.6696484375,-19.059402832031253L-388.72964843750003,-19.059402832031253L-388.72964843750003,-17.117402832031246L-388.72964843750003,-13.549402832031262L-390.3545484375,-13.549402832031262L-390.3545484375,1.241597167968763L-399.0449484375,1.241597167968763L-399.0449484375,-4.60640283203125C-399.0449484375,-4.650402832031261,-399.0798484375,-4.685402832031258,-399.1228484375,-4.685402832031258L-399.72374843750003,-4.685402832031258L-399.72374843750003,-10.162402832031262C-399.7483484375,-10.174402832031262,-399.7770484375,-10.174402832031262,-399.80164843750003,-10.162402832031262L-400.7029484375,-10.162402832031262L-400.7029484375,-11.291402832031253L-404.4861484375,-17.86240283203125L-404.4861484375,-18.31440283203125C-404.4917484375,-18.353402832031236,-404.5250484375,-18.38240283203126,-404.5640484375,-18.38240283203126L-404.7866484375,-18.38240283203126L-407.2791484375,-22.71740283203124Q-407.3570484375,-22.71740283203124,-407.3681484375,-22.71740283203124L-409.8606484375,-18.38240283203126L-410.0164484375,-18.38240283203126C-410.0554484375,-18.38240283203126,-410.0887484375,-18.353402832031236,-410.0943484375,-18.31440283203125L-410.0943484375,-17.95340283203126L-413.93324843749997,-11.291402832031253L-413.93324843749997,-10.162402832031262L-414.8345484375,-10.162402832031262C-414.8735484375,-10.162402832031262,-414.9068484375,-10.133402832031237,-414.9124484375,-10.09440283203125L-414.9124484375,-4.5954028320312545L-415.5133484375,-4.5954028320312545C-415.5563484375,-4.5954028320312545,-415.5912484375,-4.560402832031258,-415.5912484375,-4.516402832031247L-415.5912484375,6.289597167968736L-418.7179484375,6.289597167968736L-418.7179484375,-7.903402832031247L-425.2385484375,-7.903402832031247L-425.2385484375,-37.85940283203125L-431.9927484375,-37.85940283203125L-431.9927484375,-42.90640283203125L-433.0387484375,-42.90640283203125L-433.0387484375,-37.881402832031256L-435.1751484375,-37.881402832031256L-435.1751484375,-29.865402832031236L-435.7315484375,-29.865402832031236L-435.7315484375,-29.774402832031257L-443.12004843750003,-29.774402832031257L-443.12004843750003,-29.44740283203126L-443.12004843750003,-16.643402832031256L-443.27584843750003,-16.643402832031256L-443.9990484375,-16.643402832031256L-443.9990484375,-16.304402832031258L-443.9990484375,-6.334402832031259L-444.2105484375,-6.436402832031263C-444.7392484375,-6.646402832031242,-445.3004484375,-6.761402832031251,-445.8684484375,-6.774402832031257L-446.0019484375,-6.774402832031257L-446.2022484375,-9.800402832031239L-446.69184843749997,-9.800402832031239L-446.8364484375,-6.774402832031257L-446.9588484375,-6.774402832031257C-449.0867484375,-6.563402832031244,-450.7917484375,-4.894402832031261,-451.0759484375,-2.7434028320312507L-451.0759484375,-2.6084028320312598L-452.1886484375,-2.6084028320312598L-452.1886484375,2.8335971679687475L-453.7242484375,2.8335971679687475L-453.7242484375,13.865597167968758L-454.6923484375,13.865597167968758L-454.6923484375,10.477597167968753L-455.1262484375,10.477597167968753L-455.1262484375,10.308597167968742L-455.5157484375,10.308597167968742L-455.5157484375,10.127597167968759C-455.5054484375,10.03059716796875,-455.5054484375,9.93159716796876,-455.5157484375,9.834597167968752C-455.5191484375,9.179597167968751,-455.9907484375,8.624597167968744,-456.62844843749997,8.52459716796875L-456.7508484375,8.52459716796875L-456.7508484375,2.946597167968747L-458.6313484375,2.946597167968747L-458.6313484375,-26.534402832031247L-459.1654484375,-26.534402832031247L-459.1654484375,-27.448402832031263C-459.1960484375,-29.466402832031264,-460.8265484375,-31.08040283203124,-462.8152484375,-31.06240283203124L-469.1466484375,-31.06240283203124C-471.1353484375,-31.08040283203124,-472.7658484375,-29.466402832031264,-472.7963484375,-27.448402832031263L-472.7963484375,-26.534402832031247L-474.0203484375,-26.534402832031247L-474.0203484375,10.432597167968737L-475.7005484375,10.432597167968737L-475.7005484375,10.353597167968758C-476.2525484375,9.415597167968741,-477.2498484375,8.841597167968757,-478.3265484375,8.840597167968753C-479.4032484375,8.841597167968757,-480.4005184375,9.415597167968741,-480.9525684375,10.353597167968758L-480.9525684375,10.432597167968737L-482.9221084375,10.432597167968737L-482.9221084375,14.847597167968758L-484.8248584375,12.962597167968738L-487.6178084375,12.962597167968738L-487.6178084375,15.807597167968737L-488.8863264375,15.807597167968737L-488.8863264375,38.20859716796875L-484.8916484375,38.20859716796875L-484.8916484375,38.38959716796876L-467.9893484375,38.38959716796876L-461.6691484375,38.38959716796876L-461.6691484375,38.50259716796876L-449.5738484375,38.50259716796876L-449.5738484375,38.38959716796876L-447.8824484375,38.38959716796876L-447.8824484375,38.547597167968746L-395.0614484375,38.547597167968746C-395.0408484375,38.55959716796875,-395.0154484375,38.55959716796875,-394.9947484375,38.547597167968746L-394.9947484375,38.44659716796875L-392.5467484375,38.44659716796875L-392.5467484375,38.58159716796874L-382.7546484375,38.58159716796874L-382.7546484375,38.38959716796876L-381.5086484375,38.38959716796876L-381.5086484375,38.547597167968746L-336.4766484375,38.547597167968746C-336.4136484375,38.54259716796875,-336.3566484375,38.509597167968764,-336.32064843750004,38.45759716796874L-336.32064843750004,38.38959716796876L-333.0716484375,38.38959716796876L-333.0716484375,38.525597167968755L-322.97964843750003,38.525597167968755L-278.7596484375,38.525597167968755L-278.7596484375,38.38959716796876L-275.2206484375,38.38959716796876L-275.2206484375,38.46859716796874L-275.1096484375,38.46859716796874L-270.3916484375,38.46859716796874C-269.9886484375,38.50859716796876,-269.5826484375,38.50859716796876,-269.1786484375,38.46859716796874L-267.8776484375,38.46859716796874C-267.65264843750003,38.50859716796876,-267.4226484375,38.50859716796876,-267.19864843749997,38.46859716796874L-265.6626484375,38.46859716796874C-264.44564843750004,39.061597167968756,-263.0296484375,39.061597167968756,-261.8126484375,38.46859716796874L-251.5866484375,38.46859716796874L-251.4756484375,38.46859716796874L-251.4756484375,38.38959716796876L-251.3646484375,38.38959716796876L-247.7256484375,38.38959716796876L-247.7256484375,38.46859716796874C-247.7056484375,38.513597167968754,-247.6626484375,38.543597167968755,-247.6146484375,38.547597167968746L-228.6976484375,38.547597167968746L-228.6426484375,38.547597167968746L-228.57564843749998,38.547597167968746L-199.4666484375,38.547597167968746C-199.34264843749997,38.60059716796874,-199.2026484375,38.523597167968745,-199.1776484375,38.38959716796876L-199.1776484375,38.33359716796875L-195.3606484375,38.33359716796875L-195.3606484375,38.49159716796876L-176.3226484375,38.49159716796876L-176.3226484375,38.38959716796876L-172.5386484375,38.38959716796876L-172.5386484375,38.525597167968755L-169.9016484375,38.525597167968755L-111.92864843749999,38.525597167968755L-111.85064843750001,38.525597167968755C-105.05264843750001,38.525597167968755,-99.17664843749998,38.525597167968755,-94.40364843750001,38.525597167968755L-9.413648437500001,38.525597167968755L-9.413648437500001,38.38959716796876L-8.00064843749999,38.38959716796876L-8.00064843749999,38.525597167968755L10.782351562500025,38.525597167968755L16.479351562500028,38.525597167968755L16.479351562500028,38.38959716796876L37.73235156249996,38.38959716796876L37.73235156249996,39.281597167968755ZM-141.61664843749998,23.315597167968747L-142.2286484375,23.315597167968747L-142.2286484375,21.63359716796876L-141.9276484375,21.63359716796876L-141.61664843749998,23.315597167968747ZM-212.42964843750002,-119.46000283203125L-214.2886484375,-119.46000283203125L-214.2886484375,-119.78750283203125L-212.47464843749998,-119.78750283203125L-212.42964843750002,-119.46000283203125ZM-215.1226484375,-119.46000283203125L-217.0816484375,-119.46000283203125L-217.0816484375,-119.78750283203125L-215.1566484375,-119.78750283203125L-215.1226484375,-119.46000283203125ZM-209.55964843750002,-124.20230283203125L-212.53064843750002,-124.20230283203125L-213.90964843749998,-134.92890283203124L-209.55964843750002,-124.20230283203125ZM-212.3076484375,-124.50720283203125L-210.0046484375,-124.50720283203125L-213.34264843749997,-132.69320283203126L-212.3076484375,-124.50720283203125ZM-213.03064843750002,-124.20230283203125L-214.27764843749998,-124.20230283203125L-214.27764843749998,-131.54150283203126L-213.9766484375,-131.54150283203126L-213.03064843750002,-124.20230283203125ZM-213.9766484375,-124.50720283203125L-213.3756484375,-124.50720283203125L-213.9766484375,-129.17040283203124L-213.9766484375,-124.50720283203125ZM-215.0896484375,-124.20230283203125L-216.44664843750002,-124.20230283203125L-215.3346484375,-132.41090283203124L-215.0336484375,-132.41090283203124L-215.0896484375,-124.20230283203125ZM-216.1016484375,-124.50720283203125L-215.3896484375,-124.50720283203125L-215.3896484375,-130.02850283203125L-216.1016484375,-124.50720283203125ZM-216.9036484375,-124.20230283203125L-219.7406484375,-124.20230283203125L-215.6126484375,-134.27400283203124L-216.9036484375,-124.20230283203125ZM-219.2956484375,-124.50720283203125L-217.1706484375,-124.50720283203125L-216.2026484375,-132.03830283203126L-219.2956484375,-124.50720283203125Z" fill="#AAA9A9" fill-opacity="1"/></g></g></g><g clipPath="url(#master_svg6_1070_1432)"><g><path d="M-61.756062011718754,39.51890458984376L-87.02606201171875,39.51890458984376L-87.02606201171875,-3.884095410156249L-61.756062011718754,-3.884095410156249L-61.756062011718754,21.35150458984375L-20.028962011718747,21.35150458984375L-20.028962011718747,-24.41134541015625L-8.990762011718743,-28.92779541015625L-8.935062011718756,-28.92779541015625L1.5578379882812499,-24.47909541015625L1.5578379882812499,32.12320458984375L-0.9234620117187546,32.12320458984375L-0.9234620117187546,39.32700458984375L-61.756062011718754,39.32700458984375L-61.756062011718754,39.51890458984376ZM-86.71450101171875,39.20280458984375L-62.06766201171875,39.20280458984375L-62.06766201171875,38.98830458984375L-1.2350620117187532,38.98830458984375L-1.2350620117187532,31.807104589843753L1.2574379882812536,31.807104589843753L1.2574379882812536,-24.19681541015625L-8.979662011718744,-28.54389541015625L-19.70626201171875,-24.19681541015625L-19.70626201171875,21.656404589843753L-62.06766201171875,21.656404589843753L-62.06766201171875,-3.56799541015625L-86.71450101171875,-3.56799541015625L-86.71450101171875,39.20280458984375Z" fill="#AAA9A9" fill-opacity="1"/></g></g></g></g></svg>