<svg xmlns="http://www.w3.org/2000/svg" xmlns:xlink="http://www.w3.org/1999/xlink" fill="none" version="1.1" width="23" height="23" viewBox="0 0 23 23"><defs><clipPath id="master_svg0_1070_1531"><rect x="0" y="0" width="23" height="23" rx="0"/></clipPath><clipPath id="master_svg1_1070_1536"><g><rect x="-543.7823486328125" y="-105.19906616210938" width="450.8461608886719" height="267.2969970703125" rx="0" fill="#FFFFFF" fill-opacity="1"/></g></clipPath><radialGradient cx="0" cy="0" r="1" gradientUnits="userSpaceOnUse" id="master_svg2_1011_1546" gradientTransform="translate(-211.75997916326742 25.33899300493067) rotate(0) scale(708.5932212922198 1628.1821089748255)"><stop offset="20.999999344348907%" stop-color="#FFFFFF" stop-opacity="1"/><stop offset="100%" stop-color="#000000" stop-opacity="1"/></radialGradient><clipPath id="master_svg3_1070_1539"><g><rect x="-543.7823486328125" y="-105.19906616210938" width="450.8461608886719" height="267.2969970703125" rx="0" fill="#FFFFFF" fill-opacity="1"/></g></clipPath></defs><g clip-path="url(#master_svg0_1070_1531)"><g><path d="M3.13216,8.91105C3.13177,8.72186,3.27854,8.56497,3.46734,8.55276L12.5402,8.55276C12.7165,8.58431,12.8449,8.73769,12.8449,8.91683C12.8449,9.09597,12.7165,9.24936,12.5402,9.2809L3.46734,9.2809C3.27399,9.26852,3.12552,9.10468,3.13216,8.91105ZM11.604,19.3131L3.46734,19.3131C3.26946,19.3131,3.10904,19.4735,3.10904,19.6714C3.10904,19.8692,3.26946,20.0296,3.46734,20.0296L11.5578,20.0296C11.7557,20.0296,11.9161,19.8692,11.9161,19.6714C11.9161,19.4735,11.7557,19.3131,11.5578,19.3131L11.604,19.3131ZM3.46734,6.5995L10.009,6.5995C10.2069,6.5995,10.3673,6.43909,10.3673,6.24121C10.3673,6.04333,10.2069,5.88291,10.009,5.88291L3.46734,5.88291C3.26946,5.88291,3.10905,6.04333,3.10905,6.24121C3.10905,6.43909,3.26946,6.5995,3.46734,6.5995ZM22.7804,21.8211L21.8673,22.7688C21.7154,22.916,21.5125,22.9988,21.301,23C21.0979,23.002,20.9024,22.923,20.7578,22.7804L18.3769,20.4688C18.309,20.5518,18.2066,20.5987,18.0995,20.596L16.0538,20.596L16.0538,22.6417C16.0538,22.8396,15.8934,23,15.6955,23L0.358291,23C0.160413,23,0,22.8396,0,22.6417L0,2.76231C-2.3589e-8,2.56443,0.160413,2.40402,0.358291,2.40402L2.40402,2.40402L2.40402,0.358291C2.40402,0.160412,2.56443,0,2.76231,0L15.6146,0C15.7098,-0.000489255,15.8013,0.0369388,15.8688,0.10402L18.3538,2.58894C18.4209,2.65651,18.4583,2.748,18.4578,2.84322L18.4578,12.0894C19.3015,13.655,19.2531,15.5503,18.3307,17.0709L19.3477,18.0648C19.4471,18.0242,19.5526,18.0008,19.6598,17.9955C19.8657,17.9965,20.0638,18.0749,20.2146,18.2151L22.7688,20.6884C23.0994,21.0028,23.0994,21.5299,22.7688,21.8442L22.7804,21.8211ZM17.903,17.6834C17.809,17.8005,17.7087,17.9124,17.6025,18.0186L18.4925,18.897L18.8045,18.5734L17.903,17.6834ZM18.3422,14.4935C18.3486,12.1223,16.4293,10.1961,14.0581,10.194C11.687,10.1919,9.76422,12.1146,9.76635,14.4858C9.76848,16.8569,11.6947,18.7762,14.0658,18.7698C16.425,18.7635,18.3359,16.8526,18.3422,14.4935ZM13.5688,4.88894L14.8286,4.88894L13.5688,3.62915L13.5688,4.88894ZM15.9729,2.48492L17.2327,2.48492L15.9729,1.22513L15.9729,2.48492ZM3.1206,2.40402L13.2106,2.40402C13.3058,2.40353,13.3973,2.44096,13.4648,2.50804L15.9497,4.99296C16.0168,5.06053,16.0543,5.15202,16.0538,5.24724L16.0538,9.87035C16.6913,10.1326,17.2663,10.5265,17.7412,11.0261L17.7412,3.20151L15.6146,3.20151C15.4167,3.20151,15.2563,3.0411,15.2563,2.84322L15.2563,0.716583L3.1206,0.716583L3.1206,2.40402ZM15.3372,20.2377L15.3372,19.3246C14.9219,19.4317,14.4947,19.4861,14.0658,19.4864C12.4166,19.4954,10.8689,18.6913,9.92814,17.3367L3.46734,17.3367C3.26946,17.3367,3.10905,17.1763,3.10905,16.9784C3.10905,16.7805,3.26946,16.6201,3.46734,16.6201L9.52362,16.6201C9.23888,16.0029,9.08164,15.3347,9.06131,14.6553L3.46734,14.6553C3.26946,14.6553,3.10905,14.4949,3.10905,14.297C3.06477,14.0728,3.23886,13.865,3.46734,13.8693L9.09598,13.8693C9.17632,13.1793,9.40076,12.5138,9.75477,11.9161L3.46734,11.9161C3.26946,11.9161,3.10905,11.7557,3.10905,11.5578C3.10905,11.3599,3.26946,11.1995,3.46734,11.1995L10.2749,11.1995C11.2231,10.0922,12.608,9.45468,14.0658,9.45427C14.4947,9.45462,14.9219,9.50899,15.3372,9.61608L15.3372,5.60553L13.2106,5.60553C13.0127,5.60553,12.8523,5.44511,12.8523,5.24724L12.8523,3.1206L0.716583,3.1206L0.716583,22.2834L15.3372,22.2834L15.3372,20.2377ZM17.7412,19.8794L17.7412,19.1628L17.0593,18.4925C16.7485,18.7248,16.4109,18.9188,16.0538,19.0704L16.0538,19.8794L17.7412,19.8794ZM22.2603,21.2317L19.7176,18.7583L18.8045,19.706C18.781,19.7324,18.781,19.7722,18.8045,19.7985L21.3472,22.2719C21.3704,22.3027,21.4166,22.3027,21.4397,22.2719L22.3643,21.3241L22.2603,21.2317ZM17.7528,14.4935C17.7528,16.5376,16.0945,18.1941,14.0504,18.1919C12.0063,18.1898,10.3515,16.5299,10.3558,14.4857C10.36,12.4416,12.0217,10.7886,14.0658,10.795C16.1066,10.795,17.7592,12.4527,17.7528,14.4935ZM17.0362,14.4935C17.0362,12.853,15.7063,11.5231,14.0658,11.5231C12.4254,11.5231,11.0955,12.853,11.0955,14.4935C11.0955,16.1339,12.4254,17.4638,14.0658,17.4638C15.7037,17.4575,17.0298,16.1313,17.0362,14.4935Z" fill="#898989" fill-opacity="1"/></g><g><g clipPath="url(#master_svg1_1070_1536)"><g style="opacity:0.6000000238418579;"><rect x="-543.7708740234375" y="-121.16036987304688" width="654.1015014648438" height="284.6683349609375" rx="0" fill="url(#master_svg2_1011_1546)" fill-opacity="1"/></g></g><g><g clipPath="url(#master_svg3_1070_1539)"><g><path d="M69.02351367187498,150.79475122070312L37.400513671875046,150.79475122070312L37.400513671875046,149.8467512207031L15.915513671875033,149.8467512207031C15.850513671874978,149.94475122070313,15.743513671875007,150.00475122070313,15.626513671875045,150.00875122070312L-9.801486328125009,150.00875122070312C-9.919486328125004,150.00875122070312,-10.028486328124984,149.9477512207031,-10.08948632812502,149.8467512207031L-11.026486328124975,149.8467512207031C-11.08748632812501,149.9477512207031,-11.197486328125024,150.00875122070312,-11.315486328125019,150.00875122070312L-99.46648632812497,150.00875122070312C-104.41348632812497,150.00875122070312,-110.49248632812498,150.00875122070312,-117.542486328125,150.00875122070312C-117.59648632812502,150.01875122070314,-117.65148632812497,150.01875122070314,-117.70448632812497,150.00875122070312L-180.648486328125,150.00875122070312C-180.765486328125,150.00475122070313,-180.873486328125,149.94475122070313,-180.93748632812498,149.8467512207031L-184.30048632812498,149.8467512207031L-184.30048632812498,150.00875122070312L-204.69948632812498,150.00875122070312L-204.69948632812498,149.8467512207031L-208.167486328125,149.8467512207031C-208.27148632812498,149.95075122070313,-208.41348632812497,150.00875122070312,-208.56048632812502,150.00875122070312L-238.79548632812498,150.00875122070312L-238.91148632812502,150.00875122070312L-239.02648632812497,150.00875122070312L-258.570486328125,150.00875122070312C-258.700486328125,150.00375122070312,-258.821486328125,149.94475122070313,-258.90648632812497,149.8467512207031L-262.373486328125,149.8467512207031L-262.373486328125,149.95075122070313L-262.454486328125,149.95075122070313L-273.272486328125,149.95075122070313C-274.60548632812504,150.57475122070312,-276.146486328125,150.57475122070312,-277.479486328125,149.95075122070313L-278.947486328125,149.95075122070313C-279.195486328125,149.99675122070312,-279.450486328125,149.99675122070312,-279.698486328125,149.95075122070313L-281.00448632812504,149.95075122070313C-281.434486328125,149.99675122070312,-281.86848632812496,149.99675122070312,-282.299486328125,149.95075122070313L-287.396486328125,149.95075122070313L-287.396486328125,149.8347512207031L-287.453486328125,149.8347512207031L-290.66648632812496,149.8347512207031C-290.727486328125,149.93575122070314,-290.837486328125,149.99775122070312,-290.955486328125,149.99675122070312L-347.346486328125,149.99675122070312C-347.46448632812496,149.99775122070312,-347.574486328125,149.93575122070314,-347.635486328125,149.8347512207031L-350.582486328125,149.8347512207031C-350.67748632812504,149.93875122070312,-350.811486328125,149.99775122070312,-350.952486328125,149.99675122070312L-398.03848632812503,149.99675122070312L-398.03848632812503,149.8347512207031L-398.743486328125,149.8347512207031C-398.802486328125,149.93275122070312,-398.907486328125,149.99375122070313,-399.021486328125,149.99675122070312L-409.168486328125,149.99675122070312C-409.28648632812497,149.99775122070312,-409.396486328125,149.93575122070314,-409.457486328125,149.8347512207031L-411.526586328125,149.8347512207031C-411.606186328125,149.93275122070312,-411.72418632812503,149.99175122070312,-411.850286328125,149.99675122070312L-467.027086328125,149.99675122070312L-467.027086328125,149.8347512207031L-468.182886328125,149.8347512207031C-468.230586328125,149.93275122070312,-468.328786328125,149.99475122070314,-468.437186328125,149.99675122070312L-481.081386328125,149.99675122070312C-481.171886328125,149.99475122070314,-481.256886328125,149.95275122070314,-481.312586328125,149.88175122070314L-487.923586328125,149.88175122070314L-505.479896328125,149.88175122070314L-505.479896328125,149.71975122070313L-509.698486328125,149.71975122070313L-509.698486328125,126.11875122070313L-508.380886328125,126.11875122070313L-508.380886328125,123.22875122070312L-505.029126328125,123.22875122070312L-503.503496328125,124.73175122070313L-503.503496328125,120.63975122070312L-501.353766328125,120.63975122070312C-500.713936328125,119.62475122070313,-499.594786328125,119.01275122070314,-498.394986328125,119.02175122070312C-497.195186328125,119.01275122070314,-496.076086328125,119.62475122070313,-495.436186328125,120.63975122070312L-494.187986328125,120.63975122070312L-494.187986328125,82.79975122070311L-492.974386328125,82.79975122070311L-492.974386328125,82.17575122070312C-492.942686328125,79.93975122070313,-491.107486328125,78.15075122070311,-488.871386328125,78.17675122070312L-482.294986328125,78.17675122070312C-480.058986328125,78.15075122070311,-478.223686328125,79.93975122070313,-478.191986328125,82.17575122070312L-478.191986328125,82.79975122070311L-477.62568632812497,82.79975122070311L-477.62568632812497,112.97775122070311L-475.683986328125,112.97775122070311L-475.683986328125,118.75575122070313C-474.917586328125,118.92675122070312,-474.368086328125,119.60075122070313,-474.354886328125,120.38575122070313Q-474.354886328125,120.50175122070311,-474.354886328125,120.55875122070313C-474.224386328125,120.55675122070312,-474.111686328125,120.65075122070311,-474.088986328125,120.77875122070313L-473.892486328125,120.77875122070313C-473.745686328125,120.77875122070313,-473.626686328125,120.89775122070313,-473.626686328125,121.04475122070312L-473.626686328125,124.19975122070312L-473.245286328125,124.19975122070312L-473.245286328125,112.86175122070313L-471.557786328125,112.86175122070313L-471.557786328125,107.26775122070313L-470.321086328125,107.26775122070313C-469.969286328125,105.02675122070312,-468.169986328125,103.29375122070311,-465.917586328125,103.02575122070311L-465.744186328125,99.92875122070313L-464.588386328125,99.92875122070313L-464.403486328125,103.03775122070311C-464.007086328125,103.10075122070313,-463.619386328125,103.20975122070311,-463.247686328125,103.36075122070312L-463.247686328125,93.31775122070312L-463.247686328125,92.98275122070314L-462.33468632812503,92.98275122070314L-462.33468632812503,79.85275122070311L-462.33468632812503,79.50575122070313L-454.660286328125,79.50575122070313L-454.660286328125,79.41375122070312L-454.082386328125,79.41375122070312L-454.082386328125,71.20775122070313L-451.863286328125,71.20775122070313L-451.863286328125,66.06375122070312L-450.152686328125,66.06375122070312L-450.152686328125,71.20775122070313L-443.137086328125,71.20775122070313L-443.137086328125,101.81275122070312L-436.352686328125,101.81275122070312L-436.352686328125,116.39875122070313L-433.740586328125,116.39875122070313L-433.740586328125,105.55675122070312C-433.740686328125,105.34175122070312,-433.562786328125,105.16975122070312,-433.347686328125,105.17575122070312L-433.035586328125,105.17575122070312L-433.035586328125,99.84775122070312C-433.051286328125,99.78675122070314,-433.051286328125,99.72375122070312,-433.035586328125,99.66275122070311C-432.996886328125,99.48375122070311,-432.836986328125,99.35775122070314,-432.654186328125,99.36175122070313L-432.030086328125,99.36175122070313L-432.030086328125,98.48375122070311C-432.028586328125,98.41475122070312,-432.00858632812503,98.34675122070311,-431.972286328125,98.28775122070311L-428.007986328125,91.51475122070312L-428.007986328125,91.30675122070312C-428.008086328125,91.10075122070313,-427.844286328125,90.93175122070312,-427.638186328125,90.92475122070311L-425.141686328125,86.64875122070313C-425.076186328125,86.53075122070314,-424.953086328125,86.45575122070312,-424.818086328125,86.45175122070313L-424.679386328125,86.45175122070313C-424.588386328125,86.48275122070314,-424.510786328125,86.54375122070311,-424.459786328125,86.62575122070314L-421.963286328125,90.90175122070312C-421.75068632812497,90.90175122070312,-421.576586328125,91.07075122070313,-421.570286328125,91.28375122070312L-421.570286328125,91.65275122070312L-417.675386328125,98.32175122070313C-417.65668632812503,98.38175122070314,-417.65668632812503,98.44675122070313,-417.675386328125,98.50675122070314L-417.675386328125,99.39675122070312L-417.051186328125,99.39675122070312C-416.883686328125,99.39475122070311,-416.732086328125,99.49575122070311,-416.669786328125,99.65075122070311C-416.620886328125,99.71875122070313,-416.592786328125,99.79875122070314,-416.588886328125,99.88275122070311L-416.588886328125,105.17575122070312L-416.276886328125,105.17575122070312C-416.066186328125,105.17575122070312,-415.895486328125,105.34675122070311,-415.895486328125,105.55675122070312L-415.895486328125,111.23175122070313L-407.492486328125,111.23175122070313L-407.492486328125,96.41475122070312C-407.486486328125,96.23475122070312,-407.338486328125,96.09175122070312,-407.157486328125,96.09175122070312L-405.782486328125,96.09175122070312L-405.782486328125,95.20175122070313Q-405.782486328125,95.20175122070313,-405.782486328125,95.13175122070314C-405.782486328125,95.06275122070312,-405.782486328125,95.13175122070314,-405.782486328125,95.06275122070312L-405.782486328125,92.75075122070314C-405.783486328125,92.73175122070313,-405.783486328125,92.71275122070313,-405.782486328125,92.69375122070312C-405.784486328125,92.67075122070312,-405.784486328125,92.64675122070312,-405.782486328125,92.62375122070313L-405.782486328125,90.75175122070311C-405.776486328125,90.57075122070313,-405.627486328125,90.42775122070313,-405.447486328125,90.42775122070313L-402.280486328125,90.42775122070313C-402.104486328125,90.43375122070313,-401.962486328125,90.57575122070313,-401.956486328125,90.75175122070311L-401.956486328125,96.09175122070312L-400.974486328125,96.09175122070312C-400.793486328125,96.09075122070311,-400.645486328125,96.23475122070312,-400.63948632812503,96.41475122070312L-400.63948632812503,124.07275122070311L-396.28148632812497,124.07275122070311L-396.28148632812497,94.56575122070313L-389.936486328125,94.56575122070313L-389.878486328125,79.19375122070312L-387.567486328125,79.19375122070312L-387.567486328125,87.04175122070313L-385.255486328125,87.04175122070313L-385.255486328125,89.35275122070311L-382.944486328125,89.35275122070311L-382.944486328125,92.33475122070311L-381.672486328125,93.57175122070313L-380.15848632812504,92.09275122070312L-373.33948632812496,98.76075122070313L-373.33948632812496,100.12475122070313L-373.073486328125,100.12475122070313L-373.073486328125,109.91475122070312L-370.05748632812504,109.91475122070312L-370.05748632812504,93.42175122070313C-370.051486328125,93.14575122070312,-369.825486328125,92.92475122070311,-369.548486328125,92.92475122070311L-369.167486328125,92.92475122070311L-369.167486328125,91.58375122070314L-369.548486328125,91.58375122070314C-369.825486328125,91.58375122070314,-370.051486328125,91.36275122070313,-370.05748632812504,91.08675122070312L-370.05748632812504,85.73575122070312C-370.051486328125,85.45975122070311,-369.825486328125,85.23875122070314,-369.548486328125,85.23875122070314L-364.78648632812497,85.23875122070314L-364.78648632812497,81.26275122070314C-364.780486328125,80.98675122070313,-364.554486328125,80.76575122070312,-364.27848632812504,80.76575122070312L-363.284486328125,80.76575122070312L-363.284486328125,75.42575122070312C-363.284486328125,75.15375122070313,-363.06048632812497,74.93375122070313,-362.787486328125,74.94075122070313L-362.787486328125,68.82675122070313C-362.793486328125,68.60075122070313,-362.638486328125,68.40175122070312,-362.417486328125,68.35275122070313L-362.417486328125,62.215751220703126C-362.414486328125,61.99275122070313,-362.263486328125,61.798751220703124,-362.047486328125,61.74175122070312L-362.047486328125,49.89475122070313C-362.04148632812496,49.62075122070313,-361.813486328125,49.402751220703124,-361.539486328125,49.40975122070313L-361.23848632812496,49.40975122070313C-360.96448632812496,49.402751220703124,-360.736486328125,49.62075122070313,-360.73048632812504,49.89475122070313L-360.73048632812504,61.78775122070313C-360.575486328125,61.87375122070313,-360.482486328125,62.03875122070312,-360.487486328125,62.215751220703126L-360.487486328125,68.36375122070312C-360.300486328125,68.44275122070313,-360.178486328125,68.62375122070313,-360.175486328125,68.82675122070313L-360.175486328125,74.95175122070313C-359.952486328125,75.00375122070312,-359.792486328125,75.19775122070311,-359.782486328125,75.42575122070312L-359.782486328125,80.76575122070312L-358.904486328125,80.76575122070312C-358.627486328125,80.76575122070312,-358.401486328125,80.98675122070313,-358.395486328125,81.26275122070314L-358.395486328125,85.23875122070314L-357.170486328125,85.23875122070314L-357.170486328125,75.70375122070311L-354.119486328125,75.70375122070311L-354.119486328125,71.95875122070314L-346.96448632812496,71.95875122070314L-346.96448632812496,45.179751220703125C-346.933486328125,42.94375122070312,-345.097486328125,41.15465122070313,-342.861486328125,41.18035122070313L-331.708486328125,41.18035122070313C-329.472486328125,41.15465122070313,-327.63748632812496,42.94375122070312,-327.60548632812504,45.179751220703125L-327.60548632812504,57.31475122070313L-314.059486328125,47.23675122070313L-314.059486328125,87.58475122070311L-310.742486328125,87.58475122070311L-310.742486328125,-15.591548779296872L-291.880486328125,-15.591548779296872L-291.880486328125,87.58475122070311L-290.377486328125,87.58475122070311L-290.377486328125,82.49975122070313L-287.61548632812503,82.49975122070313L-287.61548632812503,76.72075122070314C-287.609486328125,76.50775122070311,-287.43548632812497,76.33875122070313,-287.222486328125,76.33875122070313L-286.378486328125,76.33875122070313C-286.16648632812496,76.33875122070313,-285.992486328125,76.50775122070311,-285.98548632812503,76.72075122070314L-285.98548632812503,90.71675122070312L-285.63948632812503,90.71675122070312L-285.63948632812503,81.58675122070312C-285.63248632812497,81.37375122070313,-285.458486328125,81.20475122070312,-285.246486328125,81.20475122070312L-283.917486328125,81.20475122070312C-283.704486328125,81.20475122070312,-283.530486328125,81.37375122070313,-283.524486328125,81.58675122070312L-283.524486328125,83.96775122070312L-283.212486328125,83.96775122070312L-283.212486328125,77.82975122070312C-283.225486328125,77.78075122070314,-283.225486328125,77.72875122070312,-283.212486328125,77.67975122070314L-283.212486328125,77.61075122070312C-283.210486328125,77.42575122070312,-283.080486328125,77.26675122070313,-282.900486328125,77.22875122070312L-282.900486328125,75.22975122070312C-282.893486328125,75.01675122070313,-282.71948632812496,74.84775122070312,-282.50748632812497,74.84775122070312C-282.294486328125,74.84775122070312,-282.120486328125,75.01675122070313,-282.114486328125,75.22975122070312L-282.114486328125,77.22875122070312L-279.941486328125,77.22875122070312L-279.941486328125,75.19475122070313C-279.941486328125,74.98375122070311,-279.770486328125,74.81375122070312,-279.559486328125,74.81375122070312C-279.347486328125,74.81375122070312,-279.173486328125,74.98275122070314,-279.16648632812496,75.19475122070313L-279.16648632812496,77.22875122070312L-276.85548632812504,77.22875122070312L-276.85548632812504,75.19475122070313C-276.849486328125,74.98275122070314,-276.674486328125,74.81375122070312,-276.462486328125,74.81375122070312C-276.249486328125,74.81375122070312,-276.075486328125,74.98275122070314,-276.069486328125,75.19475122070313L-276.069486328125,77.22875122070312L-273.75748632812497,77.22875122070312L-273.75748632812497,75.19475122070313C-273.751486328125,74.98275122070314,-273.577486328125,74.81375122070312,-273.364486328125,74.81375122070312C-273.152486328125,74.81375122070312,-272.978486328125,74.98275122070314,-272.971486328125,75.19475122070313L-272.971486328125,77.22875122070312L-270.660486328125,77.22875122070312L-270.660486328125,75.19475122070313C-270.660486328125,74.98375122070311,-270.489486328125,74.81375122070312,-270.27848632812504,74.81375122070312C-270.066486328125,74.81375122070312,-269.89248632812496,74.98275122070314,-269.886486328125,75.19475122070313L-269.886486328125,77.21775122070312L-266.499486328125,76.99775122070312L-266.499486328125,24.98785122070312C-266.442486328125,22.75445122070313,-264.595486328125,20.98475122070313,-262.361486328125,21.023551220703126L-250.48048632812498,21.023551220703126C-248.24248632812498,21.004251220703125,-246.409486328125,22.796251220703127,-246.37748632812497,25.034151220703123L-246.37748632812497,33.344151220703125L-245.741486328125,33.344151220703125L-245.741486328125,31.41405122070313L-244.94448632812498,31.41405122070313L-244.94448632812498,33.344151220703125L-242.44748632812502,33.344151220703125L-242.44748632812502,31.41405122070313L-241.650486328125,31.41405122070313L-241.650486328125,33.344151220703125L-239.15348632812498,33.344151220703125L-239.15348632812498,31.41405122070313L-238.36748632812498,31.41405122070313L-238.36748632812498,33.344151220703125L-236.99248632812498,33.344151220703125L-235.89448632812503,-12.320648779296874L-233.039486328125,-12.320648779296874L-233.039486328125,-17.174948779296876L-230.508486328125,-17.174948779296876L-225.261486328125,-29.784448779296874L-225.261486328125,-57.69655077929688C-225.25548632812502,-58.106882779296875,-224.92048632812498,-58.436248779296875,-224.510486328125,-58.436248779296875C-224.10148632812502,-58.436248779296875,-223.770486328125,-58.10507477929688,-223.770486328125,-57.69655077929688L-223.770486328125,-29.957848779296874L-218.453486328125,-17.163348779296875L-215.991486328125,-17.163348779296875L-215.991486328125,-12.309148779296876L-211.50748632812503,-12.309148779296876L-211.50748632812503,-11.846848779296877L-210.525486328125,29.18335122070313L-210.525486328125,29.33355122070313L-210.525486328125,29.71505122070313L-209.924486328125,54.91075122070312L-197.765486328125,54.91075122070312L-197.765486328125,60.10075122070313L-187.02848632812498,60.10075122070313L-187.02848632812498,3.3054512207031266L-173.07748632812502,3.3054512207031266L-173.07748632812502,27.507451220703132L-172.546486328125,27.507451220703132L-172.546486328125,24.74515122070312C-172.54548632812498,24.611651220703123,-172.462486328125,24.492351220703128,-172.338486328125,24.444651220703122L-171.18248632812498,23.99385122070312L-171.066486328125,23.99385122070312L-170.13048632812502,23.99385122070312L-170.13048632812502,23.439151220703124C-170.13048632812502,23.26035122070313,-169.98548632812498,23.115551220703125,-169.80748632812498,23.115551220703125L-169.54148632812502,23.115551220703125L-169.54148632812502,22.248651220703124C-169.535486328125,22.068051220703126,-169.386486328125,21.92495122070312,-169.20648632812498,21.925051220703125L-168.813486328125,21.925051220703125L-168.813486328125,19.648151220703127C-168.81548632812502,19.559251220703132,-168.777486328125,19.47395122070313,-168.70948632812502,19.41705122070313L-168.431486328125,19.16275122070313L-168.431486328125,17.08235122070313C-168.429486328125,16.97415122070312,-168.37248632812498,16.874451220703122,-168.28148632812503,16.81655122070312L-167.946486328125,16.59695122070312L-167.946486328125,13.92705122070312C-167.94748632812502,13.81475122070313,-167.890486328125,13.70985122070313,-167.79548632812498,13.64965122070312L-167.62248632812498,13.545651220703121L-167.62248632812498,13.222051220703122L-167.830486328125,13.083351220703122C-167.922486328125,13.025451220703118,-167.97848632812497,12.92565122070313,-167.98048632812498,12.817551220703123L-167.98048632812498,7.986351220703128C-167.979486328125,7.880851220703121,-167.92748632812498,7.78235122070312,-167.842486328125,7.720551220703129L-167.842486328125,7.2813512207031295L-167.91148632812502,7.2813512207031295C-168.092486328125,7.281451220703119,-168.24048632812497,7.1382512207031255,-168.246486328125,6.9577512207031305L-168.246486328125,6.298951220703131C-168.246486328125,6.115551220703125,-168.09448632812502,5.968751220703126,-167.91148632812502,5.975351220703132L-167.414486328125,5.975351220703132L-167.414486328125,5.778851220703132L-167.91148632812502,5.778851220703132C-168.09448632812502,5.78535122070312,-168.246486328125,5.638551220703121,-168.246486328125,5.455251220703126L-168.246486328125,5.004451220703125C-168.24048632812497,4.823851220703126,-168.092486328125,4.680751220703122,-167.91148632812502,4.680851220703126L-167.761486328125,4.680851220703126L-167.472486328125,4.4496512207031245L-167.414486328125,4.4496512207031245L-167.414486328125,3.652151220703125C-167.59348632812498,3.652151220703125,-167.73848632812502,3.5072512207031252,-167.73848632812502,3.328551220703126L-167.73848632812502,2.7853512207031272C-167.73848632812502,2.606651220703128,-167.59348632812498,2.4617512207031282,-167.414486328125,2.4617512207031282L-166.963486328125,2.4617512207031282L-166.385486328125,1.8260512207031283L-166.270486328125,-12.806148779296876C-166.39948632812502,-12.849948779296874,-166.487486328125,-12.970148779296878,-166.489486328125,-13.106648779296876L-166.489486328125,-13.372448779296874C-166.48348632812503,-13.553048779296873,-166.335486328125,-13.696148779296877,-166.15448632812502,-13.696048779296873L-165.93548632812502,-13.696048779296873L-165.93548632812502,-19.763848779296872C-166.037486328125,-19.845048779296874,-166.097486328125,-19.968448779296878,-166.097486328125,-20.099048779296872C-166.08948632812502,-20.317148779296872,-165.93048632812503,-20.500248779296875,-165.715486328125,-20.53824877929687L-165.715486328125,-24.005648779296877C-165.70948632812502,-24.250048779296876,-165.50948632812498,-24.444848779296876,-165.26448632812497,-24.444748779296873C-165.015486328125,-24.451248779296876,-164.808486328125,-24.254548779296876,-164.80248632812498,-24.005648779296877L-164.80248632812498,-20.53824877929687C-164.585486328125,-20.504448779296872,-164.424486328125,-20.31884877929687,-164.421486328125,-20.099048779296872C-164.421486328125,-19.971048779296872,-164.475486328125,-19.84924877929687,-164.571486328125,-19.763848779296872L-164.571486328125,-13.696048779296873L-164.36348632812502,-13.696048779296873C-164.18248632812498,-13.696148779296877,-164.034486328125,-13.553048779296873,-164.02848632812498,-13.372448779296874L-164.02848632812498,-13.106648779296876C-164.030486328125,-12.970148779296878,-164.11848632812502,-12.849948779296874,-164.24748632812498,-12.806148779296876L-164.13248632812503,1.768251220703128L-163.542486328125,2.4617512207031282L-163.10348632812497,2.4617512207031282C-162.92748632812498,2.4677512207031285,-162.785486328125,2.6091512207031258,-162.77948632812502,2.7853512207031272L-162.77948632812502,3.328551220703126C-162.785486328125,3.5047512207031275,-162.92748632812498,3.646151220703125,-163.10348632812497,3.652151220703125L-163.10348632812497,4.380351220703126C-163.03148632812503,4.391351220703122,-162.965486328125,4.428351220703128,-162.91848632812503,4.484351220703125L-162.73348632812503,4.680851220703126L-162.60648632812502,4.680851220703126C-162.42548632812498,4.680751220703122,-162.277486328125,4.823851220703126,-162.27148632812498,5.004451220703125L-162.27148632812498,5.432051220703123C-162.27148632812498,5.615451220703122,-162.42348632812502,5.762251220703121,-162.60648632812502,5.755751220703118L-163.10348632812497,5.755751220703118L-163.10348632812497,5.975351220703132L-162.60648632812502,5.975351220703132C-162.42348632812502,5.968751220703126,-162.27148632812498,6.115551220703125,-162.27148632812498,6.298951220703131L-162.27148632812498,6.934551220703128C-162.277486328125,7.115151220703126,-162.42548632812498,7.258351220703119,-162.60648632812502,7.25825122070313L-162.60648632812502,7.662751220703129C-162.52148632812498,7.72455122070312,-162.46948632812502,7.823051220703121,-162.467486328125,7.9285512207031275L-162.467486328125,12.759751220703123C-162.470486328125,12.86785122070313,-162.52648632812497,12.967651220703118,-162.61848632812502,13.025551220703122L-162.826486328125,13.164251220703122L-162.826486328125,13.48785122070312L-162.652486328125,13.59185122070312C-162.558486328125,13.652051220703129,-162.501486328125,13.757051220703119,-162.50248632812497,13.86925122070312L-162.50248632812497,16.53915122070312L-162.167486328125,16.758751220703118C-162.076486328125,16.816651220703122,-162.01948632812503,16.91635122070312,-162.01748632812502,17.02455122070313L-162.01748632812502,19.11655122070313L-161.739486328125,19.370751220703127C-161.66848632812503,19.42645122070313,-161.62548632812502,19.511451220703123,-161.624486328125,19.60195122070313L-161.624486328125,21.959751220703126L-161.06948632812498,21.959751220703126C-160.888486328125,21.959651220703122,-160.74048632812497,22.102751220703126,-160.734486328125,22.283351220703125L-160.734486328125,23.115551220703125L-160.46848632812498,23.115551220703125C-160.287486328125,23.11535122070312,-160.13948632812497,23.258551220703126,-160.133486328125,23.439151220703124L-160.133486328125,23.99385122070312L-158.977486328125,23.99385122070312L-158.873486328125,23.99385122070312L-157.717486328125,24.444651220703122C-157.590486328125,24.48945122070313,-157.506486328125,24.61065122070312,-157.50948632812498,24.74515122070312L-157.50948632812498,27.507451220703132L-155.76448632812497,27.507451220703132C-155.585486328125,27.507451220703132,-155.44048632812502,27.652351220703125,-155.44048632812502,27.83105122070313L-155.44048632812502,30.951651220703127L-155.10548632812498,30.951651220703127C-154.941486328125,30.95575122070312,-154.804486328125,31.07805122070313,-154.78148632812503,31.24065122070313L-154.78148632812503,33.263251220703125L-149.095486328125,33.263251220703125L-149.095486328125,87.76975122070311L-144.36848632812502,87.76975122070311L-142.773486328125,72.30575122070312C-142.78348632812498,72.26375122070311,-142.78348632812498,72.21975122070313,-142.773486328125,72.17875122070313L-137.133486328125,61.533751220703124L-137.133486328125,61.417751220703124L-136.659486328125,60.55075122070312L-135.66548632812498,32.69695122070313C-135.69048632812502,32.45605122070313,-135.451486328125,32.273951220703125,-135.22648632812502,32.36175122070313C-135.047486328125,32.355251220703124,-134.897486328125,32.49505122070312,-134.890486328125,32.673751220703124L-134.42848632812502,58.158751220703124L-134.42848632812502,58.40175122070312L-126.33848632812499,54.93375122070313C-126.239486328125,54.88775122070312,-126.12548632812502,54.88775122070312,-126.02648632812497,54.93375122070313C-125.93448632812499,54.99375122070313,-125.87448632812499,55.09175122070313,-125.864486328125,55.19975122070312L-125.251486328125,72.02775122070312L-124.50048632812502,72.85975122070312L-124.26948632812503,72.85975122070312L-123.43748632812498,73.74975122070313L-123.43748632812498,74.09675122070311C-123.39648632812498,74.14675122070312,-123.36848632812502,74.20675122070313,-123.35648632812502,74.27075122070312L-122.20048632812501,82.18775122070312L-116.50248632812497,82.18775122070312L-116.50248632812497,57.89275122070312L-107.60348632812497,57.89275122070312L-107.60348632812497,49.80275122070313C-107.59648632812502,49.58975122070312,-107.42248632812499,49.420751220703124,-107.210486328125,49.420751220703124L-106.75948632812498,49.420751220703124L-106.75948632812498,36.18735122070312C-106.75648632812499,36.05795122070313,-106.69248632812503,35.93765122070313,-106.585486328125,35.86375122070312L-105.29148632812502,35.04315122070312L-105.29148632812502,32.731551220703125C-105.29148632812502,32.65295122070313,-105.26748632812502,32.57625122070313,-105.222486328125,32.511951220703125L-104.71348632812499,31.795351220703125L-104.71348632812499,28.74415122070313C-104.71248632812501,28.65125122070313,-104.68048632812503,28.561551220703123,-104.621486328125,28.48985122070313L-103.91648632812502,27.703951220703118L-103.91648632812502,24.976351220703123C-103.91348632812497,24.89275122070312,-103.88548632812501,24.811951220703122,-103.835486328125,24.74515122070312L-102.94548632812501,23.658751220703124L-102.94548632812501,20.803951220703127C-102.948486328125,20.687551220703128,-102.89748632812501,20.576151220703125,-102.806486328125,20.503451220703127L-101.82448632812498,19.763751220703128L-101.82448632812498,16.87425122070313C-101.81948632812498,16.76635122070313,-101.768486328125,16.665551220703122,-101.68548632812502,16.59695122070312L-100.89948632812502,15.891851220703131L-100.89948632812502,12.782851220703122C-100.91048632812499,12.721651220703123,-100.91048632812499,12.659151220703123,-100.89948632812502,12.597951220703123L-100.40248632812501,11.707951220703123L-100.40248632812501,8.818551220703128Q-100.40248632812501,8.818551220703128,-100.40248632812501,8.749151220703126C-100.30948632812499,8.128151220703131,-100.06348632812501,7.540151220703123,-99.68548632812502,7.03865122070313L-99.39748632812501,-7.836248779296874C-99.393486328125,-7.960748779296878,-99.35348632812497,-8.081548779296874,-99.28148632812503,-8.182948779296872C-99.227486328125,-8.285448779296878,-99.12948632812498,-8.357748779296877,-99.01548632812501,-8.379448779296872C-98.96648632812497,-8.390848779296874,-98.91448632812501,-8.390848779296874,-98.86548632812497,-8.379448779296872C-98.81548632812502,-8.390848779296874,-98.76448632812497,-8.390848779296874,-98.715486328125,-8.379448779296872C-98.60148632812502,-8.357748779296877,-98.503486328125,-8.285448779296878,-98.44948632812498,-8.182948779296872C-98.36848632812502,-8.085348779296872,-98.323486328125,-7.962948779296873,-98.32248632812502,-7.836248779296874L-98.241486328125,7.03865122070313C-97.864486328125,7.540951220703121,-97.61848632812502,8.12855122070313,-97.52448632812502,8.749151220703126L-97.52448632812502,11.707951220703123L-97.02748632812501,12.609451220703122C-97.01548632812501,12.66665122070313,-97.01548632812501,12.725651220703128,-97.02748632812501,12.782851220703122L-97.02748632812501,15.891851220703131L-96.241486328125,16.59695122070312C-96.15848632812498,16.665551220703122,-96.10748632812499,16.76635122070313,-96.10348632812497,16.87425122070313L-96.10348632812497,19.763751220703128L-95.13248632812503,20.503451220703127C-95.03348632812498,20.571051220703126,-94.97648632812502,20.684551220703128,-94.98148632812502,20.803951220703127L-94.98148632812502,23.658751220703124L-94.10348632812497,24.74515122070312C-94.04348632812503,24.80675122070312,-94.00948632812498,24.89005122070313,-94.01148632812499,24.976351220703123L-94.01148632812499,27.73865122070312L-93.31748632812503,28.52455122070313C-93.25048632812502,28.59215122070313,-93.21348632812499,28.683651220703126,-93.21348632812499,28.77885122070313L-93.21348632812499,31.841651220703127L-92.705486328125,32.55825122070313C-92.66148632812502,32.62315122070312,-92.63748632812502,32.699451220703125,-92.63548632812501,32.77785122070313L-92.63548632812501,35.08935122070312L-91.34148632812497,35.90995122070312C-91.23048632812498,35.97955122070313,-91.16448632812501,36.10265122070312,-91.167486328125,36.23355122070312L-91.167486328125,49.46775122070312L-90.717486328125,49.46775122070312C-90.50448632812498,49.46675122070313,-90.330486328125,49.63575122070313,-90.32448632812498,49.84875122070312L-90.32448632812498,82.52275122070313L-83.67848632812502,82.52275122070313L-83.67848632812502,17.90295122070313L-76.05048632812498,25.357751220703122L-76.05048632812498,48.10375122070313L-73.530486328125,48.10375122070313L-73.530486328125,70.50275122070312L-71.82048632812501,70.22475122070313L-71.82048632812501,96.62275122070312L-68.86148632812501,97.24675122070312L-68.86148632812501,99.55875122070313L-63.417486328124994,99.55875122070313L-63.417486328124994,91.93075122070312L-56.633486328125,91.93075122070312L-56.633486328125,61.79975122070313L-42.763486328125,61.79975122070313L-42.763486328125,55.47775122070313C-42.757486328125026,55.26475122070312,-42.58348632812499,55.09575122070312,-42.370486328125025,55.09575122070312L-41.85048632812499,55.09575122070312C-41.64048632812501,55.09575122070312,-41.469486328125015,55.26675122070313,-41.469486328125015,55.47775122070313L-41.469486328125015,55.70875122070312L-40.91448632812501,55.70875122070312L-40.91448632812501,41.18035122070313C-40.913486328124975,41.06555122070313,-40.85748632812499,40.958051220703126,-40.764486328124974,40.89135122070313C-40.667486328124994,40.81285122070312,-40.537486328125,40.78695122070313,-40.417486328124994,40.82205122070313L-40.278486328124984,40.82205122070313L-40.278486328124984,36.91555122070312C-40.27348632812499,36.79595122070313,-40.21448632812502,36.68525122070312,-40.11748632812498,36.61505122070312C-40.02248632812501,36.54025122070313,-39.89848632812499,36.514551220703126,-39.78148632812503,36.54565122070312L-38.626486328125,36.83465122070312L-38.210486328125,36.83465122070312C-38.14048632812501,36.71455122070313,-38.013486328125,36.639951220703125,-37.87448632812499,36.63815122070312L-37.516486328124984,36.63815122070312C-37.427486328124985,36.63855122070312,-37.340486328124996,36.67145122070312,-37.27348632812499,36.73055122070312L-37.27348632812499,31.471751220703126C-37.27148632812498,31.345451220703126,-37.20648632812498,31.228651220703128,-37.10048632812499,31.15975122070313C-36.989486328125,31.098051220703127,-36.85348632812497,31.098051220703127,-36.74248632812498,31.15975122070313L-35.933486328125014,31.448651220703127C-35.80948632812499,31.499051220703123,-35.71848632812498,31.60715122070313,-35.69048632812502,31.73765122070313L-35.69048632812502,29.44915122070313C-35.68848632812501,29.34875122070312,-35.64648632812498,29.25325122070312,-35.574486328124976,29.18335122070313L-35.17048632812498,28.77885122070313C-35.01748632812502,28.62595122070313,-34.76848632812499,28.62595122070313,-34.61548632812497,28.77885122070313L-34.21148632812498,29.18335122070313C-34.139486328124974,29.25325122070312,-34.097486328125,29.34875122070312,-34.09548632812499,29.44915122070313L-34.09548632812499,31.691351220703126C-34.06348632812501,31.569351220703126,-33.97848632812497,31.46775122070312,-33.864486328125,31.41405122070313L-33.15948632812501,31.113451220703126C-33.042486328124994,31.055651220703126,-32.905486328124994,31.055651220703126,-32.78948632812501,31.113451220703126C-32.68048632812503,31.18465122070313,-32.614486328125,31.30665122070313,-32.616486328125006,31.43715122070313L-32.616486328125006,36.69585122070312C-32.544486328125004,36.63685122070312,-32.45448632812497,36.60415122070313,-32.36148632812501,36.60345122070312L-32.00348632812501,36.60345122070312C-31.865486328124973,36.605251220703124,-31.737486328124987,36.67995122070313,-31.668486328125027,36.79995122070312L-31.252486328124974,36.79995122070312L-30.096486328125025,36.51095122070312C-29.979486328125006,36.48645122070313,-29.858486328125025,36.511551220703126,-29.761486328124988,36.58035122070312C-29.667486328124994,36.65185122070312,-29.61148632812501,36.762851220703126,-29.61148632812501,36.88085122070312L-29.61148632812501,40.83355122070313L-29.414486328125008,40.83355122070313C-29.308486328125014,40.78185122070313,-29.185486328125023,40.78185122070313,-29.079486328124972,40.83355122070313C-28.981486328125015,40.90265122070312,-28.921486328125013,41.014051220703124,-28.917486328124994,41.13405122070313L-28.917486328124994,55.69675122070312L-28.894486328125026,55.69675122070312L-28.894486328125026,55.47775122070313C-28.888486328124998,55.26475122070312,-28.71448632812502,55.09575122070312,-28.501486328124997,55.09575122070312L-27.981486328125015,55.09575122070312C-27.770486328125003,55.09575122070312,-27.600486328124987,55.26675122070313,-27.600486328124987,55.47775122070313L-27.600486328124987,61.76475122070312L-26.19048632812502,61.76475122070312L-26.19048632812502,87.43475122070313C-26.12548632812502,87.49975122070313,-26.088486328124986,87.58575122070312,-26.085486328125,87.67775122070313L-26.085486328125,96.41475122070312L-14.331486328124981,96.41475122070312L-14.331486328124981,104.23975122070311L-10.864486328124997,103.33775122070313L-5.9294863281249945,104.49375122070313L-5.9294863281249945,103.85775122070314C-5.9464863281249905,103.80575122070312,-5.9464863281249905,103.74875122070313,-5.9294863281249945,103.69675122070313L-5.767486328125017,103.25675122070314L-5.767486328125017,101.54675122070313C-5.775486328124998,101.50875122070312,-5.775486328124998,101.46875122070313,-5.767486328125017,101.43075122070312L-5.4434863281250045,100.45975122070311C-5.379486328124983,100.27975122070313,-5.1934863281250045,100.17175122070313,-5.004486328124983,100.20575122070312C-4.8494863281250105,100.25175122070311,-4.742486328124983,100.39175122070313,-4.7384863281250205,100.55275122070313L-4.7384863281250205,102.22875122070312L-4.519486328125026,101.80075122070312C-4.430486328125028,101.64075122070312,-4.2454863281250255,101.56075122070314,-4.0684863281250045,101.60475122070312C-3.893486328124993,101.63875122070311,-3.7704863281250027,101.79675122070313,-3.7794863281250173,101.97475122070313L-3.7794863281250173,103.02575122070311L-3.629486328124983,103.02575122070311L-2.7164863281249723,103.02575122070311L-2.7164863281249723,84.94975122070312C-2.709486328125024,84.73275122070314,-2.528486328124984,84.56175122070312,-2.3114863281249995,84.56875122070312L-2.011486328124988,84.22175122070311L-2.011486328124988,83.57475122070312C-1.9984863281250114,83.35875122070311,-1.8104863281250232,83.19575122070313,-1.594486328125015,83.21575122070311L-1.1554863281249936,83.21575122070311L-1.1554863281249936,77.74875122070313C-1.1614863281250223,77.71475122070314,-1.1614863281250223,77.67975122070314,-1.1554863281249936,77.64475122070311L-1.1554863281249936,76.97475122070313C-1.1624863281249986,76.93675122070312,-1.1624863281249986,76.89775122070313,-1.1554863281249936,76.85875122070311L-1.1554863281249936,75.77275122070313C-1.163486328124975,75.73875122070314,-1.163486328124975,75.70275122070314,-1.1554863281249936,75.66875122070311L-1.1554863281249936,74.51275122070314Q-1.1554863281249936,74.51275122070314,-1.1554863281249936,74.40875122070312L-1.1554863281249936,73.32275122070311C-1.1614863281250223,73.28375122070312,-1.1614863281250223,73.24575122070311,-1.1554863281249936,73.20675122070313L-1.1554863281249936,70.89575122070312C-1.1554863281249936,70.81675122070311,-1.1314863281249927,70.73975122070311,-1.0864863281249768,70.67575122070312L-0.7974863281249895,70.27175122070312L-0.288486328124975,68.89575122070312C-0.23248632812499181,68.74575122070313,-0.09048632812499591,68.64575122070312,0.06951367187497226,68.64175122070313C0.24451367187498363,68.64775122070313,0.39751367187500364,68.76375122070313,0.4505136718750009,68.93075122070313L0.5775136718750105,69.34675122070313L1.9535136718749868,66.01775122070312L1.9535136718749868,64.72375122070312C1.9415136718749864,64.67075122070312,1.9415136718749864,64.61475122070313,1.9535136718749868,64.56175122070313L2.311513671874991,63.798751220703124L2.311513671874991,62.58575122070313C2.3105136718750146,62.45175122070313,2.380513671874951,62.328751220703126,2.49651367187505,62.26175122070312L2.7625136718750127,62.08875122070313L2.7625136718750127,61.51075122070313C2.7505136718749554,61.456751220703126,2.7505136718749554,61.40175122070312,2.7625136718750127,61.34875122070312L2.98151367187495,60.828751220703126L2.98151367187495,59.18775122070312C2.98251367187504,58.932751220703125,3.2205136718749827,58.74575122070313,3.4675136718750537,58.80575122070313L3.860513671874969,58.80575122070313C4.072513671874958,58.80575122070313,4.24651367187505,58.974751220703126,4.253513671874998,59.18775122070312L4.253513671874998,60.539751220703124L4.599513671875002,61.35975122070313C4.611513671874945,61.40975122070313,4.611513671874945,61.46075122070313,4.599513671875002,61.51075122070313L4.599513671875002,62.08875122070313L4.8655136718749645,62.26175122070312C4.98151367187495,62.328751220703126,5.051513671875,62.45175122070313,5.050513671875024,62.58575122070313L5.050513671875024,63.798751220703124L5.409513671874947,64.58475122070313C5.415513671875033,64.63475122070312,5.415513671875033,64.68475122070312,5.409513671874947,64.73475122070313L5.409513671874947,66.04075122070313L6.819513671875029,69.34675122070313L6.934513671875038,68.94175122070313C6.98251367187504,68.78075122070312,7.125513671874955,68.66575122070313,7.2925136718749854,68.65275122070312C7.458513671875039,68.64875122070312,7.60751367187504,68.75175122070313,7.66251367187499,68.90775122070312L8.171513671875005,70.28275122070312L8.460513671874992,70.68775122070312C8.506513671875041,70.75075122070314,8.531513671875018,70.82775122070314,8.529513671874952,70.90675122070311L8.529513671874952,72.06275122070312C8.545513671875028,72.12375122070313,8.545513671875028,72.18675122070312,8.529513671874952,72.24775122070312L8.529513671874952,78.02675122070312C8.545513671875028,78.08375122070314,8.545513671875028,78.14275122070313,8.529513671874952,78.19975122070312L8.529513671874952,83.21575122070311L8.96851367187503,83.21575122070311C9.183513671874948,83.20975122070311,9.361513671874945,83.38175122070314,9.361513671874945,83.59775122070312L9.361513671874945,84.24475122070314L9.66251367187499,84.59175122070312C9.874513671874979,84.59175122070312,10.048513671874957,84.76075122070313,10.055513671875019,84.97275122070312L10.055513671875019,103.07275122070311L10.644513671874961,103.07275122070311L11.118513671875007,102.99175122070312L11.118513671875007,101.99775122070312C11.110513671874969,101.81575122070313,11.239513671874988,101.65675122070311,11.419513671875052,101.62775122070312C11.59351367187503,101.58575122070312,11.77351367187498,101.66575122070313,11.858513671875016,101.82375122070312L12.077513671874954,102.25175122070311L12.077513671874954,100.55275122070313C12.085513671874992,100.36475122070311,12.225513671874978,100.20875122070314,12.411513671875014,100.18075122070312C12.59751367187505,100.15275122070312,12.777513671874999,100.25975122070312,12.840513671874987,100.43675122070312L13.164513671875056,101.40775122070312C13.172513671874981,101.44575122070313,13.172513671874981,101.48575122070312,13.164513671875056,101.52375122070313L13.164513671875056,103.26875122070314L13.326513671874977,103.70775122070313C13.34351367187503,103.76075122070313,13.34351367187503,103.81775122070312,13.326513671874977,103.86975122070314L13.152513671874999,106.51675122070313L13.395513671875051,106.72475122070313C13.474513671875002,106.80075122070312,13.519513671874961,106.90375122070313,13.522513671875004,107.01375122070311L13.522513671875004,112.14475122070311L17.39451367187496,112.14475122070311L17.39451367187496,137.22575122070313L34.962513671874945,137.22575122070313L34.962513671874945,115.57775122070314L40.09351367187503,115.57775122070314L40.09351367187503,93.49075122070312L56.19351367187505,93.49075122070312L56.19351367187505,103.89275122070313L62.41251367187499,103.89275122070313C64.65051367187505,103.87375122070313,66.48351367187502,105.66575122070313,66.51551367187506,107.90375122070313L66.51551367187506,108.72375122070312L69.03451367187495,108.72375122070312L69.03451367187495,123.50675122070314L72.92951367187504,123.50675122070314C75.16551367187503,123.48075122070313,77.00051367187496,125.26975122070311,77.032513671875,127.50575122070313L77.032513671875,135.22575122070313L82.51151367187504,135.22575122070313L82.51151367187504,141.28275122070312L86.78751367187499,141.28275122070312L86.78751367187499,149.8467512207031L69.02351367187498,149.8467512207031L69.02351367187498,150.79475122070312ZM37.713513671875035,150.48275122070314L68.69951367187502,150.48275122070314L68.69951367187502,149.54575122070312L86.46351367187503,149.54575122070312L86.46351367187503,141.59475122070313L82.18751367187497,141.59475122070313L82.18751367187497,135.53775122070311L76.70851367187504,135.53775122070311L76.70851367187504,127.53975122070312C76.67751367187498,125.47475122070313,74.98351367187502,123.82275122070311,72.91851367187496,123.84175122070312L68.69951367187502,123.84175122070312L68.69951367187502,109.07075122070313L66.17951367187504,109.07075122070313L66.17951367187504,107.91475122070312C66.14151367187503,105.86475122070311,64.46251367187494,104.22675122070314,62.41251367187499,104.23975122070311L55.88151367187504,104.23975122070311L55.88151367187504,93.83775122070313L40.452513671874954,93.83775122070313L40.452513671874954,115.91275122070311L35.366513671875055,115.91275122070311L35.366513671875055,137.53775122070311L17.174513671875047,137.53775122070311L17.174513671875047,112.46875122070313L13.303513671874953,112.46875122070313L13.303513671874953,107.03675122070314L12.944513671875029,106.72475122070313L13.129513671874975,103.92775122070313L12.933513671874948,103.40775122070312L12.933513671874948,101.54675122070313L12.59751367187505,100.55275122070313C12.572513671874958,100.54075122070313,12.542513671874985,100.54075122070313,12.517513671875008,100.55275122070313C12.476513671874955,100.55275122070313,12.441513671874986,100.58175122070313,12.436513671874991,100.62175122070312L12.436513671874991,102.55175122070312L11.973513671875025,102.69075122070313L11.627513671875022,102.00875122070312C11.605513671874974,101.99875122070313,11.57951367187502,101.99875122070313,11.557513671874972,102.00875122070312C11.499513671874979,102.00875122070312,11.476513671874955,102.00875122070312,11.476513671874955,102.08975122070314L11.476513671874955,103.33775122070313L10.725513671874978,103.47675122070314L9.789513671875056,103.47675122070314L9.789513671875056,84.98475122070312C9.789513671875056,84.93975122070313,9.753513671874998,84.90375122070313,9.708513671875039,84.90375122070313L9.465513671874987,84.90375122070313L9.465513671874987,84.76475122070312L9.095513671874983,84.33675122070312L9.095513671874983,83.57475122070312C9.095513671874983,83.52975122070313,9.059513671875038,83.49375122070313,9.015513671875055,83.49375122070313L8.656513671875018,83.49375122070313C8.612513671875035,83.49375122070313,8.575513671875001,83.52975122070313,8.575513671875001,83.57475122070312L8.575513671875001,84.26775122070313L8.217513671875054,84.59175122070312L8.217513671875054,78.16575122070313L8.217513671875054,72.38675122070313L8.217513671875054,71.11475122070311L7.8935136718749845,70.64075122070312L7.385513671874946,69.25375122070312C7.363513671875012,69.24475122070312,7.338513671875035,69.24475122070312,7.316513671874986,69.25375122070312C7.291513671875009,69.23975122070313,7.260513671874946,69.23975122070313,7.235513671874969,69.25375122070312L6.934513671875038,70.24775122070312L5.12051367187496,66.07575122070313L5.12051367187496,64.72375122070312L4.738513671875012,63.85675122070313L4.738513671875012,62.58575122070313C4.749513671874979,62.563751220703125,4.749513671874979,62.53775122070313,4.738513671875012,62.51575122070312L4.322513671874958,62.26175122070312L4.322513671874958,61.51075122070313L3.9295136718750427,60.57475122070312L3.9295136718750427,59.18775122070312C3.930513671875019,59.14675122070312,3.9005136718750464,59.11175122070313,3.860513671874969,59.10675122070313L3.4675136718750537,59.10675122070313C3.4275136718749764,59.11175122070313,3.3975136718750036,59.14675122070312,3.3975136718750036,59.18775122070312L3.3975136718750036,60.920751220703124L3.166513671875009,61.47575122070313L3.166513671875009,62.26175122070312L2.7625136718750127,62.51575122070312C2.7515136718750455,62.53775122070313,2.7515136718750455,62.563751220703125,2.7625136718750127,62.58575122070313L2.7625136718750127,63.902751220703124L2.311513671874991,64.72375122070312L2.311513671874991,66.12175122070313L0.5315136718750182,70.29475122070312L0.16151367187501364,69.02275122070313C0.14051367187499864,69.01075122070313,0.11351367187501182,69.01075122070313,0.09251367187499682,69.02275122070313C0.06651367187498636,69.01075122070313,0.037513671874989996,69.01075122070313,0.011513671874979536,69.02275122070313L-0.5084863281250023,70.43275122070312L-0.8204863281250141,70.87275122070312L-0.8204863281250141,84.53375122070312L-1.167486328124994,84.23275122070314L-1.167486328124994,83.53975122070312C-1.167486328124994,83.49475122070314,-1.2034863281249955,83.45875122070314,-1.2484863281250114,83.45875122070314L-1.5714863281249905,83.45875122070314C-1.6124863281249873,83.46475122070314,-1.6414863281249836,83.49875122070313,-1.6414863281249836,83.53975122070312L-1.6414863281249836,84.30275122070313L-2.011486328124988,84.72975122070312L-2.011486328124988,84.84575122070314L-2.1384863281249977,84.84575122070314L-2.3114863281249995,84.84575122070314C-2.3564863281250155,84.84575122070314,-2.392486328125017,84.88175122070314,-2.392486328125017,84.92675122070312L-2.392486328125017,103.41875122070311L-3.663486328124975,103.41875122070311L-4.091486328124972,103.33775122070313L-4.091486328124972,101.99775122070312C-4.079486328124972,101.97575122070313,-4.079486328124972,101.94975122070312,-4.091486328124972,101.92775122070313Q-4.160486328124989,101.92775122070313,-4.1724863281249895,101.92775122070313L-4.530486328124994,102.60975122070312L-4.992486328124983,102.47175122070311L-4.992486328124983,100.55275122070313C-5.004486328124983,100.52775122070312,-5.029486328125017,100.51075122070313,-5.056486328125004,100.51075122070313C-5.084486328125024,100.51075122070313,-5.109486328125001,100.52775122070312,-5.1204863281250255,100.55275122070313Q-5.1894863281249854,100.55275122070313,-5.201486328124986,100.55275122070313L-5.524486328125022,101.51175122070313L-5.524486328125022,103.37275122070312L-5.709486328125024,103.83475122070311L-5.640486328125007,104.92175122070313L-10.910486328124989,103.64975122070314L-14.643486328124993,104.64375122070314L-14.643486328124993,96.72675122070314L-26.386486328124988,96.72675122070314L-26.386486328124988,87.67775122070313L-26.44448632812498,87.60775122070314L-26.44448632812498,62.18075122070313L-27.854486328125006,62.18075122070313L-27.854486328125006,55.47775122070313C-27.854486328125006,55.438751220703125,-27.885486328125012,55.40775122070312,-27.923486328125023,55.40775122070312L-28.443486328125005,55.40775122070312C-28.482486328124992,55.40775122070312,-28.513486328124998,55.438751220703125,-28.513486328124998,55.47775122070313L-28.513486328124998,56.00875122070312L-29.241486328125006,56.00875122070312L-29.299486328125,55.83575122070313L-29.299486328125,41.18035122070313C-29.293486328125027,41.16145122070313,-29.293486328125027,41.14145122070312,-29.299486328125,41.12255122070313L-29.911486328125022,41.27275122070313L-29.911486328125022,36.91555122070312C-29.901486328124975,36.897651220703125,-29.901486328124975,36.87555122070313,-29.911486328125022,36.85775122070312L-31.067486328125028,37.15825122070312L-31.749486328124988,37.15825122070312L-31.749486328124988,37.01955122070312C-31.754486328124983,36.985851220703125,-31.784486328125013,36.96125122070312,-31.818486328125005,36.96175122070312L-32.17648632812501,36.96175122070312C-32.217486328125005,36.96135122070312,-32.252486328124974,36.990951220703124,-32.257486328125026,37.03105122070312L-32.257486328125026,37.15825122070312L-32.731486328125015,37.15825122070312L-32.731486328125015,31.471751220703126C-32.719486328125015,31.450351220703126,-32.719486328125015,31.423851220703128,-32.731486328125015,31.402451220703128C-32.75348632812501,31.39005122070313,-32.77948632812502,31.39005122070313,-32.80148632812501,31.402451220703128L-33.50648632812499,31.691351220703126C-33.51848632812499,31.71285122070313,-33.51848632812499,31.739251220703125,-33.50648632812499,31.760751220703128L-33.50648632812499,31.991851220703126L-34.141486328124984,31.991851220703126L-34.141486328124984,29.44915122070313C-34.138486328125,29.43005122070312,-34.138486328125,29.410551220703127,-34.141486328124984,29.39135122070313L-34.54648632812501,28.98685122070313C-34.58148632812498,28.96345122070312,-34.626486328125,28.96345122070312,-34.66148632812502,28.98685122070313L-35.066486328124995,29.37985122070313C-35.06948632812498,29.398951220703125,-35.06948632812498,29.41845122070312,-35.066486328124995,29.43765122070313L-35.066486328124995,31.980351220703128L-35.713486328124986,31.980351220703128L-35.713486328124986,31.749151220703126C-35.701486328124986,31.727751220703126,-35.701486328124986,31.701251220703128,-35.713486328124986,31.679851220703128L-36.51148632812499,31.37935122070313L-36.984486328125,31.37935122070313C-36.99248632812498,31.40175122070312,-36.99248632812498,31.426251220703122,-36.984486328125,31.448651220703127L-36.984486328125,37.12355122070312L-37.447486328125024,37.12355122070312L-37.447486328125024,36.99635122070312C-37.447486328125024,36.95815122070313,-37.47848632812497,36.92705122070312,-37.516486328124984,36.92705122070312L-37.87448632812499,36.92705122070312C-37.913486328124975,36.92705122070312,-37.94448632812498,36.95815122070313,-37.94448632812498,36.99635122070312L-37.94448632812498,37.12355122070312L-38.66048632812499,37.12355122070312L-39.816486328124995,36.83465122070312L-39.88548632812501,36.83465122070312C-39.89648632812498,36.85245122070313,-39.89648632812498,36.874551220703125,-39.88548632812501,36.89235122070312L-39.88548632812501,41.22655122070313L-40.417486328124994,41.08785122070313Q-40.417486328124994,41.08785122070313,-40.48648632812501,41.08785122070313L-40.48648632812501,55.82375122070313L-40.48648632812501,55.962751220703126L-41.64248632812502,55.962751220703126L-41.64248632812502,55.47775122070313C-41.64248632812502,55.438751220703125,-41.67348632812502,55.40775122070312,-41.71248632812501,55.40775122070312L-42.23248632812499,55.40775122070312C-42.27248632812501,55.40775122070312,-42.30748632812498,55.43675122070313,-42.31348632812501,55.47775122070313L-42.31348632812501,62.07675122070313L-56.27448632812502,62.07675122070313L-56.27448632812502,92.26575122070312L-63.013486328125,92.26575122070312L-63.013486328125,99.89375122070314L-69.080486328125,99.89375122070314L-69.080486328125,97.48975122070311L-72.05148632812501,96.86575122070312L-72.05148632812501,70.59475122070313L-73.75048632812502,70.88375122070312L-73.75048632812502,48.40375122070313L-76.28148632812503,48.40375122070313L-76.28148632812503,25.48485122070312L-83.21648632812497,18.64265122070313L-83.21648632812497,82.83475122070311L-90.49748632812498,82.83475122070311L-90.49748632812498,49.84875122070312C-90.49748632812498,49.810751220703125,-90.52848632812498,49.77975122070312,-90.566486328125,49.77975122070312L-91.32948632812497,49.77975122070312L-91.32948632812497,36.18735122070312L-92.76248632812502,35.26275122070312L-92.76248632812502,32.743151220703126L-93.32948632812497,31.945651220703127L-93.32948632812497,28.74415122070313C-93.32248632812502,28.725351220703132,-93.32248632812502,28.70515122070313,-93.32948632812497,28.68635122070313L-94.10348632812497,27.80795122070313L-94.10348632812497,24.976351220703123L-95.05148632812501,23.820551220703123L-95.05148632812501,20.803951220703127C-95.04048632812498,20.78605122070313,-95.04048632812498,20.764051220703124,-95.05148632812501,20.746151220703126L-96.14948632812502,19.91405122070313L-96.14948632812502,16.87425122070313L-97.03948632812501,16.065251220703118L-97.03948632812501,12.71345122070312L-97.58248632812501,11.754151220703122L-97.58248632812501,8.818551220703128C-97.66548632812498,8.234751220703131,-97.89648632812498,7.68175122070312,-98.25248632812497,7.211951220703128L-98.40348632812498,-7.813148779296874C-98.40848632812498,-7.872948779296877,-98.43248632812498,-7.929548779296873,-98.472486328125,-7.974948779296874L-98.63448632812498,-7.974948779296874C-98.674486328125,-7.931048779296873,-98.69548632812501,-7.872648779296874,-98.691486328125,-7.813148779296874L-98.85348632812497,7.211951220703128C-99.21448632812502,7.674951220703122,-99.44548632812501,8.225351220703132,-99.52448632812502,8.806951220703127L-99.52448632812502,11.788851220703123L-100.55248632812498,12.71345122070312L-100.55248632812498,15.984351220703118L-101.44248632812503,16.781851220703132L-101.44248632812503,19.821551220703128L-102.59848632812498,20.653651220703125C-102.604486328125,20.672451220703124,-102.604486328125,20.69275122070313,-102.59848632812498,20.711451220703125L-102.59848632812498,23.670251220703122L-103.54648632812501,24.82605122070312L-103.54648632812501,27.65775122070312L-104.32048632812501,28.53615122070312C-104.32648632812499,28.554851220703128,-104.32648632812499,28.57515122070312,-104.32048632812501,28.59385122070313L-104.32048632812501,31.760751220703128L-104.88648632812499,32.55825122070313L-104.88648632812499,35.020051220703124L-106.32048632812501,35.93305122070312C-106.328486328125,35.95555122070313,-106.328486328125,35.98005122070313,-106.32048632812501,36.00245122070312L-106.32048632812501,49.77975122070312L-107.08248632812501,49.77975122070312C-107.12348632812501,49.77875122070313,-107.15848632812498,49.80875122070313,-107.16348632812497,49.84875122070312L-107.16348632812497,58.20475122070313L-116.05148632812501,58.20475122070313L-116.05148632812501,82.55675122070312L-122.35048632812499,82.55675122070312L-123.50648632812499,74.38575122070313L-123.61048632812498,74.25875122070312L-123.61048632812498,73.92375122070314L-124.280486328125,73.19575122070313L-124.51248632812502,73.19575122070313L-125.436486328125,72.17875122070313L-126.06048632812502,55.292751220703124L-134.717486328125,58.944751220703125L-135.22648632812502,32.708451220703125L-136.23148632812502,60.62075122070313L-136.77448632812502,61.66075122070312L-142.426486328125,72.32875122070311L-144.056486328125,88.07075122070313L-149.37248632812498,88.07075122070313L-149.37248632812498,33.575351220703126L-154.874486328125,33.575351220703126L-154.874486328125,31.552651220703126L-154.874486328125,31.286851220703127L-155.09448632812502,31.286851220703127L-155.53348632812498,31.286851220703127L-155.53348632812498,27.81955122070312L-157.602486328125,27.81955122070312L-157.602486328125,24.74515122070312L-158.81548632812502,24.282851220703122L-160.32948632812497,24.282851220703122L-160.32948632812497,23.416051220703125L-160.93048632812503,23.416051220703125L-160.93048632812503,22.260251220703125L-161.83248632812501,22.260251220703125L-161.83248632812501,19.648151220703127L-162.213486328125,19.289851220703127L-162.213486328125,17.08235122070313L-162.69948632812498,16.758751220703118L-162.69948632812498,13.92705122070312L-163.022486328125,13.70745122070312L-163.022486328125,13.060251220703122L-162.67548632812498,12.829051220703121L-162.67548632812498,7.986351220703128L-162.86048632812498,7.847651220703128L-162.86048632812498,6.934551220703128L-162.51448632812497,6.934551220703128L-162.51448632812497,6.252651220703129L-163.34648632812502,6.252651220703129L-163.34648632812502,5.455251220703126L-162.537486328125,5.455251220703126L-162.537486328125,5.004451220703125L-162.826486328125,5.004451220703125L-163.10348632812497,4.703951220703125L-163.369486328125,4.703951220703125L-163.369486328125,3.3401512207031274L-163.022486328125,3.3401512207031274L-163.022486328125,2.7853512207031272L-163.623486328125,2.7853512207031272L-164.374486328125,1.8954512207031229L-164.50248632812497,-13.025748779296876L-164.294486328125,-13.025748779296876L-164.294486328125,-13.303048779296873L-164.837486328125,-13.303048779296873L-164.837486328125,-19.856348779296873L-164.744486328125,-19.856348779296873C-164.70448632812497,-19.881748779296878,-164.67848632812502,-19.924648779296874,-164.67548632812498,-19.971948779296874C-164.67548632812498,-20.048548779296873,-164.737486328125,-20.110648779296874,-164.81448632812499,-20.110648779296874L-165.068486328125,-20.110648779296874L-165.068486328125,-23.901548779296874C-165.068486328125,-23.978148779296873,-165.13048632812502,-24.040248779296874,-165.20748632812501,-24.040248779296874C-165.28148632812503,-24.034748779296876,-165.340486328125,-23.97574877929687,-165.345486328125,-23.901548779296874L-165.345486328125,-20.110648779296874L-165.588486328125,-20.110648779296874C-165.66548632812498,-20.110648779296874,-165.727486328125,-20.048548779296873,-165.727486328125,-19.971948779296874C-165.72348632812498,-19.924648779296874,-165.69748632812502,-19.881748779296878,-165.657486328125,-19.856348779296873L-165.56548632812502,-19.856348779296873L-165.56548632812502,-13.303048779296873L-166.097486328125,-13.303048779296873L-166.097486328125,-13.025748779296876L-165.86548632812497,-13.025748779296876L-165.99248632812498,1.999451220703122L-166.744486328125,2.820051220703128L-167.333486328125,2.820051220703128L-167.333486328125,3.3863512207031263L-166.975486328125,3.3863512207031263L-166.975486328125,4.680851220703126L-167.13748632812502,4.680851220703126L-167.518486328125,4.992851220703123L-167.784486328125,4.992851220703123L-167.784486328125,5.432051220703123L-166.95248632812502,5.432051220703123L-166.95248632812502,6.252651220703129L-167.761486328125,6.252651220703129L-167.761486328125,6.934551220703128L-167.35648632812502,6.934551220703128L-167.35648632812502,7.824551220703128L-167.49548632812503,7.917051220703129L-167.49548632812503,12.771251220703121L-167.12548632812502,13.01395122070312L-167.12548632812502,13.661251220703122L-167.44948632812498,13.86925122070312L-167.44948632812498,16.758751220703118L-167.92348632812502,17.07075122070313L-167.92348632812502,19.30145122070313L-168.304486328125,19.648151220703127L-168.304486328125,22.213951220703123L-169.00948632812498,22.213951220703123L-169.00948632812498,23.369751220703122L-169.599486328125,23.369751220703122L-169.599486328125,24.27125122070312L-170.847486328125,24.27125122070312L-172.003486328125,24.722051220703122L-172.003486328125,27.79645122070312L-173.15848632812498,27.79645122070312L-173.15848632812498,3.605951220703126L-186.47348632812498,3.605951220703126L-186.47348632812498,60.38975122070312L-197.83448632812502,60.38975122070312L-197.83448632812502,55.19975122070312L-209.98148632812502,55.19975122070312L-210.60648632812502,29.39135122070313L-210.60648632812502,29.32205122070313L-211.599486328125,-11.869948779296877L-211.599486328125,-12.008648779296877L-221.49348632812502,-12.008648779296877L-221.49348632812502,-12.343748779296874L-217.28648632812502,-12.343748779296874L-217.205486328125,-12.170448779296876L-216.73148632812502,-12.343748779296874L-216.292486328125,-12.343748779296874L-216.292486328125,-16.862848779296876L-218.604486328125,-16.862848779296876L-218.604486328125,-16.966948779296878L-223.97848632812497,-29.911648779296875L-223.97848632812497,-57.65032277929687C-223.984486328125,-57.88835377929688,-224.179486328125,-58.07803977929687,-224.417486328125,-58.077959779296876C-224.65848632812498,-58.08446777929687,-224.85648632812502,-57.89109177929687,-224.85648632812502,-57.65032277929687L-224.85648632812502,-29.703548779296874L-230.184486328125,-16.862848779296876L-232.623486328125,-16.862848779296876L-232.623486328125,-12.343748779296874L-232.04548632812498,-12.343748779296874L-231.62948632812498,-12.181948779296874L-231.54848632812502,-12.355348779296875L-227.318486328125,-12.355348779296875L-227.318486328125,-12.020148779296875L-235.409486328125,-12.020148779296875L-236.56448632812499,33.63305122070312L-238.55248632812498,33.63305122070312L-238.55248632812498,31.726051220703127L-238.71448632812502,31.726051220703127L-238.71448632812502,33.644651220703125L-241.835486328125,33.644651220703125L-241.835486328125,31.726051220703127L-242.008486328125,31.726051220703127L-242.008486328125,33.644651220703125L-245.12948632812498,33.644651220703125L-245.12948632812498,31.726051220703127L-245.29048632812498,31.726051220703127L-245.29048632812498,33.644651220703125L-246.56248632812498,33.644651220703125L-246.56248632812498,25.034151220703123C-246.59448632812502,22.96855122070312,-248.287486328125,21.316351220703126,-250.35348632812497,21.335651220703127L-262.361486328125,21.335651220703127C-264.43048632812497,21.309951220703127,-266.127486328125,22.96585122070313,-266.152486328125,25.034151220703123L-266.152486328125,77.30975122070313L-266.55748632812504,77.30975122070313L-270.16348632812503,77.54075122070313L-270.16348632812503,75.22975122070312C-270.16348632812503,75.14875122070313,-270.313486328125,75.14875122070313,-270.313486328125,75.22975122070312L-270.313486328125,77.54075122070313L-273.237486328125,77.54075122070313L-273.237486328125,75.22975122070312C-273.237486328125,75.14875122070313,-273.399486328125,75.14875122070313,-273.399486328125,75.22975122070312L-273.399486328125,77.54075122070313L-276.323486328125,77.54075122070313L-276.323486328125,75.22975122070312C-276.323486328125,75.14875122070313,-276.473486328125,75.14875122070313,-276.473486328125,75.22975122070312L-276.473486328125,77.54075122070313L-279.397486328125,77.54075122070313L-279.397486328125,75.22975122070312C-279.397486328125,75.14875122070313,-279.548486328125,75.14875122070313,-279.548486328125,75.22975122070312L-279.548486328125,77.54075122070313L-282.345486328125,77.54075122070313L-282.345486328125,75.22975122070312C-282.345486328125,75.14875122070313,-282.50748632812497,75.14875122070313,-282.50748632812497,75.22975122070312L-282.50748632812497,77.54075122070313L-282.73848632812496,77.54075122070313C-282.782486328125,77.54075122070313,-282.819486328125,77.57775122070314,-282.819486328125,77.62175122070312L-282.819486328125,77.77275122070313L-282.819486328125,84.20975122070311L-283.77848632812504,84.20975122070311L-283.77848632812504,81.58675122070312C-283.77848632812504,81.54775122070313,-283.809486328125,81.51675122070313,-283.847486328125,81.51675122070313L-285.176486328125,81.51675122070313Q-285.25748632812497,81.51675122070313,-285.25748632812497,81.58675122070312L-285.25748632812497,91.01775122070313L-286.228486328125,91.01775122070313L-286.228486328125,76.70875122070314C-286.234486328125,76.66875122070311,-286.269486328125,76.63875122070311,-286.309486328125,76.63975122070312L-287.15348632812504,76.63975122070312C-287.193486328125,76.63875122070311,-287.228486328125,76.66875122070311,-287.234486328125,76.70875122070314L-287.234486328125,82.81175122070312L-289.996486328125,82.81175122070312L-289.996486328125,87.83875122070313L-292.13448632812504,87.83875122070313L-292.13448632812504,-15.279448779296878L-310.349486328125,-15.279448779296878L-310.349486328125,87.83875122070313L-314.371486328125,87.83875122070313L-314.371486328125,47.86075122070312L-327.917486328125,57.92775122070313L-327.917486328125,45.21375122070313C-327.949486328125,43.14875122070312,-329.64248632812496,41.496151220703126,-331.708486328125,41.51555122070313L-342.746486328125,41.51555122070313C-344.814486328125,41.48985122070313,-346.511486328125,43.14575122070312,-346.537486328125,45.21375122070313L-346.537486328125,72.27075122070312L-353.668486328125,72.27075122070312L-353.668486328125,76.01575122070312L-356.71948632812496,76.01575122070312L-356.71948632812496,85.52775122070312L-358.568486328125,85.52775122070312L-358.568486328125,81.26275122070314C-358.568486328125,81.15575122070314,-358.65848632812504,81.07075122070313,-358.765486328125,81.07775122070314L-359.921486328125,81.07775122070314L-359.921486328125,75.42575122070312C-359.92748632812504,75.32175122070313,-360.013486328125,75.24075122070312,-360.117486328125,75.24075122070312L-360.314486328125,75.24075122070312L-360.314486328125,68.82675122070313C-360.30748632812504,68.72475122070313,-360.385486328125,68.63675122070312,-360.487486328125,68.62975122070313L-360.603486328125,68.62975122070313L-360.603486328125,62.215751220703126C-360.600486328125,62.12875122070312,-360.657486328125,62.051751220703125,-360.741486328125,62.030751220703124L-360.845486328125,62.030751220703124L-360.845486328125,49.89475122070313C-360.851486328125,49.79075122070313,-360.938486328125,49.709751220703126,-361.042486328125,49.709751220703126L-361.342486328125,49.709751220703126C-361.446486328125,49.709751220703126,-361.53348632812504,49.79075122070313,-361.539486328125,49.89475122070313L-361.539486328125,62.01875122070312L-361.758486328125,62.01875122070312C-361.873486328125,62.01275122070312,-361.972486328125,62.10075122070313,-361.978486328125,62.215751220703126L-361.978486328125,68.62975122070313L-362.140486328125,68.62975122070313C-362.253486328125,68.62375122070313,-362.348486328125,68.71375122070313,-362.348486328125,68.82675122070313L-362.348486328125,75.24075122070312L-362.660486328125,75.24075122070312C-362.76248632812496,75.24075122070312,-362.845486328125,75.32375122070312,-362.845486328125,75.42575122070312L-362.845486328125,81.07775122070314L-364.151486328125,81.07775122070314C-364.255486328125,81.07775122070314,-364.34148632812503,81.15875122070312,-364.347486328125,81.26275122070314L-364.347486328125,85.52775122070312L-369.421486328125,85.52775122070312C-369.52848632812504,85.52075122070312,-369.61848632812496,85.60575122070313,-369.61848632812496,85.71275122070313L-369.61848632812496,91.06375122070312C-369.61848632812496,91.17075122070312,-369.52848632812504,91.25575122070313,-369.421486328125,91.24875122070313L-368.728486328125,91.24875122070313L-368.728486328125,93.20175122070313L-369.421486328125,93.20175122070313C-369.530486328125,93.20175122070313,-369.61848632812496,93.28975122070312,-369.61848632812496,93.39875122070313L-369.61848632812496,110.24975122070313L-373.258486328125,110.24975122070313L-373.258486328125,100.47175122070311L-373.524486328125,100.47175122070311L-373.524486328125,98.92275122070313L-380.03148632812497,92.56575122070313L-381.545486328125,94.03375122070312L-383.117486328125,92.46175122070312L-383.117486328125,89.68875122070312L-385.371486328125,89.68875122070312L-385.371486328125,87.37675122070311L-387.682486328125,87.37675122070311L-387.682486328125,79.49475122070314L-389.347486328125,79.49475122070314L-389.405486328125,94.86675122070312L-395.738486328125,94.86675122070312L-395.738486328125,124.37375122070313L-400.731486328125,124.37375122070313L-400.731486328125,96.41475122070312L-402.049486328125,96.41475122070312L-402.049486328125,90.75175122070311L-405.227486328125,90.75175122070311L-405.227486328125,92.73975122070311L-405.227486328125,96.41475122070312L-406.915486328125,96.41475122070312L-406.915486328125,111.54375122070311L-415.941786328125,111.54375122070311L-415.941786328125,105.55675122070312C-415.941386328125,105.51675122070313,-415.970986328125,105.48175122070313,-416.011086328125,105.47675122070314L-416.646786328125,105.47675122070314L-416.646786328125,99.84775122070312C-416.671786328125,99.83275122070313,-416.702586328125,99.83275122070313,-416.727686328125,99.84775122070312L-417.663886328125,99.84775122070312L-417.663886328125,98.69175122070311L-421.593486328125,91.95375122070311L-421.593486328125,91.30675122070312C-421.593486328125,91.26175122070313,-421.629686328125,91.22575122070313,-421.674386328125,91.22575122070313L-421.90558632812497,91.22575122070313L-424.494486328125,86.79875122070314C-424.527586328125,86.78375122070312,-424.565486328125,86.78375122070312,-424.598486328125,86.79875122070314L-427.18748632812503,91.22575122070313L-427.349286328125,91.22575122070313C-427.371586328125,91.14575122070312,-427.454386328125,91.09875122070312,-427.534186328125,91.12175122070312C-427.613986328125,91.14375122070314,-427.660586328125,91.22675122070314,-427.638186328125,91.30675122070312L-427.638186328125,91.64175122070313L-431.62568632812497,98.46075122070312L-431.62568632812497,99.61675122070312L-432.561786328125,99.61675122070312C-432.599486328125,99.62275122070312,-432.630486328125,99.64975122070314,-432.642686328125,99.68575122070314L-432.642686328125,105.31475122070313L-433.266886328125,105.31475122070313C-433.31158632812503,105.31475122070313,-433.347786328125,105.35075122070313,-433.347786328125,105.39575122070312L-433.347786328125,116.73375122070311L-436.583986328125,116.73375122070311L-436.583986328125,102.12475122070313L-443.368386328125,102.12475122070313L-443.368386328125,71.50775122070311L-450.383986328125,71.50775122070311L-450.383986328125,66.37675122070313L-451.470386328125,66.37675122070313L-451.470386328125,71.50775122070311L-453.689486328125,71.50775122070311L-453.689486328125,79.74875122070313L-454.267386328125,79.74875122070313L-454.267386328125,79.84075122070311L-461.941786328125,79.84075122070311L-461.941786328125,80.17675122070312L-461.941786328125,93.25975122070312L-462.103586328125,93.25975122070312L-462.854886328125,93.25975122070312L-462.854886328125,93.61775122070313L-462.854886328125,103.82375122070312L-463.074486328125,103.71975122070313C-463.565886328125,103.50475122070313,-464.088986328125,103.37275122070312,-464.623086328125,103.32675122070313L-464.761786328125,103.32675122070313L-464.935186328125,100.24075122070312L-465.443686328125,100.24075122070312L-465.628586328125,103.31475122070313L-465.778886328125,103.31475122070313C-467.989186328125,103.53175122070311,-469.760086328125,105.23975122070311,-470.055286328125,107.44075122070313L-470.055286328125,107.57975122070312L-471.211086328125,107.57975122070312L-471.211086328125,113.16175122070314L-472.806086328125,113.16175122070314L-472.806086328125,124.46575122070311L-473.869386328125,124.46575122070311L-473.869386328125,120.99875122070313L-474.320086328125,120.99875122070313L-474.320086328125,120.77875122070313L-474.724686328125,120.77875122070313L-474.724686328125,120.59375122070313C-474.71898632812497,120.49775122070312,-474.71898632812497,120.40075122070311,-474.724686328125,120.30475122070314C-474.732886328125,119.63675122070313,-475.220586328125,119.07075122070313,-475.880386328125,118.96375122070313L-476.019086328125,118.96375122070313L-476.019086328125,113.26575122070312L-477.960786328125,113.26575122070312L-477.960786328125,83.11175122070313L-478.492486328125,83.11175122070313L-478.492486328125,82.17575122070312C-478.524186328125,80.11075122070312,-480.217786328125,78.45775122070313,-482.283386328125,78.47775122070311L-488.859786328125,78.47775122070311C-490.925486328125,78.45775122070313,-492.618986328125,80.11075122070312,-492.650786328125,82.17575122070312L-492.650786328125,83.11175122070313L-493.806486328125,83.11175122070313L-493.806486328125,120.95175122070313L-495.563286328125,120.95175122070313L-495.563286328125,120.87175122070312C-496.140486328125,119.90975122070313,-497.180586328125,119.32075122070313,-498.302486328125,119.32275122070311C-499.422086328125,119.31875122070312,-500.460046328125,119.90775122070312,-501.030106328125,120.87175122070312L-501.030106328125,120.95175122070313L-503.052726328125,120.95175122070313L-503.052726328125,125.45975122070311L-505.029096328125,123.54075122070313L-507.930106328125,123.54075122070313L-507.930106328125,126.43075122070312L-509.247715328125,126.43075122070312L-509.247715328125,149.38475122070312L-505.098476328125,149.38475122070312L-505.098476328125,149.53475122070313L-487.530586328125,149.53475122070313L-480.977386328125,149.53475122070313L-480.977386328125,149.64975122070314L-468.402486328125,149.64975122070314L-468.402486328125,149.49975122070313L-466.657186328125,149.49975122070313L-466.657186328125,149.66175122070314L-411.792386328125,149.66175122070314C-411.755386328125,149.66375122070312,-411.722086328125,149.63975122070312,-411.71148632812503,149.60375122070312L-411.71148632812503,149.49975122070313L-409.18048632812497,149.49975122070313L-409.18048632812497,149.6387512207031L-399.00948632812504,149.6387512207031L-399.00948632812504,149.49975122070313L-398.83648632812503,149.49975122070313L-397.68048632812497,149.49975122070313L-397.68048632812497,149.66175122070314L-350.905486328125,149.66175122070314C-350.842486328125,149.66075122070313,-350.782486328125,149.63075122070313,-350.744486328125,149.58075122070312L-350.744486328125,149.49975122070313L-347.369486328125,149.49975122070313L-347.369486328125,149.64975122070314L-290.955486328125,149.64975122070314L-290.955486328125,149.51175122070313L-290.793486328125,149.51175122070313L-287.326486328125,149.51175122070313L-287.326486328125,149.60375122070312L-287.210486328125,149.60375122070312L-282.426486328125,149.60375122070312C-282.00748632812497,149.64975122070314,-281.58448632812497,149.64975122070314,-281.16648632812496,149.60375122070312L-279.698486328125,149.60375122070312C-279.46648632812503,149.65575122070314,-279.225486328125,149.65575122070314,-278.99348632812496,149.60375122070312L-277.386486328125,149.60375122070312C-276.126486328125,150.20675122070313,-274.660486328125,150.20675122070313,-273.399486328125,149.60375122070312L-262.81248632812503,149.60375122070312L-262.696486328125,149.60375122070312L-262.696486328125,149.51175122070313L-262.58148632812504,149.51175122070313L-258.80248632812504,149.51175122070313L-258.80248632812504,149.60375122070312C-258.779486328125,149.64675122070312,-258.73548632812503,149.67375122070314,-258.686486328125,149.67375122070314L-239.03848632812497,149.67375122070314L-238.98048632812498,149.67375122070314L-208.67548632812498,149.67375122070314C-208.602486328125,149.67475122070311,-208.53348632812498,149.64075122070312,-208.49048632812497,149.58075122070312L-208.49048632812497,149.51175122070313L-204.52648632812497,149.51175122070313L-204.52648632812497,149.67375122070314L-184.751486328125,149.67375122070314L-184.751486328125,149.51175122070313L-180.821486328125,149.51175122070313L-180.821486328125,149.66175122070314L-117.854486328125,149.66175122070314L-117.77348632812499,149.66175122070314C-110.70048632812501,149.66175122070314,-104.609486328125,149.66175122070314,-99.65148632812497,149.66175122070314L-11.291486328125018,149.66175122070314L-11.291486328125018,149.52275122070313L-11.130486328125016,149.52275122070313L-9.812486328124976,149.52275122070313L-9.812486328124976,149.67375122070314L15.614513671874988,149.67375122070314L15.614513671874988,149.53475122070313L15.776513671875023,149.53475122070313L37.736513671874945,149.53475122070313L37.713513671875035,150.48275122070314ZM-148.61048632812498,134.13975122070312L-149.24548632812503,134.13975122070312L-149.24548632812503,132.41775122070314L-148.933486328125,132.41775122070314L-148.61048632812498,134.13975122070312ZM-222.16348632812497,-12.008648779296877L-224.08248632812501,-12.008648779296877L-224.08248632812501,-12.343748779296874L-222.210486328125,-12.343748779296874L-222.16348632812497,-12.008648779296877ZM-224.960486328125,-12.008648779296877L-226.994486328125,-12.008648779296877L-226.994486328125,-12.343748779296874L-224.99548632812503,-12.343748779296874L-224.960486328125,-12.008648779296877ZM-219.181486328125,-16.862848779296876L-222.31448632812499,-16.862848779296876L-223.74748632812498,-27.842748779296876L-219.181486328125,-16.862848779296876ZM-222.03648632812502,-17.174948779296876L-219.59848632812498,-17.174948779296876L-223.06548632812502,-25.554348779296873L-222.03648632812502,-17.174948779296876ZM-222.799486328125,-16.862848779296876L-224.08248632812501,-16.862848779296876L-224.08248632812501,-24.375448779296875L-223.78148632812503,-24.375448779296875L-222.799486328125,-16.862848779296876ZM-223.78148632812503,-17.174948779296876L-223.14648632812498,-17.174948779296876L-223.78148632812503,-21.959848779296877L-223.78148632812503,-17.174948779296876ZM-224.93748632812498,-16.862848779296876L-226.33648632812498,-16.862848779296876L-225.249486328125,-25.265448779296875L-224.93748632812498,-25.265448779296875L-224.93748632812498,-16.862848779296876ZM-225.989486328125,-17.174948779296876L-225.249486328125,-17.174948779296876L-225.249486328125,-22.826748779296878L-225.989486328125,-17.174948779296876ZM-226.821486328125,-16.862848779296876L-229.768486328125,-16.862848779296876L-225.48048632812498,-27.183948779296873L-226.821486328125,-16.862848779296876ZM-229.29548632812498,-17.174948779296876L-227.099486328125,-17.174948779296876L-226.09348632812498,-24.883948779296873L-229.29548632812498,-17.174948779296876Z" fill="#AAA9A9" fill-opacity="1"/></g></g></g></g></g></svg>