<svg xmlns="http://www.w3.org/2000/svg" xmlns:xlink="http://www.w3.org/1999/xlink" fill="none" version="1.1" width="27" height="19" viewBox="0 0 27 19"><defs><clipPath id="master_svg0_1070_1507"><rect x="0" y="0" width="27" height="19" rx="0"/></clipPath><clipPath id="master_svg1_1070_1516"><g><rect x="-486.3978271484375" y="-38.63151931762695" width="408.38153076171875" height="243.44210815429688" rx="0" fill="#FFFFFF" fill-opacity="1"/></g></clipPath><radialGradient cx="0" cy="0" r="1" gradientUnits="userSpaceOnUse" id="master_svg2_1011_1453" gradientTransform="translate(-185.67460100194148 80.50231589183204) rotate(0) scale(641.8516742234497 1466.8195410765816)"><stop offset="20.999999344348907%" stop-color="#FFFFFF" stop-opacity="1"/><stop offset="100%" stop-color="#000000" stop-opacity="1"/></radialGradient><clipPath id="master_svg3_1070_1519"><g><rect x="-486.3978271484375" y="-38.63151931762695" width="408.38153076171875" height="243.44210815429688" rx="0" fill="#FFFFFF" fill-opacity="1"/></g></clipPath></defs><g clip-path="url(#master_svg0_1070_1507)"><g><path d="M25.2621,3.49474L1.73788,3.49474C0.778077,3.49474,0,2.71241,0,1.74737C0,0.782323,0.778077,0,1.73788,0L25.2621,0C26.2219,0,27,0.782323,27,1.74737C27,2.71241,26.2219,3.49474,25.2621,3.49474ZM1.73788,0.778947C1.20594,0.778947,0.774719,1.21252,0.774719,1.74737C0.774719,2.28221,1.20594,2.71579,1.73788,2.71579L25.2621,2.71579C25.7941,2.71579,26.2253,2.28221,26.2253,1.74737C26.2253,1.21252,25.7941,0.778947,25.2621,0.778947L1.73788,0.778947Z" fill="#9F291F" fill-opacity="1"/></g><g><path d="M23.91163056640625,19.0000326171875L3.14075056640625,19.0000326171875C2.50260956640625,19.0298326171875,1.96017266640625,18.536132617187498,1.92633056640625,17.8947326171875L1.92633056640625,3.1579066171875C1.92633069120825,2.9428056171875,2.09975756640625,2.7684326171875,2.31368956640625,2.7684326171875L24.68633056640625,2.7684326171875C24.89863056640625,2.7683497980875,25.06913056640625,2.9445206171875,25.06323056640625,3.1579066171875L25.06323056640625,17.8947326171875C25.04053056640625,18.5160326171875,24.52993056640625,19.0061326171875,23.91163056640625,19.0000326171875ZM2.70104956640625,3.4947486171874997L2.70104956640625,17.8947326171875C2.7009675664062502,18.1082326171875,2.87618256640625,18.279632617187502,3.08841056640625,18.2737326171875L23.91163056640625,18.2737326171875C24.12153056640625,18.2737326171875,24.29333056640625,18.1057326171875,24.29893056640625,17.8947326171875L24.29893056640625,3.4947486171874997L2.70104956640625,3.4947486171874997Z" fill="#9F291F" fill-opacity="1"/></g><g><path d="M8.103140751953125,9.3052742578125L4.627379751953125,9.3052742578125C4.413447751953125,9.3052742578125,4.240020751953125,9.1309042578125,4.240020751953125,8.9157942578125L4.240020751953125,5.4315882578125C4.240020751953125,5.2164872578125,4.413447751953125,5.0421142578125,4.627379751953125,5.0421142578125L8.103140751953125,5.0421142578125C8.315450751953126,5.0420324426125,8.485930751953125,5.2182032578125,8.480030751953125,5.4315882578125L8.480030751953125,8.9157942578125C8.485930751953125,9.1291842578125,8.315450751953126,9.3053542578125,8.103140751953125,9.3052742578125ZM5.014739751953125,8.526324257812501L7.715790751953125,8.526324257812501L7.715790751953125,5.8210622578125L5.014739751953125,5.8210622578125L5.014739751953125,8.526324257812501Z" fill="#9F291F" fill-opacity="1"/></g><g><rect x="10.416839599609375" y="5.821044921875" width="6.846839904785156" height="0.7789474129676819" rx="0" fill="#9F291F" fill-opacity="1"/></g><g><rect x="10.416839599609375" y="8.1473388671875" width="12.343156814575195" height="0.7789474129676819" rx="0" fill="#9F291F" fill-opacity="1"/></g><g><path d="M8.103161435546875,15.8842394921875L4.627399435546875,15.8842394921875C4.415786435546875,15.8787194921875,4.245538825546875,15.7075394921875,4.240040034546875,15.4947694921875L4.240040034546875,12.0000314921875C4.228176835546875,11.7750394921875,4.403383435546875,11.5845931221875,4.627399435546875,11.5789794921875L8.103161435546875,11.5789794921875C8.313001435546875,11.5846834721875,8.480131435546875,11.7573974921875,8.480051435546875,11.9684534921875L8.480051435546875,15.4631894921875C8.498181435546876,15.6863794921875,8.325821435546874,15.878929492187499,8.103161435546875,15.8842394921875ZM5.014758435546875,15.1052994921875L7.715801435546875,15.1052994921875L7.715801435546875,12.3895064921875L5.014758435546875,12.3895064921875L5.014758435546875,15.1052994921875Z" fill="#9F291F" fill-opacity="1"/></g><g><rect x="10.416839599609375" y="12.3895263671875" width="6.846839904785156" height="0.7789474129676819" rx="0" fill="#9F291F" fill-opacity="1"/></g><g><rect x="10.416839599609375" y="14.7156982421875" width="12.343156814575195" height="0.7789474129676819" rx="0" fill="#9F291F" fill-opacity="1"/></g><g><g clipPath="url(#master_svg1_1070_1516)"><g style="opacity:0.6000000238418579;"><rect x="-486.38739013671875" y="-53.15788650512695" width="592.492431640625" height="259.2631530761719" rx="0" fill="url(#master_svg2_1011_1453)" fill-opacity="1"/></g></g><g><g clipPath="url(#master_svg3_1070_1519)"><g><path d="M68.68857421874998,194.51545626831054L40.04457421874997,194.51545626831054L40.04457421874997,193.68445626831056L20.582574218749983,193.68445626831056C20.52457421874999,193.77345626831055,20.426574218749977,193.82845626831056,20.320574218749982,193.83145626831055L-2.71142578125,193.83145626831055C-2.8184257812500277,193.83245626831055,-2.9174257812500173,193.77645626831054,-2.9734257812500005,193.68445626831056L-3.8214257812500136,193.68445626831056C-3.8764257812500205,193.77645626831054,-3.9764257812499864,193.83245626831055,-4.083425781250014,193.83145626831055L-83.93142578125003,193.83145626831055C-88.41242578125002,193.83145626831055,-93.91942578125003,193.83145626831055,-100.30542578125,193.83145626831055C-100.35642578124998,193.84645626831053,-100.41042578125001,193.84645626831053,-100.46242578124998,193.83145626831055L-157.46642578125,193.83145626831055C-157.57242578125,193.82845626831056,-157.67042578125,193.77345626831055,-157.72842578125,193.68445626831056L-160.77542578125002,193.68445626831056L-160.77542578125002,193.82145626831056L-179.25342578124997,193.82145626831056L-179.25342578124997,193.68445626831056L-182.39442578125,193.68445626831056C-182.48842578125,193.77945626831055,-182.61642578124997,193.83245626831055,-182.75042578125,193.83145626831055L-228.05042578125,193.83145626831055C-228.16842578125,193.83145626831055,-228.28042578125,193.77745626831054,-228.35342578125,193.68445626831056L-231.49442578125,193.68445626831056L-231.49442578125,193.77945626831055L-231.56742578125,193.77945626831055L-231.56742578125,193.83145626831055L-241.36642578125,193.83145626831055C-242.57142578125,194.41045626831055,-243.97242578125,194.41045626831055,-245.17742578125,193.83145626831055L-246.50742578125,193.83145626831055C-246.73242578125,193.87345626831055,-246.96242578125,193.87345626831055,-247.18742578125,193.83145626831055L-248.38142578125,193.83145626831055C-248.76742578125,193.87345626831055,-249.15742578125,193.87345626831055,-249.54342578125,193.83145626831055L-254.16042578125,193.83145626831055L-254.16042578125,193.68445626831056L-254.21242578125,193.63145626831056L-257.12242578125,193.63145626831056C-257.17842578125,193.72345626831054,-257.27742578125003,193.77945626831055,-257.38442578125,193.77945626831055L-308.46342578125,193.77945626831055C-308.57042578125004,193.77945626831055,-308.67042578125,193.72345626831054,-308.72542578125,193.63145626831056L-311.39542578124997,193.63145626831056C-311.48142578125,193.72645626831056,-311.60242578124996,193.77945626831055,-311.73042578125,193.77945626831055L-354.38142578125,193.77945626831055L-354.38142578125,193.68445626831056L-355.02042578124997,193.68445626831056C-355.07342578124997,193.77345626831055,-355.16842578125,193.82845626831056,-355.27142578125,193.83145626831055L-364.46332578125,193.83145626831055C-364.57142578125,193.83745626831055,-364.67312578125,193.77945626831055,-364.72512578125,193.68445626831056L-366.59902578125,193.68445626831056C-366.66832578125,193.77745626831054,-366.77692578125,193.83145626831055,-366.89222578125,193.83145626831055L-416.87202578125,193.83145626831055L-416.87202578125,193.68445626831056L-417.91892578125,193.68445626831056C-417.96212578125,193.77345626831055,-418.05112578125,193.82945626831054,-418.14932578125,193.83145626831055L-429.60252578125,193.83145626831055C-429.68452578125,193.83045626831054,-429.76152578125,193.79145626831055,-429.81192578125,193.72645626831056L-435.80032578125,193.72645626831056L-451.70299578125,193.72645626831056L-451.70299578125,193.57945626831054L-455.46142578125,193.57945626831054L-455.46142578125,172.05245626831055L-454.26792578125,172.05245626831055L-454.26792578125,169.47345626831054L-451.23186578125,169.47345626831054L-449.84993578125,170.83145626831055L-449.84993578125,167.11545626831054L-447.90268578125,167.11545626831054C-447.32561578125,166.18745626831054,-446.31144578125,165.62545626831056,-445.22252578125,165.63145626831056C-444.13372578125,165.62545626831056,-443.11952578125,166.18745626831054,-442.54242578125,167.11545626831054L-441.41182578125,167.11545626831054L-441.41182578125,132.63145626831056L-440.31252578125,132.63145626831056L-440.31252578125,132.06345626831055C-440.28952578125,130.02245626831055,-438.62552578125,128.38745626831053,-436.59602578125,128.41045626831055L-430.63902578125,128.41045626831055C-428.60952578125,128.38745626831053,-426.94552578125,130.02245626831055,-426.92252578125,132.06345626831055L-426.92252578125,132.63145626831056L-426.40952578125,132.63145626831056L-426.40952578125,160.10545626831055L-424.65072578125,160.10545626831055L-424.65072578125,165.36845626831055C-423.95812578125,165.51945626831053,-423.45972578125,166.12945626831055,-423.44672578125,166.84245626831054C-423.44672578125,166.89445626831053,-423.44672578125,166.94745626831056,-423.44672578125,167.00045626831056L-423.39442578125,167.00045626831056C-423.27622578125,166.99845626831055,-423.17422578125,167.08345626831056,-423.15362578125,167.20045626831055L-422.97562578125,167.20045626831055C-422.84262578125,167.20045626831055,-422.73482578125,167.30845626831055,-422.73482578125,167.44245626831054L-422.73482578125,170.31545626831056L-422.38932578125,170.31545626831056L-422.38932578125,160.00045626831056L-420.94462578125,160.00045626831056L-420.94462578125,154.90545626831056L-419.81392578125,154.90545626831056C-419.49872578125,152.86845626831055,-417.87172578125,151.29345626831054,-415.83562578125,151.05245626831055L-415.66812578125,148.22145626831053L-414.67352578125,148.22145626831053L-414.50602578125,151.06345626831055C-414.14732578125,151.11745626831055,-413.79602578125,151.21245626831055,-413.45912578125,151.34745626831054L-413.45912578125,142.21045626831054L-413.45912578125,141.89445626831053L-412.63202578125,141.89445626831053L-412.63202578125,129.90545626831056L-412.63202578125,129.58945626831053L-405.68052578125,129.58945626831053L-405.68052578125,129.47345626831054L-405.16752578125,129.47345626831054L-405.16752578125,122.00045626831054L-403.06322578125,122.00045626831054L-403.06322578125,117.32645626831055L-401.51372578125,117.32645626831055L-401.51372578125,122.00045626831054L-395.15892578125,122.00045626831054L-395.15892578125,149.88445626831054L-389.01362578124997,149.88445626831054L-389.01362578124997,163.15845626831054L-386.64752578125,163.15845626831054L-386.64752578125,153.27345626831055C-386.64762578125,153.07745626831056,-386.48652578125,152.92045626831055,-386.29162578125,152.92645626831055L-386.00892578125,152.92645626831055L-386.00892578125,148.07345626831054C-386.02432578125,148.02245626831055,-386.02432578125,147.96745626831054,-386.00892578125,147.91545626831055C-385.97822578125,147.74945626831055,-385.83222578125003,147.62845626831054,-385.66342578125,147.63145626831056L-385.09812578125,147.63145626831056L-385.09812578125,146.83145626831055C-385.09532578125,146.77245626831055,-385.07732578125,146.71445626831056,-385.04582578125,146.66345626831054L-381.46532578125,140.48445626831054L-381.46532578125,140.25245626831054C-381.41532578125,140.08445626831056,-381.25122578125,139.97745626831053,-381.07792578125,140.00045626831056L-378.80612578125,136.10545626831055C-378.74392578125,136.00045626831056,-378.63412578125,135.93345626831055,-378.51302578125,135.92645626831055L-378.38732578125,135.92645626831055C-378.30492578125,135.95445626831054,-378.23462578125,136.01045626831055,-378.18842578125,136.08445626831056L-375.92712578124997,139.97945626831054C-375.73452578125,139.97945626831054,-375.57682578125,140.13245626831053,-375.57112578125,140.32645626831055L-375.57112578125,140.67345626831056L-372.04302578125,146.73745626831055C-372.02732578125,146.79245626831056,-372.02732578125,146.85045626831055,-372.04302578125,146.90545626831056L-372.04302578125,147.70545626831054L-371.47772578125,147.70545626831054C-371.32792578125,147.70145626831055,-371.19262578125,147.79445626831054,-371.14272578124996,147.93745626831054C-371.09142578125,147.99545626831053,-371.06182578125,148.06945626831055,-371.05892578124997,148.14745626831055L-371.05892578124997,153.00045626831056L-370.78672578124997,153.00045626831056C-370.59182578125,152.99445626831056,-370.43072578125,153.15145626831054,-370.43082578125,153.34745626831054L-370.43082578125,158.51545626831054L-362.81972578125,158.51545626831054L-362.81972578125,144.98945626831053C-362.81412578125,144.82545626831055,-362.67982578125,144.69445626831055,-362.51612578125,144.69445626831055L-361.18652578125,144.69445626831055L-361.18652578125,143.88445626831054C-361.18832578125,143.86345626831056,-361.18832578125,143.84245626831054,-361.18652578125,143.82145626831056Q-361.18652578125,143.82145626831056,-361.18652578125,143.75845626831054L-361.18652578125,141.70545626831054Q-361.18652578125,141.70545626831054,-361.18652578125,141.64245626831055C-361.18652578125,141.57945626831054,-361.18652578125,141.58945626831056,-361.18652578125,141.57945626831054L-361.18652578125,139.84245626831054C-361.18652578125,139.67345626831056,-361.05062578125,139.53745626831054,-360.88292578125,139.53745626831054L-358.04572578125,139.53745626831054C-357.87812578125,139.53745626831054,-357.74222578125,139.67345626831056,-357.74212578125,139.84245626831054L-357.74212578125,144.69445626831055L-356.85232578125,144.69445626831055C-356.68862578125,144.69445626831055,-356.55432578125,144.82545626831055,-356.54862578125,144.98945626831053L-356.54862578125,170.17945626831056L-352.60142578125,170.17945626831056L-352.60142578125,143.30545626831054L-346.85442578125003,143.30545626831054L-346.80142578125003,129.30545626831054L-344.70842578125,129.30545626831054L-344.70842578125,136.45245626831056L-342.61442578125,136.45245626831056L-342.61442578125,138.55845626831055L-340.57242578125,138.55845626831055L-340.57242578125,141.27345626831055L-339.42142578125,142.40045626831053L-338.04942578124997,141.05245626831055L-331.87242578125,147.12645626831053L-331.87242578125,148.42145626831055L-331.63242578125,148.42145626831055L-331.63242578125,157.33745626831055L-328.89942578125,157.33745626831055L-328.89942578125,142.28445626831055C-328.89942578125,142.03045626831056,-328.69142578125,141.82545626831055,-328.43942578125,141.83145626831055L-328.09342578125,141.83145626831055L-328.09342578125,140.61045626831054L-328.43942578125,140.61045626831054C-328.69142578125,140.61645626831054,-328.89942578125,140.41245626831054,-328.89942578125,140.15845626831054L-328.89942578125,135.26345626831053C-328.89442578125,135.01145626831055,-328.68942578125,134.81045626831056,-328.43942578125,134.81045626831056L-324.12542578125,134.81045626831056L-324.12542578125,131.20045626831055C-324.12042578125,130.94845626831057,-323.91542578125,130.74745626831054,-323.66542578125,130.74745626831054L-322.76442578125,130.74745626831054L-322.76442578125,125.88445626831054C-322.76442578125,125.63445626831054,-322.56342578125,125.43145626831054,-322.31442578125,125.43145626831054L-322.31442578125,119.86345626831054C-322.31542578125004,119.65845626831054,-322.17742578125,119.48045626831055,-321.97942578125003,119.43145626831054L-321.97942578125003,113.84245626831054C-321.97642578125,113.63945626831055,-321.83942578125,113.46245626831055,-321.64442578125,113.41045626831054L-321.64442578125,102.63165626831055C-321.63842578125,102.38005626831055,-321.43442578125,102.17905626831055,-321.18342578125,102.17905626831055L-320.91142578125,102.17905626831055C-320.66142578125,102.17895626831054,-320.45642578125,102.38005626831055,-320.45142578125,102.63165626831055L-320.45142578125,113.45245626831054C-320.31642578125,113.53545626831054,-320.23342578125,113.68345626831055,-320.23142578125,113.84245626831054L-320.23142578125,119.44245626831055C-320.06142578125,119.51345626831055,-319.95042578125003,119.67845626831054,-319.94842578124997,119.86345626831054L-319.94842578124997,125.44245626831055C-319.74542578125,125.49345626831055,-319.60042578125,125.67345626831055,-319.59242578125,125.88445626831054L-319.59242578125,130.74745626831054L-318.79642578125004,130.74745626831054C-318.54442578124997,130.74145626831054,-318.33642578125,130.94645626831056,-318.33642578125,131.20045626831055L-318.33642578125,134.81045626831056L-317.21642578125,134.81045626831056L-317.21642578125,126.13745626831054L-314.45242578125,126.13745626831054L-314.45242578125,122.71545626831055L-307.97142578125,122.71545626831055L-307.97142578125,98.32645626831055C-307.91442578125,96.31895626831054,-306.27342578125,94.72475626831054,-304.27642578125,94.73695626831055L-294.27842578125,94.73695626831055C-292.25242578125,94.71355626831054,-290.59042578125,96.34265626831055,-290.56142578125,98.37905626831055L-290.56142578125,109.43145626831054L-278.29142578125004,100.26325626831054L-278.29142578125004,137.00045626831056L-275.28742578125,137.00045626831056L-275.28742578125,42.97905626831054L-258.20142578125,42.97905626831054L-258.20142578125,136.94745626831056L-256.84042578125,136.94745626831056L-256.84042578125,132.32645626831055L-254.33842578125,132.32645626831055L-254.33842578125,127.06345626831055C-254.33842578125,126.86545626831055,-254.17842578125,126.70545626831054,-253.98242578125,126.70545626831054L-253.21842578125,126.70545626831054C-253.02142578125,126.70545626831054,-252.86242578125,126.86545626831055,-252.86242578125,127.06345626831055L-252.86242578125,139.81045626831056L-252.54842578125,139.81045626831056L-252.54842578125,131.49445626831056C-252.54242578125,131.30145626831055,-252.38442578125,131.14745626831055,-252.19242578125,131.14745626831055L-250.98842578125,131.14745626831055C-250.79542578125,131.14745626831055,-250.63742578125,131.30145626831055,-250.63242578125,131.49445626831056L-250.63242578125,133.68445626831056L-250.34942578125,133.68445626831056L-250.34942578125,128.09445626831055C-250.36142578125,128.05045626831054,-250.36142578125,128.00245626831054,-250.34942578125,127.95845626831054L-250.34942578125,127.89445626831055C-250.35242578125,127.72545626831055,-250.23242578125,127.57845626831055,-250.06642578125,127.54745626831054L-250.06642578125,125.72645626831054C-250.06142578125,125.53245626831054,-249.90342578125,125.37945626831055,-249.71042578125,125.37945626831055C-249.51842578125,125.37945626831055,-249.36042578125,125.53245626831054,-249.35442578125,125.72645626831054L-249.35442578125,127.54745626831054L-247.38642578125,127.54745626831054L-247.38642578125,125.69445626831055C-247.38642578125,125.50445626831055,-247.23042578125,125.35245626831055,-247.04142578125,125.35845626831055C-246.85042578125,125.35245626831055,-246.69142578125,125.50345626831054,-246.68542578125,125.69445626831055L-246.68542578125,127.54745626831054L-244.59142578125,127.54745626831054L-244.59142578125,125.69445626831055C-244.58542578125,125.50345626831054,-244.42642578125,125.35245626831055,-244.23542578125,125.35845626831055C-244.04642578125,125.35245626831055,-243.88942578125,125.50445626831055,-243.89042578125,125.69445626831055L-243.89042578125,127.54745626831054L-241.79642578125,127.54745626831054L-241.79642578125,125.69445626831055C-241.79042578125,125.50345626831054,-241.63142578125,125.35245626831055,-241.44042578125,125.35845626831055C-241.24942578125,125.35245626831055,-241.08942578125,125.50345626831054,-241.08442578125,125.69445626831055L-241.08442578125,127.54745626831054L-238.99042578125,127.54745626831054L-238.99042578125,125.69445626831055C-238.98442578125,125.50345626831054,-238.82542578125,125.35245626831055,-238.63442578125,125.35845626831055C-238.44342578125,125.35245626831055,-238.28442578125,125.50345626831054,-238.27842578125,125.69445626831055L-238.27842578125,127.53745626831055L-235.21142578125,127.34745626831055L-235.21142578125,80.00015626831055C-235.18242578125,77.96195626831054,-233.52142578125,76.32995626831055,-231.49442578125,76.34745626831055L-220.74242578125,76.34745626831055C-218.71542578125,76.32985626831055,-217.05442578125,77.96195626831054,-217.02642578125,80.00015626831055L-217.02642578125,87.56855626831054L-216.43942578125,87.56855626831054L-216.43942578125,85.78955626831055L-215.71742578125,85.78955626831055L-215.71742578125,87.54745626831054L-213.45642578125,87.54745626831054L-213.45642578125,85.78955626831055L-212.73342578125,85.78955626831055L-212.73342578125,87.54745626831054L-210.43042578125,87.54745626831054L-210.43042578125,85.78955626831055L-209.71842578125,85.78955626831055L-209.71842578125,87.54745626831054L-208.47242578125,87.54745626831054L-207.47842578125,45.96855626831055L-204.89242578125,45.96855626831055L-204.89242578125,41.53695626831055L-202.59942578125,41.53695626831055L-197.86742578125,30.052756268310546L-197.86742578125,4.6316992683105465C-197.86142578124998,4.259612268310547,-197.55742578125,3.962681518310547,-197.18642578125002,3.968541597110547C-196.82042578124998,3.968496674010547,-196.52242578124998,4.263754268310547,-196.51642578125,4.6316992683105465L-196.51642578125,29.894856268310548L-191.70142578125,41.54745626831055L-189.49242578125,41.54745626831055L-189.49242578125,45.97905626831054L-185.38842578125002,45.97905626831054L-185.38842578125002,46.38955626831055L-184.49842578124998,83.75805626831054L-184.49842578124998,83.89485626831055L-184.49842578124998,84.21065626831054L-183.95342578125002,107.15845626831054L-172.94042578124998,107.15845626831054L-172.94042578124998,111.88445626831054L-163.21442578125,111.88445626831054L-163.21442578125,60.18955626831055L-150.58842578125,60.18955626831055L-150.58842578125,82.23165626831054L-150.09642578125,82.23165626831054L-150.09642578125,79.71595626831055C-150.09642578125,79.59435626831055,-150.02142578125,79.48565626831055,-149.90842578125,79.44225626831054L-148.86142578124998,79.03165626831054L-147.90842578125,79.03165626831054L-147.90842578125,78.52645626831055C-147.91442578124997,78.36115626831055,-147.77942578124998,78.22545626831055,-147.61542578125,78.23165626831054L-147.37442578125,78.23165626831054L-147.37442578125,77.44225626831054C-147.37442578125,77.27525626831054,-147.23742578125,77.14155626831055,-147.07142578125,77.14745626831055L-146.72542578125,77.14745626831055L-146.72542578125,75.09485626831055C-146.72442578124998,75.00935626831054,-146.68642578125002,74.92875626831055,-146.62042578125,74.87375626831054L-146.36942578125002,74.64225626831055L-146.36942578125002,72.74745626831054C-146.37142578125003,72.64785626831055,-146.31942578125,72.55515626831054,-146.23342578125,72.50535626831055L-145.92942578125002,72.29485626831055L-145.92942578125002,69.86325626831055C-145.92942578125002,69.76155626831054,-145.87842578124997,69.66675626831055,-145.79342578125,69.61065626831055L-145.63642578125,69.51595626831055L-145.63642578125,69.22115626831055L-145.82542578124998,69.09485626831055C-145.90742578125003,69.04215626831055,-145.95942578125,68.95125626831054,-145.96142578125,68.85275626831054L-145.96142578125,64.45275626831054C-145.95942578125,64.35665626831054,-145.91342578125,64.26695626831054,-145.83542578125002,64.21065626831054L-145.83542578125002,63.821156268310546L-145.89842578125,63.821156268310546C-146.06442578125,63.827156268310546,-146.20242578124999,63.69345626831055,-146.20242578124999,63.52645626831055L-146.20242578124999,62.926456268310545C-146.19642578125,62.76195626831055,-146.06242578125,62.63165626831055,-145.89842578125,62.63165626831055L-145.44842578125002,62.63165626831055L-145.44842578125002,62.42115626831055L-145.89842578125,62.42115626831055C-146.06442578125,62.42715626831055,-146.20242578124999,62.29345626831055,-146.20242578124999,62.12645626831055L-146.20242578124999,61.74745626831055C-146.20242578124999,61.580556268310545,-146.06442578125,61.446756268310544,-145.89842578125,61.452756268310544L-145.76242578125,61.452756268310544L-145.50042578125,61.24225626831055L-145.50042578125,60.54745626831055C-145.66542578125,60.55375626831054,-145.80042578125,60.41805626831054,-145.79342578125,60.25275626831055L-145.79342578125,59.75805626831055C-145.79342578125,59.59525626831055,-145.66242578125002,59.463256268310545,-145.50042578125,59.463256268310545L-145.09242578124997,59.463256268310545L-144.56842578125003,58.88435626831055L-144.46442578125,45.558056268310544C-144.58142578125,45.518056268310545,-144.66042578125,45.408656268310544,-144.66342578125,45.284356268310546L-144.66342578125,45.042256268310545C-144.65742578125003,44.87775626831055,-144.52342578125,44.74735626831055,-144.35942578125002,44.74745626831055L-144.17142578124998,44.74745626831055L-144.17142578124998,39.179056268310546C-144.25842578125003,39.102156268310544,-144.30842578124998,38.990656268310545,-144.30742578125,38.873756268310544C-144.30442578125002,38.67355626831055,-144.15842578125,38.504556268310544,-143.96142578125,38.473756268310545L-143.96142578125,35.31595626831054C-143.95642578125,35.09325626831055,-143.77442578125,34.91585626831055,-143.55342578124998,34.91595626831055C-143.32742578124999,34.91005626831055,-143.14042578124997,35.089156268310546,-143.13442578125,35.31595626831054L-143.13442578125,38.473756268310545C-142.93742578125,38.504556268310544,-142.79142578124998,38.67355626831055,-142.78942578124997,38.873756268310544C-142.78842578125,38.990656268310545,-142.83742578124998,39.102156268310544,-142.92542578125,39.179056268310546L-142.92542578125,44.705356268310545L-142.73642578124998,44.705356268310545C-142.57742578124999,44.71085626831055,-142.44942578125,44.83965626831055,-142.44342578125003,45.00015626831055L-142.44342578125003,45.26325626831055C-142.44142578125002,45.38585626831055,-142.51742578124998,45.49615626831055,-142.63242578125,45.53695626831055L-142.52742578124997,58.810656268310545L-141.99342578124998,59.442256268310544L-141.59542578125001,59.442256268310544C-141.43642578125002,59.447656268310546,-141.30742578125,59.576456268310544,-141.30242578125,59.73695626831055L-141.30242578125,60.231656268310545C-141.30242578125,60.39445626831055,-141.43342578124998,60.52645626831055,-141.59542578125001,60.52645626831055L-141.59542578125001,61.20015626831054C-141.53242578125003,61.210456268310544,-141.47442578124998,61.23975626831054,-141.42842578124998,61.284356268310546L-141.26042578124998,61.473756268310545L-141.14542578125003,61.473756268310545C-140.98342578125,61.473756268310545,-140.85242578125002,61.60575626831055,-140.85242578125002,61.76855626831055L-140.85242578125002,62.105356268310544C-140.85242578125002,62.26815626831055,-140.98342578125,62.400156268310546,-141.14542578125003,62.400156268310546L-141.59542578125001,62.400156268310546L-141.59542578125001,62.60015626831055L-141.14542578125003,62.60015626831055C-140.98542578125,62.60555626831054,-140.85742578125002,62.73435626831055,-140.85242578125002,62.89485626831055L-140.85242578125002,63.49485626831055C-140.85242578125002,63.65765626831055,-140.98342578125,63.78955626831055,-141.14542578125003,63.78955626831055L-141.14542578125003,64.21065626831054C-141.06842578125003,64.26695626831054,-141.02142578125,64.35665626831054,-141.01942578125,64.45275626831054L-141.01942578125,68.85275626831054C-141.02242578124998,68.95125626831054,-141.07342578125002,69.04205626831055,-141.15542578125002,69.09485626831055L-141.34442578124998,69.22115626831055L-141.34442578124998,69.47375626831055L-141.18742578125,69.56855626831054C-141.10242578125002,69.62465626831055,-141.05142578124997,69.71945626831055,-141.05142578124997,69.82115626831055L-141.05142578124997,72.25275626831055L-140.74742578125,72.46325626831054C-140.66142578125,72.51305626831055,-140.60942578125002,72.60575626831054,-140.61142578124998,72.70535626831055L-140.61142578124998,74.60015626831054L-140.36042578125,74.83165626831055C-140.29542578125,74.88665626831055,-140.25742578125,74.96725626831055,-140.25542578124998,75.05275626831055L-140.25542578124998,77.09485626831055L-139.75342578124997,77.09485626831055C-139.58742578124998,77.08885626831055,-139.44942578125,77.22265626831054,-139.44942578125,77.38955626831054L-139.44942578125,78.17905626831055L-139.20842578125,78.17905626831055C-139.04242578125002,78.17315626831055,-138.90542578125002,78.30685626831054,-138.90542578125002,78.47375626831055L-138.90542578125002,78.97905626831054L-137.72242578125002,78.97905626831054L-136.62242578125,79.38955626831054C-136.50942578125,79.43305626831055,-136.43542578125,79.54165626831055,-136.43442578125,79.66325626831055L-136.43442578125,82.17905626831055L-134.85342578125,82.17905626831055C-134.69142578125002,82.17905626831055,-134.56042578125,82.31105626831055,-134.56042578125,82.47375626831055L-134.56042578125,85.31595626831054L-134.26742578124998,85.31595626831054C-134.11442578125002,85.31445626831055,-133.98442578125002,85.42705626831055,-133.96342578125,85.57905626831055L-133.96342578125,87.42115626831054L-128.95942578125,87.42115626831054L-128.95942578125,137.05245626831055L-124.58342578125001,137.05245626831055L-123.13842578125002,122.96845626831055C-123.14742578124998,122.93045626831055,-123.14742578124998,122.89045626831054,-123.13842578125002,122.85245626831055L-118.02942578124998,113.16845626831055L-118.02942578124998,113.05245626831055L-117.61042578125,112.26345626831055L-116.69942578125,86.89485626831055C-116.69442578125,86.73625626831054,-116.56442578125001,86.61055626831055,-116.40642578125,86.61065626831055C-116.24442578125002,86.60475626831055,-116.10842578124999,86.73205626831054,-116.10342578125,86.89485626831055L-115.68442578125001,110.05245626831055L-115.68442578125001,110.27345626831055L-108.35642578124998,107.11545626831055C-108.26742578124998,107.06945626831055,-108.16142578124999,107.06945626831055,-108.07342578125002,107.11545626831055C-107.99042578125,107.16345626831054,-107.93942578125001,107.25145626831055,-107.93742578125,107.34745626831055L-107.37142578125003,122.67345626831055L-106.69142578125002,123.43145626831054L-106.48242578125002,123.43145626831054L-105.72842578125,124.25245626831055L-105.72842578125,124.55845626831055C-105.68842578124998,124.59645626831055,-105.66642578124998,124.64945626831054,-105.66542578125001,124.70545626831054L-104.61842578124998,131.91545626831055L-99.45742578124998,131.91545626831055L-99.45742578124998,109.91545626831055L-91.39642578125,109.91545626831055L-91.39642578125,102.54745626831054C-91.39042578124997,102.35395626831054,-91.23242578125002,102.20005626831055,-91.04042578125001,102.20015626831055L-90.64242578124998,102.20015626831055L-90.64242578124998,90.13695626831054C-90.64142578125,90.01605626831055,-90.57742578124999,89.90445626831055,-90.47442578124998,89.84225626831055L-89.30242578125001,89.09485626831055L-89.30242578125001,86.98955626831055C-89.30242578125001,86.91475626831054,-89.28042578125002,86.84145626831055,-89.23942578125002,86.77905626831054L-88.77842578125001,86.13695626831054L-88.77842578125001,83.35805626831055C-88.73942578125002,83.26535626831054,-88.66342578125,83.19305626831054,-88.56942578125,83.15805626831055L-87.93042578125,82.44225626831054L-87.93042578125,79.92645626831055C-87.92742578125001,79.85055626831054,-87.90142578125,79.77745626831054,-87.85742578125002,79.71595626831055L-87.05142578124997,78.72645626831054L-87.05142578124997,76.12645626831055C-87.05142578124997,76.02105626831055,-87.00542578124998,75.92095626831055,-86.92542578125,75.85275626831054L-86.03542578125001,75.17905626831055L-86.03542578125001,72.55805626831055C-86.03442578124998,72.45595626831054,-85.98842578124999,72.35975626831055,-85.91042578125001,72.29485626831055L-85.19842578125002,71.65275626831054L-85.19842578125002,68.83165626831055C-85.21042578125002,68.77615626831054,-85.21042578125002,68.71875626831054,-85.19842578125002,68.66325626831055L-84.74842578124998,67.84225626831055L-84.74842578124998,65.26325626831056C-84.75442578125,65.24635626831055,-84.75442578125,65.22755626831054,-84.74842578124998,65.21065626831054C-84.66542578125001,64.64455626831054,-84.44242578125,64.10865626831054,-84.09842578125,63.65275626831055L-83.96242578124998,50.094856268310544C-83.96242578124998,49.98245626831055,-83.92142578124998,49.87395626831055,-83.84742578125002,49.78955626831055C-83.79842578124999,49.69415626831055,-83.71042578125002,49.62495626831055,-83.60642578124998,49.60015626831055L-83.33442578124999,49.60015626831055C-83.23242578125002,49.627456268310546,-83.14442578124999,49.695956268310546,-83.09342578125,49.78955626831055C-83.02242578124998,49.87495626831055,-82.98542578125,49.98365626831055,-82.98942578125002,50.094856268310544L-82.84242578124997,63.65275626831055C-82.50042578124999,64.10565626831055,-82.27742578124997,64.63775626831054,-82.19342578125003,65.20015626831054L-82.19342578125003,67.89485626831055L-81.73242578125002,68.71595626831055C-81.72242578125002,68.77155626831055,-81.72242578125002,68.82875626831054,-81.73242578125002,68.88435626831054L-81.73242578125002,71.70535626831055L-81.02142578125,72.34745626831055C-80.94642578125001,72.41435626831054,-80.90442578124998,72.51035626831055,-80.90542578125002,72.61065626831055L-80.90542578125002,75.23165626831054L-80.01542578124997,75.90535626831054C-79.92642578124997,75.96695626831055,-79.87542578124999,76.07035626831055,-79.87942578125,76.17905626831055L-79.87942578125,78.77905626831054L-79.08442578124999,79.76855626831055C-79.03242578125003,79.82685626831055,-79.00342578124997,79.90125626831055,-79.00042578124999,79.97905626831054L-79.00042578124999,82.46325626831054L-78.37242578125,83.17905626831055C-78.31442578125001,83.24165626831055,-78.28442578124998,83.32525626831055,-78.28842578125,83.41065626831055L-78.28842578125,86.21065626831054L-77.81742578125,86.86325626831055C-77.77542578125002,86.92115626831054,-77.75342578124997,86.99145626831054,-77.75442578125,87.06325626831055L-77.75442578125,89.16855626831055L-76.58242578124998,89.91595626831055C-76.48542578125,89.98325626831054,-76.42742578125001,90.09285626831054,-76.42542578125,90.21065626831054L-76.42542578125,102.23165626831054L-76.01642578125,102.23165626831054C-75.82442578125,102.23165626831054,-75.66642578124998,102.38555626831055,-75.66042578125001,102.57905626831055L-75.66042578125001,132.34745626831054L-69.64142578125,132.34745626831054L-69.64142578125,73.48435626831055L-62.73142578124998,80.27375626831055L-62.73142578124998,100.98955626831055L-60.44942578125,100.98955626831055L-60.44942578125,121.41045626831054L-58.89942578124999,121.14745626831055L-58.89942578124999,145.17945626831056L-56.21942578124998,145.74745626831054L-56.21942578124998,147.85245626831053L-51.28842578125,147.85245626831053L-51.28842578125,140.90545626831056L-45.18542578124999,140.90545626831056L-45.18542578124999,113.43145626831054L-32.716425781249995,113.43145626831054L-32.716425781249995,107.70545626831054C-32.710425781250024,107.51145626831055,-32.55242578125001,107.35745626831054,-32.36042578125,107.35845626831055L-31.899425781249988,107.35845626831055C-31.70742578124998,107.35745626831054,-31.549425781250022,107.51145626831055,-31.543425781249994,107.70545626831054L-31.543425781249994,107.91545626831055L-31.041425781249984,107.91545626831055L-31.041425781249984,94.73695626831055C-31.040425781250008,94.62945626831055,-30.990425781249996,94.52845626831055,-30.905425781250017,94.46325626831054C-30.816425781250018,94.39175626831054,-30.69942578125,94.36815626831054,-30.591425781249995,94.40015626831055L-30.46542578125002,94.40015626831055L-30.46542578125002,90.80015626831054C-30.46542578125002,90.68985626831055,-30.410425781250012,90.58695626831054,-30.318425781250028,90.52645626831055C-30.231425781249982,90.46255626831055,-30.120425781249992,90.43955626831055,-30.015425781249974,90.46325626831054L-28.968425781250005,90.72645626831054L-28.591425781249995,90.72645626831054C-28.530425781250017,90.60235626831054,-28.404425781249984,90.52445626831054,-28.266425781250007,90.52645626831055L-27.942425781249995,90.52645626831055C-27.861425781249977,90.52685626831055,-27.783425781250003,90.55675626831055,-27.722425781250024,90.61065626831055L-27.722425781250024,85.84225626831055C-27.720425781250015,85.72715626831055,-27.66142578124999,85.62075626831054,-27.565425781249985,85.55805626831055C-27.464425781249986,85.50185626831055,-27.341425781249995,85.50185626831055,-27.240425781249996,85.55805626831055L-26.508425781250025,85.83175626831054C-26.395425781250026,85.87055626831055,-26.311425781250023,85.96675626831055,-26.288425781249998,86.08435626831054L-26.288425781249998,84.00015626831055C-26.285425781250012,83.90895626831055,-26.24742578125,83.82235626831054,-26.18342578124998,83.75805626831054L-25.817425781249995,83.38955626831054C-25.678425781249985,83.25045626831054,-25.45342578125002,83.25045626831054,-25.31442578125001,83.38955626831054L-24.948425781250023,83.75805626831054C-24.883425781250025,83.82235626831054,-24.84642578124999,83.90895626831055,-24.843425781250005,84.00015626831055L-24.843425781250005,86.04225626831055C-24.81442578125001,85.93105626831054,-24.73742578125001,85.83855626831054,-24.634425781250002,85.78955626831055L-23.995425781249992,85.52645626831055C-23.891425781250007,85.46835626831054,-23.764425781249997,85.46835626831054,-23.660425781250012,85.52645626831055C-23.565425781249985,85.59485626831055,-23.507425781249992,85.70375626831054,-23.503425781249973,85.82115626831055L-23.503425781249973,90.62115626831054C-23.438425781249975,90.56735626831055,-23.357425781250015,90.53765626831054,-23.273425781250012,90.53695626831055L-22.958425781250014,90.53695626831055C-22.831425781250005,90.53265626831055,-22.712425781249976,90.59685626831055,-22.644425781249993,90.70535626831055L-22.268425781250016,90.70535626831055L-21.22142578124999,90.44225626831054C-21.11242578125001,90.41935626831055,-20.998425781249978,90.44215626831054,-20.907425781250026,90.50535626831055C-20.821425781250014,90.57055626831054,-20.771425781250002,90.67155626831055,-20.770425781250026,90.77905626831054L-20.770425781250026,94.37905626831055L-20.592425781249972,94.37905626831055C-20.495425781249992,94.33755626831055,-20.38642578125001,94.33755626831055,-20.289425781249975,94.37905626831055C-20.19942578125,94.44645626831054,-20.146425781250002,94.55105626831055,-20.142425781249983,94.66325626831055L-20.142425781249983,107.91545626831055L-20.006425781250016,107.91545626831055L-20.006425781250016,107.70545626831054C-20.00142578125002,107.51145626831055,-19.843425781250005,107.35745626831054,-19.65042578125002,107.35845626831055L-19.179425781250018,107.35845626831055C-18.988425781249987,107.35845626831055,-18.83442578124999,107.51345626831055,-18.83442578124999,107.70545626831054L-18.83442578124999,113.43145626831054L-17.556425781250027,113.43145626831054L-17.556425781250027,136.84245626831054C-17.498425781249978,136.90145626831054,-17.464425781249986,136.98045626831055,-17.462425781249976,137.06345626831055L-17.462425781249976,145.02145626831054L-6.815425781249985,145.02145626831054L-6.815425781249985,152.15845626831054L-3.7274257812500196,151.32645626831055L0.7435742187499841,152.37945626831055L0.7435742187499841,151.80045626831054C0.7275742187500214,151.75245626831054,0.7275742187500214,151.70045626831055,0.7435742187499841,151.65245626831054L0.8895742187499991,151.25245626831054L0.8895742187499991,149.66345626831054C0.8835742187500273,149.62845626831054,0.8835742187500273,149.59245626831054,0.8895742187499991,149.55845626831055L1.1825742187500055,148.67345626831056C1.2415742187499745,148.50945626831054,1.409574218749981,148.41145626831056,1.5805742187499732,148.44245626831054C1.750574218749989,148.46845626831055,1.875574218749989,148.61645626831054,1.8735742187499795,148.78945626831054L1.8735742187499795,150.31545626831056L2.072574218749992,149.91545626831055C2.1555742187500186,149.77345626831055,2.3205742187499823,149.70045626831055,2.4815742187499836,149.73745626831055C2.6375742187499895,149.77245626831055,2.746574218750027,149.91345626831054,2.7425742187500077,150.07345626831054L2.7425742187500077,151.04245626831056L2.878574218749975,151.04245626831056L3.705574218749973,151.04245626831056L3.705574218749973,134.54745626831055C3.711574218750002,134.35345626831054,3.8695742187500173,134.20045626831055,4.061574218750025,134.20045626831055L4.334574218749992,133.89445626831053L4.334574218749992,133.29445626831054C4.334574218749992,133.10345626831054,4.488574218749989,132.94745626831056,4.6795742187500196,132.94745626831056L5.077574218749987,132.94745626831056L5.077574218749987,128.01045626831055C5.072574218749992,127.97945626831054,5.072574218749992,127.94745626831055,5.077574218749987,127.91545626831055L5.077574218749987,127.30545626831055C5.072574218749992,127.27445626831054,5.072574218749992,127.24245626831055,5.077574218749987,127.21045626831055L5.077574218749987,126.22145626831055C5.0715742187500155,126.18645626831055,5.0715742187500155,126.15045626831055,5.077574218749987,126.11545626831055L5.077574218749987,125.06345626831055C5.070574218749982,125.03245626831054,5.070574218749982,124.99945626831055,5.077574218749987,124.96845626831055L5.077574218749987,123.97945626831054C5.072574218749992,123.94745626831055,5.072574218749992,123.91545626831055,5.077574218749987,123.88445626831054L5.077574218749987,121.77945626831055C5.0785742187500205,121.70745626831055,5.100574218750012,121.63845626831055,5.140574218749975,121.57945626831055L5.402574218749976,121.21045626831055L5.852574218750021,119.95845626831054C5.907574218750028,119.81845626831054,6.042574218750019,119.72645626831054,6.192574218749996,119.72645626831054C6.342574218749974,119.72645626831054,6.477574218750021,119.81845626831054,6.532574218750028,119.95845626831054L6.6375742187499895,120.32645626831055L7.883574218750027,117.29445626831054L7.883574218750027,116.12645626831055C7.872574218750003,116.08145626831055,7.872574218750003,116.03445626831055,7.883574218750027,115.98945626831055L8.197574218749992,115.28445626831055L8.197574218749992,114.16845626831055C8.200574218749978,114.04845626831055,8.263574218750023,113.93745626831054,8.364574218750022,113.87345626831055L8.605574218750007,113.72645626831054L8.605574218750007,113.18945626831055C8.594574218749983,113.14445626831055,8.594574218749983,113.09745626831055,8.605574218750007,113.05245626831055L8.80457421875002,112.57945626831055L8.80457421875002,111.07345626831055C8.810574218749991,110.88045626831055,8.967574218749974,110.72645626831054,9.160574218750014,110.72645626831054L9.631574218750018,110.72645626831054C9.822574218749992,110.72645626831054,9.977574218750021,110.88245626831055,9.977574218750021,111.07345626831055L9.977574218750021,112.30545626831055L10.301574218749977,113.05245626831055C10.311574218750025,113.09745626831055,10.311574218750025,113.14445626831055,10.301574218749977,113.18945626831055L10.301574218749977,113.72645626831054L10.542574218750019,113.87345626831055C10.643574218750018,113.93745626831054,10.706574218750006,114.04845626831055,10.709574218749992,114.16845626831055L10.709574218749992,115.28445626831055L11.034574218749981,115.98945626831055C11.039574218749976,116.03545626831054,11.039574218749976,116.08145626831055,11.034574218749981,116.12645626831055L11.034574218749981,117.31545626831054L12.29057421875001,120.29445626831054L12.384574218750004,119.95845626831054C12.426574218749977,119.81145626831055,12.557574218750005,119.70845626831054,12.709574218749992,119.70545626831054C12.860574218750003,119.69745626831055,12.997574218750003,119.79245626831054,13.044574218749972,119.93745626831054L13.494574218750017,121.17945626831055L13.766574218750009,121.54745626831054C13.807574218750005,121.60645626831055,13.829574218749997,121.67545626831054,13.829574218749997,121.74745626831054L13.829574218749997,122.80045626831054C13.845574218750016,122.85545626831055,13.845574218750016,122.91345626831054,13.829574218749997,122.96845626831055L13.829574218749997,128.23145626831055C13.843574218750007,128.28645626831053,13.843574218750007,128.34445626831055,13.829574218749997,128.40045626831056L13.829574218749997,132.87345626831055C13.867574218750008,132.86345626831056,13.907574218750028,132.86345626831056,13.944574218750006,132.87345626831055L14.227574218750021,132.87345626831055C14.420574218750005,132.87345626831055,14.577574218749987,133.02745626831054,14.583574218750016,133.22145626831053L14.583574218750016,133.82145626831056L14.855574218750007,134.13745626831056C15.048574218749991,134.13645626831055,15.205574218749973,134.29045626831055,15.211574218750002,134.48445626831054L15.211574218750002,151.00045626831056L15.745574218749994,151.00045626831056L16.174574218750024,150.91545626831055L16.174574218750024,150.01045626831055C16.170574218750005,149.85045626831055,16.28057421875002,149.70845626831056,16.436574218750025,149.67345626831056C16.596574218749993,149.64145626831055,16.759574218750004,149.71245626831055,16.844574218749983,149.85245626831053L17.043574218749995,150.25245626831054L17.043574218749995,148.72645626831056C17.04657421874998,148.55345626831055,17.17157421874998,148.40645626831054,17.341574218749997,148.37845626831054C17.51057421874998,148.35045626831055,17.676574218749977,148.44745626831056,17.734574218750026,148.61045626831054L18.027574218749976,149.49445626831056C18.03457421874998,149.52945626831055,18.03457421874998,149.56545626831056,18.027574218749976,149.60045626831055L18.027574218749976,151.18945626831055L18.184574218750015,151.58945626831056C18.195574218749982,151.63845626831053,18.195574218749982,151.68845626831055,18.184574218750015,151.73745626831055L18.017574218749985,154.14745626831055L18.247574218750003,154.34745626831054C18.320574218749982,154.41145626831056,18.362574218750012,154.50345626831054,18.362574218750012,154.60045626831055L18.362574218750012,159.27345626831055L21.985574218750003,159.27345626831055L21.985574218750003,182.11545626831054L37.898574218750014,182.11545626831054L37.898574218750014,162.43145626831054L42.54657421874998,162.43145626831054L42.54657421874998,142.32645626831055L57.067574218749996,142.32645626831055L57.067574218749996,151.80045626831054L62.689574218749954,151.80045626831054C64.71657421875,151.78245626831054,66.37757421875006,153.41445626831054,66.40557421874996,155.45245626831056L66.40557421874996,156.21045626831054L68.68857421874998,156.21045626831054L68.68857421874998,169.66345626831054L72.23757421874996,169.66345626831054C74.26657421874995,169.63945626831054,75.93057421875005,171.27545626831053,75.95357421874996,173.31545626831056L75.95357421874996,180.31545626831056L80.91657421875004,180.31545626831056L80.91657421875004,185.83145626831055L84.80057421874994,185.83145626831055L84.80057421874994,193.68445626831056L68.68857421874998,193.68445626831056L68.68857421874998,194.51545626831054ZM40.32757421874999,194.23145626831055L68.39557421874997,194.23145626831055L68.39557421874997,193.37945626831055L84.48657421874998,193.37945626831055L84.48657421874998,186.13745626831056L80.61257421874996,186.13745626831056L80.61257421874996,180.62145626831054L75.65057421874997,180.62145626831054L75.65057421874997,173.34745626831054C75.62757421875006,171.47045626831056,74.10457421875003,169.96245626831055,72.23757421874996,169.96845626831055L68.39557421874997,169.96845626831055L68.39557421874997,156.51545626831054L66.11257421874996,156.51545626831054L66.11257421874996,155.46345626831055C66.08957421875004,153.58345626831056,64.55857421874998,152.07745626831056,62.689574218749954,152.09445626831055L56.78457421874998,152.09445626831055L56.78457421874998,142.62145626831054L42.85057421875001,142.62145626831054L42.85057421875001,162.72645626831056L38.20157421875001,162.72645626831056L38.20157421875001,182.47345626831054L21.723574218750002,182.47345626831054L21.723574218750002,159.63145626831056L18.216574218749997,159.63145626831056L18.216574218749997,154.67345626831056C18.225574218750012,154.65745626831054,18.225574218750012,154.63745626831056,18.216574218749997,154.62145626831054L17.902574218749976,154.33745626831055L18.069574218750006,151.78945626831054L17.89157421875001,151.30545626831054L17.89157421875001,149.69445626831055L17.598574218750002,148.80045626831054C17.593574218750007,148.76945626831053,17.56657421875002,148.74745626831054,17.535574218750014,148.74745626831054C17.492574218750008,148.73945626831053,17.454574218749997,148.77745626831054,17.462574218749978,148.82145626831056L17.462574218749978,150.52645626831054L17.043574218749995,150.65245626831054L16.719574218749983,150.03145626831054C16.69957421875,150.02045626831054,16.67557421875,150.02045626831054,16.656574218749995,150.03145626831054C16.621574218750027,150.03145626831054,16.593574218750007,150.06045626831056,16.593574218750007,150.09445626831055L16.593574218750007,151.23145626831055L15.902574218749976,151.35845626831053L15.065574218749987,151.35845626831053L15.065574218749987,134.51545626831054C15.059574218750015,134.47945626831054,15.028574218750009,134.45245626831056,14.991574218749975,134.45245626831056L14.771574218750004,134.45245626831056L14.771574218750004,134.31545626831056L14.436574218750025,133.92645626831055L14.436574218750025,133.23145626831055Q14.436574218750025,133.16845626831054,14.363574218749989,133.16845626831054L14.080574218749973,133.16845626831054Q14.007574218749994,133.16845626831054,14.007574218749994,133.23145626831055L14.007574218749994,133.87345626831055L13.683574218749982,134.15845626831054L13.683574218749982,128.42145626831055L13.683574218749982,123.15845626831054L13.683574218749982,122.00045626831054L13.379574218750008,121.56845626831054L12.92957421875002,120.30545626831055C12.909574218749981,120.29745626831054,12.886574218750013,120.29745626831054,12.866574218749975,120.30545626831055C12.832574218749983,120.30445626831055,12.80257421875001,120.32545626831055,12.793574218749995,120.35845626831055L12.479574218749974,121.47345626831054L10.88757421874999,117.67345626831055L10.88757421874999,116.45245626831054L10.55257421875001,115.67345626831055L10.55257421875001,114.52645626831055L10.17557421875,114.28445626831055L10.17557421875,113.60045626831055L9.819574218750006,112.74745626831054L9.819574218750006,111.48445626831055Q9.819574218750006,111.41045626831054,9.757574218749994,111.41045626831054L9.275574218750023,111.41045626831054C9.239574218750022,111.41545626831055,9.212574218749978,111.44745626831055,9.212574218749978,111.48445626831055L9.212574218749978,113.07345626831055L9.003574218749975,113.56845626831054L9.003574218749975,114.28445626831055L8.626574218750022,114.52645626831055L8.626574218750022,115.72645626831054L8.291574218749986,116.46345626831055L8.291574218749986,117.72645626831054L6.721574218749993,121.55845626831055L6.281574218749995,120.00045626831054C6.2485742187499795,120.00145626831055,6.220574218750016,120.02245626831055,6.208574218750016,120.05245626831055L5.737574218750012,121.33745626831055L5.454574218749997,121.73745626831055L5.454574218749997,134.15845626831054L5.140574218749975,133.88445626831054L5.140574218749975,133.24245626831055Q5.140574218749975,133.17945626831056,5.06657421875002,133.17945626831056L4.721574218749993,133.17945626831056C4.686574218750025,133.17945626831056,4.6585742187500045,133.20745626831055,4.6585742187500045,133.24245626831055L4.6585742187500045,133.93745626831054L4.323574218750025,134.32645626831055L4.323574218750025,134.43145626831054L4.208574218750016,134.43145626831054L4.061574218750025,134.43145626831054C4.025574218750023,134.43145626831054,3.993574218749984,134.45845626831056,3.9885742187499886,134.49445626831056L3.9885742187499886,151.33745626831055L2.847574218750026,151.33745626831055L2.4605742187500255,151.27345626831055L2.4605742187500255,150.07345626831054C2.4605742187500255,150.03845626831054,2.4325742187500055,150.01045626831055,2.3975742187499804,150.01045626831055C2.3625742187500123,150.01045626831055,2.3345742187499923,150.03845626831054,2.3345742187499923,150.07345626831054L2.0095742187500036,150.69445626831055L1.5915742187499973,150.56845626831054L1.5915742187499973,148.82145626831056C1.5915742187499973,148.78445626831055,1.5645742187500105,148.75245626831054,1.528574218750009,148.74745626831054C1.4945742187500173,148.74645626831054,1.4645742187499877,148.76745626831055,1.4555742187499732,148.80045626831054L1.1615742187499905,149.67345626831056L1.1615742187499905,151.35845626831053L0.9945742187500173,151.78945626831054L1.0575742187500055,152.77945626831055L-3.7274257812500196,151.57945626831054L-7.108425781249991,152.49445626831056L-7.108425781249991,145.26345626831053L-17.734425781250025,145.26345626831053L-17.734425781250025,137.02145626831054L-17.787425781250022,136.94745626831056L-17.787425781250022,113.78945626831054L-19.06442578125001,113.78945626831054L-19.06442578125001,107.77945626831055C-19.06442578125001,107.74445626831054,-19.092425781249972,107.71545626831055,-19.127425781249997,107.71545626831055L-19.59842578125,107.71545626831055C-19.635425781249978,107.71545626831055,-19.666425781249984,107.74245626831055,-19.67142578124998,107.77945626831055L-19.67142578124998,108.26345626831055L-20.32042578124998,108.26345626831055L-20.32042578124998,108.10545626831055L-20.32042578124998,94.73695626831055L-20.875425781249987,94.88435626831054L-20.875425781249987,90.80015626831054C-20.866425781249973,90.78385626831054,-20.866425781249973,90.76375626831054,-20.875425781249987,90.74745626831054L-21.922425781250013,91.02115626831055L-22.540425781250008,91.02115626831055L-22.540425781250008,90.90535626831054C-22.545425781250003,90.86885626831055,-22.57642578125001,90.84185626831055,-22.613425781249987,90.84225626831055L-22.927425781250008,90.84225626831055C-22.96142578125,90.84815626831055,-22.98942578125002,90.87235626831054,-23.000425781249987,90.90535626831054L-23.000425781249987,91.02115626831055L-23.430425781249994,91.02115626831055L-23.430425781249994,85.84225626831055Q-23.430425781249994,85.84225626831055,-23.430425781249994,85.77905626831054L-23.492425781250006,85.77905626831054L-24.131425781250016,86.05275626831055C-24.145425781250026,86.07145626831054,-24.145425781250026,86.09715626831054,-24.131425781250016,86.11595626831054L-24.131425781250016,86.31595626831054L-24.70742578124998,86.31595626831054L-24.70742578124998,84.00015626831055L-25.073425781250023,83.63165626831055C-25.104425781249972,83.60705626831054,-25.14742578124998,83.60705626831054,-25.178425781249985,83.63165626831055L-25.544425781250027,84.00015626831055L-25.544425781250027,86.31595626831054L-26.131425781250016,86.31595626831054L-26.131425781250016,86.10535626831054C-26.117425781250006,86.08665626831055,-26.117425781250006,86.06095626831055,-26.131425781250016,86.04225626831055L-26.853425781249996,85.76855626831055L-26.926425781249975,85.76855626831055Q-26.926425781249975,85.76855626831055,-26.926425781249975,85.83165626831055L-26.926425781249975,91.00015626831055L-27.345425781250015,91.00015626831055L-27.345425781250015,90.88435626831054C-27.345425781250015,90.84945626831055,-27.373425781249978,90.82115626831055,-27.408425781250003,90.82115626831055L-28.266425781250007,90.82115626831055C-28.301425781249975,90.82115626831055,-28.329425781249995,90.84945626831055,-28.329425781249995,90.88435626831054L-28.329425781249995,91.00015626831055L-28.978425781249996,91.00015626831055L-30.02542578125002,90.72645626831054L-30.08842578125001,90.72645626831054C-30.097425781250024,90.74275626831054,-30.097425781250024,90.76275626831055,-30.08842578125001,90.77905626831054L-30.08842578125001,94.73695626831055L-30.57042578124998,94.61065626831055Q-30.62242578125,94.61065626831055,-30.632425781249992,94.61065626831055L-30.632425781249992,107.94745626831055L-30.632425781249992,108.06345626831055L-31.679425781250018,108.06345626831055L-31.679425781250018,107.57945626831055C-31.68542578124999,107.54245626831054,-31.716425781249995,107.51545626831054,-31.753425781249973,107.51545626831054L-32.21342578125001,107.51545626831054C-32.25042578124999,107.51545626831054,-32.28142578124999,107.54245626831054,-32.28742578125002,107.57945626831055L-32.28742578125002,113.58945626831054L-44.80842578124998,113.58945626831054L-44.80842578124998,141.05245626831055L-50.91142578124999,141.05245626831055L-50.91142578124999,148.00045626831056L-56.407425781250026,148.00045626831056L-56.407425781250026,145.82145626831056L-59.09842578125,145.24245626831055L-59.09842578125,121.47345626831054L-60.63742578124999,121.73745626831055L-60.63742578124999,101.26325626831054L-62.91942578125003,101.26325626831054L-62.91942578125003,80.38955626831054L-69.26442578125,74.15805626831055L-69.26442578125,132.63145626831056L-75.85942578125002,132.63145626831056L-75.85942578125002,102.57905626831055C-75.85942578125002,102.54415626831054,-75.88742578124999,102.51595626831055,-75.92242578125001,102.51595626831055L-76.61342578124999,102.51595626831055L-76.61342578124999,90.13695626831054L-77.91142578124999,89.29485626831055L-77.91142578124999,87.01065626831054L-78.42442578125002,86.28435626831055L-78.42442578125002,83.35805626831055L-79.12642578125002,82.55805626831055L-79.12642578125002,79.92645626831055L-79.98442578125002,78.87375626831054L-79.98442578125002,76.12645626831055L-80.97942578124997,75.36855626831054L-80.97942578124997,72.55805626831055Q-80.97942578124997,72.55805626831055,-80.97942578124997,72.50535626831055L-81.78542578125001,71.77905626831054L-81.78542578125001,68.83165626831055L-82.27742578124997,67.94745626831055L-82.27742578124997,65.26325626831056C-82.35242578125002,64.73155626831056,-82.56142578125002,64.22795626831055,-82.88442578125,63.800156268310545L-83.03142578125,50.11595626831055C-83.03242578125003,50.06565626831055,-83.05142578124997,50.01735626831055,-83.08342578125001,49.97905626831054L-83.23042578125,49.97905626831054C-83.27042578125003,50.016556268310545,-83.29042578125001,50.07165626831055,-83.28242578125003,50.12645626831055L-83.42842578124998,63.810656268310545C-83.75542578124998,64.23235626831055,-83.96542578125002,64.73355626831054,-84.03642578124999,65.26325626831056L-84.03642578124999,67.97905626831054L-84.51742578124998,68.86325626831055L-84.51742578124998,71.81065626831055L-85.32342578125002,72.53695626831055Q-85.32342578125002,72.53695626831055,-85.32342578125002,72.58955626831055L-85.32342578125002,75.34745626831055L-86.37042578124999,76.10535626831054L-86.37042578124999,78.80015626831054L-87.22942578124997,79.85275626831054L-87.22942578124997,82.44225626831054L-87.93042578125,83.24225626831054L-87.93042578125,86.12645626831055L-88.44342578125003,86.85275626831054L-88.44342578125003,89.08435626831054L-89.74142578124997,89.92645626831055L-89.74142578124997,102.51595626831055L-90.43242578125,102.51595626831055C-90.46942578124998,102.51555626831055,-90.50042578124999,102.54255626831055,-90.50642578125002,102.57905626831055L-90.50642578125002,110.18945626831055L-99.03842578125,110.18945626831055L-99.03842578125,132.37945626831055L-104.69142578125002,132.37945626831055L-105.73842578124999,124.92645626831055L-105.83242578124998,124.81045626831055L-105.83242578124998,124.51545626831054L-106.44042578124998,123.84245626831054L-106.64942578124999,123.84245626831054L-107.48742578125001,122.91545626831055L-108.05242578125001,107.53745626831055L-115.77842578125001,110.85245626831055L-116.21842578125,87.01065626831054L-117.12942578125,112.44245626831055L-117.62142578125003,113.38945626831055L-122.74042578125,123.09445626831055L-124.21642578125,137.44245626831054L-129.03242578125003,137.44245626831054L-129.03242578125003,87.75805626831054L-134.03642578125,87.75805626831054L-134.03642578125,85.92645626831055L-134.03642578125,85.67375626831054L-134.23542578125,85.67375626831054L-134.63342578125003,85.67375626831054L-134.63342578125003,82.51595626831055L-136.50742578125,82.51595626831055L-136.50742578125,79.71595626831055L-137.60642578124998,79.29485626831055L-138.97842578125,79.29485626831055L-138.97842578125,78.51595626831055L-139.52242578124998,78.51595626831055L-139.52242578124998,77.46325626831054L-140.33942578125,77.46325626831054L-140.33942578125,75.14745626831055L-140.68442578125,74.82115626831055L-140.68442578125,72.74745626831054L-141.12442578125,72.44225626831054L-141.12442578125,69.86325626831055L-141.41742578125002,69.67375626831054L-141.41742578125002,69.07385626831055L-141.10342578125,68.86325626831055L-141.10342578125,64.45275626831054L-141.27142578125,64.32645626831055L-141.27142578125,63.53695626831055L-140.95742578124998,63.53695626831055L-140.95742578124998,62.915956268310545L-141.71042578125002,62.915956268310545L-141.71042578125002,62.105356268310544L-140.97742578125002,62.105356268310544L-140.97742578125002,61.705356268310545L-141.23942578125002,61.705356268310545L-141.49142578124997,61.43165626831055L-141.73142578124998,61.43165626831055L-141.73142578124998,60.231656268310545L-141.41742578125002,60.231656268310545L-141.41742578125002,59.71595626831055L-141.96242578124998,59.71595626831055L-142.64242578124998,58.90535626831055L-142.64242578124998,58.84225626831055L-142.75742578125,45.26325626831055L-142.56942578125,45.26325626831055L-142.56942578125,45.00015626831055L-143.06142578125002,45.00015626831055L-143.06142578125002,39.02115626831055L-142.97742578125002,39.02115626831055C-142.93942578125,38.99935626831055,-142.91642578124998,38.95955626831055,-142.91442578124997,38.915956268310545C-142.91442578124997,38.846156268310544,-142.97142578125,38.78955626831055,-143.04042578125,38.78955626831055L-143.27042578125003,38.78955626831055L-143.27042578125003,35.29485626831055C-143.27042578125003,35.226556268310546,-143.32842578125002,35.17285626831055,-143.39642578125,35.179056268310546C-143.46142578125,35.17885626831055,-143.51642578125,35.22925626831055,-143.52142578125,35.29485626831055L-143.52142578125,38.74745626831055L-143.74142578124997,38.74745626831055C-143.81142578125002,38.74745626831055,-143.86742578125,38.804056268310546,-143.86742578125,38.873756268310544C-143.86642578124997,38.917456268310545,-143.84242578124997,38.957256268310545,-143.80442578125002,38.97905626831054L-143.72042578125001,38.97905626831054L-143.72042578125001,44.947456268310546L-144.20242578124999,44.947456268310546L-144.20242578124999,45.20015626831054L-144.13942578125,45.20015626831054L-144.00342578124997,45.20015626831054L-144.10842578125,58.88435626831055L-144.78842578125,59.64225626831055L-145.32242578125,59.64225626831055L-145.32242578125,60.14745626831055L-144.99842578124998,60.14745626831055L-144.99842578124998,61.36855626831055L-145.14442578125,61.36855626831055L-145.49042578125,61.64225626831055L-145.73142578124998,61.64225626831055L-145.73142578124998,62.042256268310545L-144.97742578125002,62.042256268310545L-144.97742578125002,62.800156268310545L-145.71042578125002,62.800156268310545L-145.71042578125002,63.41065626831055L-145.34342578125,63.41065626831055L-145.34342578125,64.22115626831055L-145.46942578124998,64.31595626831054L-145.46942578124998,68.72645626831054L-145.13442578125,68.94745626831055L-145.13442578125,69.54745626831054L-145.42742578125,69.72645626831054L-145.42742578125,72.31595626831054L-145.85642578124998,72.60015626831054L-145.85642578124998,74.73695626831055L-146.20242578124999,75.04225626831055L-146.20242578124999,77.37905626831055L-146.84042578125002,77.37905626831055L-146.84042578125002,78.43165626831055L-147.37442578125,78.43165626831055L-147.37442578125,79.23175626831055L-148.66242578125002,79.23175626831055L-149.70942578125,79.64225626831055L-149.70942578125,82.45275626831055L-150.75642578125002,82.45275626831055L-150.75642578125002,60.473756268310545L-162.81642578125002,60.473756268310545L-162.81642578125002,112.17945626831055L-173.10742578125002,112.17945626831055L-173.10742578125002,107.45245626831054L-184.25742578125,107.45245626831054L-184.82242578125,83.95805626831054L-184.82242578125,83.89485626831055L-185.72342578125,46.37905626831055L-185.72342578125,46.24225626831055L-194.68442578125,46.24225626831055L-194.68442578125,45.936956268310546L-190.68542578125,45.936956268310546L-190.62242578125,46.105356268310544L-190.18342578124998,45.936956268310546L-189.78542578125,45.936956268310546L-189.78542578125,41.821156268310546L-191.87942578125,41.821156268310546L-191.87942578125,41.73695626831055L-196.82042578124998,29.936956268310546L-196.82042578124998,4.6316992683105465C-196.82642578125,4.4189352683105465,-196.99642578125003,4.247760268310547,-197.20742578124998,4.242226268310547C-197.42342578125,4.242153268310547,-197.60042578125,4.414908268310547,-197.60542578125,4.6316992683105465L-197.60542578125,30.126456268310548L-202.43242578125,41.821156268310546L-204.64142578125,41.821156268310546L-204.64142578125,45.936956268310546L-204.11742578125,45.936956268310546L-203.74042578125,46.08435626831055L-203.66742578125,45.926456268310545L-199.83542578125,45.926456268310545L-199.83542578125,46.231656268310545L-207.16442578125,46.231656268310545L-208.21142578125,87.81065626831055L-210.01142578125,87.81065626831055L-210.01142578125,86.07375626831055L-210.15842578125,86.07375626831055L-210.15842578125,87.82115626831055L-212.99542578125,87.82115626831055L-212.99542578125,86.07375626831055L-213.14242578125,86.07375626831055L-213.14242578125,87.82115626831055L-215.96842578125,87.82115626831055L-215.96842578125,86.07375626831055L-216.11542578125,86.07375626831055L-216.11542578125,87.82115626831055L-217.27742578125,87.82115626831055L-217.27742578125,80.00015626831055C-217.30042578125,78.11645626831054,-218.83742578125,76.60825626831054,-220.71142578125,76.63165626831055L-231.46342578125,76.63165626831055C-233.34842578125,76.59055626831055,-234.90542578125,78.10395626831054,-234.92842578125,80.00015626831055L-234.92842578125,127.61045626831054L-235.29442578125,127.61045626831054L-238.56142578125,127.82145626831054L-238.56142578125,125.71545626831055C-238.56142578125,125.64245626831055,-238.69742578125,125.64245626831055,-238.69742578125,125.71545626831055L-238.69742578125,127.82145626831054L-241.34542578125,127.82145626831054L-241.34542578125,125.71545626831055C-241.34542578125,125.64245626831055,-241.49242578125,125.64245626831055,-241.49242578125,125.71545626831055L-241.49242578125,127.82145626831054L-244.14142578125,127.82145626831054L-244.14142578125,125.71545626831055C-244.14142578125,125.64245626831055,-244.27742578125,125.64245626831055,-244.27742578125,125.71545626831055L-244.27742578125,127.82145626831054L-246.92642578125,127.82145626831054L-246.92642578125,125.71545626831055C-246.92642578125,125.64245626831055,-247.06242578125,125.64245626831055,-247.06242578125,125.71545626831055L-247.06242578125,127.82145626831054L-249.59542578125,127.82145626831054L-249.59542578125,125.71545626831055C-249.59542578125,125.64245626831055,-249.74242578125,125.64245626831055,-249.74242578125,125.71545626831055L-249.74242578125,127.82145626831054L-249.95142578125,127.82145626831054Q-250.02442578125,127.82145626831054,-250.02442578125,127.88445626831054L-250.02442578125,128.02145626831054L-250.02442578125,133.91545626831055L-250.89342578125,133.91545626831055L-250.89342578125,131.47345626831054C-250.89342578125,131.43845626831055,-250.92142578125,131.41045626831055,-250.95642578125,131.41045626831055L-252.16042578125,131.41045626831055C-252.19742578125,131.41045626831055,-252.22842578125,131.43745626831054,-252.23342578125,131.47345626831054L-252.23342578125,140.07345626831054L-253.11342578125,140.07345626831054L-253.11342578125,127.05245626831055C-253.11342578125,127.01245626831054,-253.14642578125,126.97945626831054,-253.18642578125,126.97945626831054L-253.95042578125,126.97945626831054C-253.99142578125,126.97945626831054,-254.02442578125,127.01245626831054,-254.02442578125,127.05245626831055L-254.02442578125,132.63145626831056L-256.52642578125,132.63145626831056L-256.52642578125,137.26345626831053L-258.46342578125,137.26345626831053L-258.46342578125,43.26325626831055L-274.96242578125,43.26325626831055L-274.96242578125,137.23145626831055L-278.54242578125,137.23145626831055L-278.54242578125,100.76855626831055L-290.81242578125,109.93745626831054L-290.81242578125,98.35805626831055C-290.84142578125,96.47685626831054,-292.37542578125,94.97205626831055,-294.24642578124997,94.98955626831055L-304.24442578125,94.98955626831055C-306.11542578125,94.97205626831055,-307.64942578125,96.47685626831054,-307.67842578125,98.35805626831055L-307.67842578125,123.03145626831055L-314.15942578125,123.03145626831055L-314.15942578125,126.44245626831055L-316.92242578125,126.44245626831055L-316.92242578125,135.12645626831053L-318.59842578125,135.12645626831053L-318.59842578125,131.23145626831055C-318.59142578125,131.13045626831055,-318.67542578125,131.04645626831055,-318.77642578125,131.05245626831055L-319.82242578125,131.05245626831055L-319.82242578125,125.91545626831055C-319.82842578124996,125.81945626831055,-319.90442578125,125.74245626831055,-320.00042578125,125.73745626831055L-320.17842578125,125.73745626831055L-320.17842578125,119.89445626831055C-320.17842578125,119.80545626831055,-320.24742578125,119.73245626831054,-320.33542578125,119.72645626831054L-320.46142578125,119.72645626831054L-320.46142578125,113.89445626831055C-320.46242578125,113.81745626831055,-320.51342578125,113.74945626831055,-320.58742578125,113.72645626831054L-320.68142578125,113.72645626831054L-320.68142578125,102.63165626831055C-320.68642578125,102.53695626831055,-320.76542578125,102.46305626831055,-320.85942578125,102.46325626831054L-321.13142578124996,102.46325626831054C-321.22542578125,102.46305626831055,-321.30442578124996,102.53695626831055,-321.30942578125,102.63165626831055L-321.30942578125,113.68445626831054L-321.44542578125004,113.68445626831054C-321.54742578125,113.67245626831054,-321.63942578125,113.74945626831055,-321.64442578125,113.85245626831055L-321.64442578125,119.69445626831055L-321.79142578125004,119.69445626831055C-321.89342578125,119.68845626831055,-321.97942578125003,119.77045626831055,-321.97942578125003,119.87345626831055L-321.97942578125003,125.71545626831055L-322.26242578125,125.71545626831055C-322.35642578125,125.72145626831055,-322.42942578124996,125.80045626831054,-322.42942578124996,125.89445626831055L-322.42942578124996,131.03145626831054L-323.61242578125,131.03145626831054C-323.71142578125,131.03145626831054,-323.79042578125,131.11145626831055,-323.79042578125,131.21045626831057L-323.79042578125,135.10545626831055L-328.38642578125,135.10545626831055C-328.48342578125,135.09945626831055,-328.56542578125,135.17645626831055,-328.56442578125,135.27345626831055L-328.56442578125,140.14745626831055C-328.56542578125,140.24445626831056,-328.48342578125,140.32245626831056,-328.38642578125,140.31545626831056L-327.75842578125,140.31545626831056L-327.75842578125,142.10545626831055L-328.38642578125,142.10545626831055C-328.48342578125,142.09945626831055,-328.56542578125,142.17645626831055,-328.56442578125,142.27345626831055L-328.56442578125,157.60045626831055L-331.87242578125,157.60045626831055L-331.87242578125,148.69445626831055L-332.11342578125,148.69445626831055L-332.11342578125,147.28445626831055L-338.00742578125,141.49445626831056L-339.37942578125,142.84245626831054L-340.81342578125,141.43145626831054L-340.81342578125,138.88445626831054L-342.90742578125,138.88445626831054L-342.90742578125,136.77945626831055L-345.00142578125,136.77945626831055L-345.00142578125,129.63145626831056L-346.52942578125,129.63145626831056L-346.58242578125,143.62145626831054L-352.32942578125,143.62145626831054L-352.32942578125,170.49445626831056L-356.84182578125,170.49445626831056L-356.84182578125,144.98945626831053L-358.04572578125,144.98945626831053L-358.04572578125,139.85245626831053L-360.92482578125,139.85245626831053L-360.92482578125,141.66345626831054L-360.92482578125,145.01045626831055L-362.45332578125,145.01045626831055L-362.45332578125,158.80045626831054L-370.62972578125,158.80045626831054L-370.62972578125,153.34745626831054C-370.62972578125,153.30645626831054,-370.66252578125,153.27345626831055,-370.70302578125,153.27345626831055L-371.26832578125,153.27345626831055L-371.26832578125,148.14745626831055C-371.29102578125,148.13445626831054,-371.31892578125,148.13445626831054,-371.34162578125,148.14745626831055L-372.18962578125,148.14745626831055L-372.18962578125,147.09445626831055L-375.74912578125,140.96845626831055L-375.74912578125,140.54745626831055C-375.75442578125,140.51145626831055,-375.78572578125,140.48445626831054,-375.82242578125,140.48445626831054L-376.03182578125,140.48445626831054L-378.37692578125,136.44245626831054C-378.40362578125,136.43045626831054,-378.43402578125,136.43045626831054,-378.46062578125,136.44245626831054L-380.80572578125,140.48445626831054L-381.07792578125,140.48445626831054C-381.11262578125,140.48445626831054,-381.14072578125,140.51245626831056,-381.14072578125,140.54745626831055L-381.14072578125,140.85245626831053L-384.75262578125,147.06345626831055L-384.75262578125,148.11545626831054L-385.60062578125,148.11545626831054C-385.63472578125,148.12145626831054,-385.66292578125,148.14645626831054,-385.67392578125,148.17945626831056L-385.67392578125,153.30545626831054L-386.31252578125,153.30545626831054C-386.35302578125,153.30545626831054,-386.38582578125,153.33845626831055,-386.38582578125,153.37945626831055L-386.38582578125,163.53645626831056L-389.31722578125,163.53645626831056L-389.31722578125,150.18945626831055L-395.46262578125,150.18945626831055L-395.46262578125,122.31545626831054L-401.81742578125,122.31545626831054L-401.81742578125,117.63145626831054L-402.80152578125,117.63145626831054L-402.80152578125,122.31545626831054L-404.81162578125,122.31545626831054L-404.81162578125,129.78945626831054L-405.33502578125,129.78945626831054L-405.33502578125,129.87345626831055L-412.28662578125,129.87345626831055L-412.28662578125,130.17945626831056L-412.28662578125,142.10545626831055L-412.43322578125003,142.10545626831055L-413.11362578125,142.10545626831055L-413.11362578125,142.42145626831055L-413.11362578125,151.71545626831056L-413.31262578125,151.62145626831054C-413.72422578124997,151.43245626831055,-414.16192578125,151.30845626831055,-414.61072578125,151.25245626831054L-414.73642578125,151.25245626831054L-414.89342578125,148.45245626831056L-415.35402578125,148.45245626831056L-415.52152578125,151.24245626831055L-415.63672578125,151.24245626831055C-417.63882578125,151.43945626831055,-419.24292578125,152.99545626831053,-419.51032578125,155.00045626831056L-419.51032578125,155.12645626831053L-420.55722578125,155.12645626831053L-420.55722578125,160.22145626831053L-422.00202578125,160.22145626831053L-422.00202578125,170.52645626831054L-422.91282578125,170.52645626831054L-422.91282578125,167.36845626831055L-423.32112578125,167.36845626831055L-423.32112578125,167.16845626831054L-423.68752578125,167.16845626831054L-423.68752578125,167.00045626831056C-423.68302578125,166.90945626831055,-423.68302578125,166.81745626831054,-423.68752578125,166.72645626831056C-423.69502578125,166.11745626831055,-424.13672578125,165.60245626831053,-424.73442578125,165.50545626831055L-424.86012578125,165.50545626831055L-424.86012578125,160.32645626831055L-426.61892578125,160.32645626831055L-426.61892578125,132.87345626831055L-427.13182578125,132.87345626831055L-427.13182578125,132.03145626831054C-427.15492578125,130.14645626831054,-428.69062578125,128.63545626831055,-430.56572578125,128.65245626831054L-436.52272578125,128.65245626831054C-438.39782578125,128.63545626831055,-439.93362578125,130.14645626831054,-439.95662578125,132.03145626831054L-439.95662578125,132.87345626831055L-441.00352578125,132.87345626831055L-441.00352578125,167.36845626831055L-442.59482578125,167.36845626831055L-442.59482578125,167.29445626831054C-443.11422578125,166.42045626831055,-444.05252578125,165.88445626831054,-445.06552578125,165.88445626831054C-446.07859578125,165.88445626831054,-447.01688578125,166.42045626831055,-447.53625578125,167.29445626831054L-447.53625578125,167.36845626831055L-449.36835578125,167.36845626831055L-449.36835578125,171.48445626831054L-451.15857578125,169.72645626831056L-453.78635578125,169.72645626831056L-453.78635578125,172.35845626831053L-454.97985278125,172.35845626831053L-454.97985278125,193.26345626831053L-451.22142578125,193.26345626831053L-451.22142578125,193.41045626831055L-435.51762578125,193.41045626831055L-429.57122578125,193.41045626831055L-429.57122578125,193.51545626831054L-418.18072578125,193.51545626831054L-418.18072578125,193.37945626831055L-416.67312578125,193.37945626831055L-416.67312578125,193.52645626831054L-366.97592578125,193.52645626831054C-366.95282578125,193.53745626831054,-366.92582578125,193.53745626831054,-366.90272578125,193.52645626831054L-366.90272578125,193.43145626831054L-364.60992578125,193.43145626831054L-364.60992578125,193.55845626831055L-355.39742578125004,193.55845626831055L-355.39742578125004,193.42145626831055L-354.22442578125003,193.42145626831055L-354.22442578125003,193.56845626831054L-311.85542578125,193.56845626831054C-311.79642578125004,193.56345626831055,-311.74342578125004,193.53245626831054,-311.70942578125,193.48445626831054L-311.70942578125,193.42145626831055L-308.65242578125003,193.42145626831055L-308.65242578125003,193.54745626831055L-299.15642578125,193.54745626831055L-257.55242578125,193.54745626831055L-257.55242578125,193.41045626831055L-254.22342578125,193.41045626831055L-254.22342578125,193.48445626831054L-254.11842578125,193.48445626831054L-249.78442578125,193.48445626831054C-249.40442578125,193.52645626831054,-249.02242578125,193.52645626831054,-248.64242578125,193.48445626831054L-247.41842578125,193.48445626831054C-247.20742578125,193.52645626831054,-246.99042578125,193.52645626831054,-246.77942578125,193.48445626831054L-245.33442578125,193.48445626831054C-244.18942578125,194.03645626831056,-242.85742578125,194.03645626831056,-241.71242578125,193.48445626831054L-232.09142578125,193.48445626831054L-231.98642578125,193.48445626831054L-231.98642578125,193.41045626831055L-231.88142578125,193.41045626831055L-228.22842578125,193.41045626831055L-228.22842578125,193.48445626831054C-228.20942578125,193.52645626831054,-228.16942578125,193.55445626831056,-228.12342578125,193.55845626831055L-210.37842578125,193.55845626831055L-210.32542578125,193.55845626831055L-210.26242578125,193.55845626831055L-182.87542578125,193.55845626831055C-182.80742578125,193.55745626831055,-182.74442578125002,193.52145626831054,-182.70842578125,193.46345626831055L-179.11742578125,193.46345626831055L-179.11742578125,193.61045626831054L-161.20442578125,193.61045626831054L-161.20442578125,193.46345626831055L-157.64442578125,193.46345626831055L-157.64442578125,193.58945626831056L-155.16342578125,193.58945626831056L-100.50442578125,193.58945626831056L-100.43042578125,193.58945626831056C-94.03442578124998,193.58945626831056,-88.50642578125002,193.58945626831056,-84.01542578124997,193.58945626831056L-4.062425781249999,193.58945626831056L-4.062425781249999,193.45245626831056L-2.722425781250024,193.45245626831056L-2.722425781250024,193.57945626831054L14.949574218750001,193.57945626831054L20.31057421874999,193.57945626831054L20.31057421874999,193.44245626831054L40.30657421874997,193.44245626831054L40.32757421874999,194.23145626831055ZM-128.44642578125,179.34745626831054L-129.02242578124998,179.34745626831054L-129.02242578124998,177.77945626831055L-128.73942578125002,177.77945626831055L-128.44642578125,179.34745626831054ZM-195.07242578125,46.24225626831055L-196.82042578124998,46.24225626831055L-196.82042578124998,45.936956268310546L-195.11442578125002,45.936956268310546L-195.07242578125,46.24225626831055ZM-197.60542578125,46.24225626831055L-199.44842578125002,46.24225626831055L-199.44842578125002,45.936956268310546L-197.63742578125,45.936956268310546L-197.60542578125,46.24225626831055ZM-192.37142578125003,41.821156268310546L-195.19742578125,41.821156268310546L-196.49642578125003,31.821156268310546L-192.37142578125003,41.821156268310546ZM-194.94642578125,41.53695626831055L-192.78942578124997,41.53695626831055L-195.93042578125,33.90535626831055L-194.94642578125,41.53695626831055ZM-195.63742578125,41.821156268310546L-196.82042578124998,41.821156268310546L-196.82042578124998,34.97905626831054L-196.53742578125002,34.97905626831054L-195.63742578125,41.821156268310546ZM-196.52742578124997,41.53695626831055L-195.96242578124998,41.53695626831055L-196.52742578124997,37.18955626831055L-196.52742578124997,41.53695626831055ZM-197.57442578125,41.821156268310546L-198.91442578124997,41.821156268310546L-197.91942578125003,34.168556268310546L-197.63742578125,34.168556268310546L-197.57442578125,41.821156268310546ZM-198.52742578124997,41.53695626831055L-197.85742578125002,41.53695626831055L-197.85742578125002,36.38955626831055L-198.52742578124997,41.53695626831055ZM-199.28042578125002,41.821156268310546L-201.95042578125,41.821156268310546L-198.06642578125002,32.43165626831055L-199.28042578125002,41.821156268310546ZM-201.52142578125,41.53695626831055L-199.53242578125,41.53695626831055L-198.62142578125003,34.515956268310546L-201.52142578125,41.53695626831055Z" fill="#AAA9A9" fill-opacity="1"/></g></g></g></g></g></svg>