<svg xmlns="http://www.w3.org/2000/svg" xmlns:xlink="http://www.w3.org/1999/xlink" fill="none" version="1.1" width="23" height="23" viewBox="0 0 23 23"><defs><clipPath id="master_svg0_1070_1486"><rect x="0" y="0" width="23" height="23" rx="0"/></clipPath><clipPath id="master_svg1_1070_1494"><g><rect x="-502.4310302734375" y="-147.8494110107422" width="418.07269287109375" height="247.86627197265625" rx="0" fill="#FFFFFF" fill-opacity="1"/></g></clipPath><radialGradient cx="0" cy="0" r="1" gradientUnits="userSpaceOnUse" id="master_svg2_1011_1434" gradientTransform="translate(-194.55083231056778 -26.995444105399656) rotate(0) scale(657.0832076103834 1509.82402632229)"><stop offset="20.999999344348907%" stop-color="#FFFFFF" stop-opacity="1"/><stop offset="100%" stop-color="#000000" stop-opacity="1"/></radialGradient><clipPath id="master_svg3_1070_1491"><g><rect x="-502.4310302734375" y="-147.8494110107422" width="418.07269287109375" height="247.86627197265625" rx="0" fill="#FFFFFF" fill-opacity="1"/></g></clipPath><clipPath id="master_svg4_1070_1498"><g><rect x="-502.4310302734375" y="-147.8494110107422" width="418.07269287109375" height="247.86627197265625" rx="0" fill="#FFFFFF" fill-opacity="1"/></g></clipPath></defs><g clip-path="url(#master_svg0_1070_1486)"><g><path d="M20.706420068359375,12.6468L20.706420068359375,11.8859C20.915320068359375,11.8801,21.081620068359374,11.709,21.081620068359374,11.5001L21.081620068359374,9.19577C21.081620068359374,8.98859,20.913620068359375,8.82065,20.706420068359375,8.82065L18.627220068359374,8.82065L18.552220068359375,8.57414C18.388520068359377,7.91274,18.124620068359373,7.28025,17.769820068359376,6.69856L17.619820068359374,6.43062L19.088120068359373,4.93015C19.238220068359375,4.78307,19.238220068359375,4.54136,19.088120068359373,4.39427L17.459020068359376,2.7652C17.311920068359374,2.61508,17.070220068359376,2.61508,16.923120068359374,2.7652L15.454820068359375,4.2871L15.197620068359376,4.13705C14.615920068359374,3.78223,13.983420068359376,3.51839,13.322020068359375,3.35466L13.032620068359375,3.21534L13.032620068359375,1.14684C13.026820068359376,0.937943,12.855820068359375,0.771639,12.646820068359375,0.77172L10.353250068359374,0.77172C10.144280068359375,0.771639,9.973220068359375,0.937943,9.967420068359376,1.14684L9.967420068359376,3.21534L9.645890068359375,3.29036C8.988320068359375,3.46551,8.357420068359374,3.72868,7.770310068359375,4.07275L7.502370068359375,4.2871L6.076920068359375,2.7652C5.929840068359375,2.61508,5.688130068359375,2.61508,5.541040068359375,2.7652L3.911960068359375,4.38356C3.836370068359375,4.45652,3.793790068359375,4.55715,3.794070068359375,4.66221C3.796650068359375,4.76355,3.839000068359375,4.8598,3.911960068359375,4.93015L5.358840068359375,6.43062L5.208800068359375,6.68784C4.864920068359375,7.27633,4.608580068359375,7.91177,4.447850068359375,8.57414L4.372820068359375,8.86352L2.3043200683593748,8.86352C2.095348068359375,8.86344,1.924293068359375,9.02974,1.918488068359375,9.23864L1.918488068359375,11.5429C1.918488068359375,11.756,2.091232068359375,11.9288,2.3043200683593748,11.9288L2.3043200683593748,12.6897C1.666817068359375,12.6957,1.146820068359375,12.1805,1.146820068359375,11.5429L1.146820068359375,9.19577C1.146791960259375,8.5582,1.6667890683593751,8.04302,2.3043200683593748,8.04898L3.783350068359375,8.04898C3.943990068359375,7.52062,4.159520068359376,7.01054,4.426410068359375,6.52708L3.354650068359375,5.45532C2.909090068359375,5.00787,2.909090068359375,4.28441,3.354650068359375,3.83696L4.994440068359375,2.2186C5.447900068359375,1.77752,6.170060068359375,1.77752,6.623520068359375,2.2186L7.695280068359375,3.29036C8.176880068359374,3.02238,8.687480068359374,2.81023,9.217180068359376,2.65802L9.217180068359376,1.14684C9.222880068359375,0.520017,9.726510068359374,0.0116341,10.353250068359374,0.0000516335L12.646820068359375,0.0000516335C13.284320068359374,-0.00593393,13.804320068359376,0.509248,13.804320068359376,1.14684L13.804320068359376,2.63658C14.334020068359376,2.78879,14.844620068359376,3.00094,15.326220068359374,3.26892L16.398020068359376,2.19716C16.847820068359376,1.75739,17.566520068359374,1.75739,18.016320068359374,2.19716L19.645420068359375,3.82624C20.091020068359374,4.27369,20.091020068359374,4.99715,19.645420068359375,5.4446L18.573620068359375,6.51636C18.832820068359375,7.00218,19.044620068359375,7.51184,19.206020068359376,8.03826L20.695720068359375,8.03826C21.329120068359376,8.03826,21.842520068359374,8.5517,21.842520068359374,9.18505L21.842520068359374,11.4893C21.848520068359374,12.1227,21.339820068359376,12.6409,20.706420068359375,12.6468Z" fill="#898989" fill-opacity="1"/></g><g><path d="M16.86943212890625,10.353297890625L16.07638212890625,10.353297890625C16.07638212890625,7.813967890624999,14.017852128906249,5.755438890625,11.47852212890625,5.755438890625C8.93919212890625,5.755438890625,6.88066612890625,7.813967890624999,6.88066512890625,10.353297890625L6.13043212890625,10.353297890625C6.13145372890625,7.394427890625,8.53037212890625,4.996337890625,11.48924212890625,4.996337890625C14.44810212890625,4.996337890625,16.84703212890625,7.394427890625,16.848032128906247,10.353297890625L16.86943212890625,10.353297890625Z" fill="#898989" fill-opacity="1"/></g><g><path d="M11.499999228515625,13.418384453125C10.227379228515625,13.418384453125,9.195709228515625,12.386724453125,9.195709228515625,11.114104453125C9.195709228515625,9.841474453125,10.227369228515625,8.809814453125,11.499999228515625,8.809814453125C12.772619228515625,8.809814453125,13.804279228515625,9.841474453125,13.804279228515625,11.114104453125C13.804279228515625,12.386724453125,12.772619228515625,13.418384453125,11.499999228515625,13.418384453125ZM11.499999228515625,9.581482453125C10.653559228515626,9.581482453125,9.967378228515624,10.267654453125001,9.967378228515624,11.114104453125C9.967378228515624,11.960544453125,10.653559228515626,12.646724453125,11.499999228515625,12.646724453125C12.346439228515624,12.646724453125,13.032619228515625,11.960544453125,13.032619228515625,11.114104453125C13.032619228515625,10.267654453125001,12.346439228515624,9.581480453125,11.499999228515625,9.581482453125Z" fill="#898989" fill-opacity="1"/></g><g><path d="M18.016242646484375,15.004654375000001C16.756522646484374,14.980864375,15.749473076484374,13.949704375,15.755489221384375,12.689774374999999C15.761504346484376,11.429834375,16.778352646484375,10.408342875,18.038252646484374,10.396586586C19.298142646484376,10.384830275,20.333882646484376,11.387173375,20.363402646484374,12.646774375C20.400602646484373,13.959864375,19.329492646484375,15.035864375,18.016242646484375,15.004654375000001ZM18.016242646484375,11.167744375C17.169802646484374,11.167744375,16.483626646484375,11.853924375,16.483626646484375,12.700364375C16.483626646484375,13.546804375,17.169802646484374,14.232984375000001,18.016242646484375,14.232984375000001C18.862682646484373,14.232984375000001,19.548862646484373,13.546804375,19.548862646484373,12.700364375C19.579202646484376,11.833074375,18.884062646484374,11.113625375,18.016242646484375,11.114155375L18.016242646484375,11.167744375Z" fill="#898989" fill-opacity="1"/></g><g><path d="M4.9837237109375,15.00457609375C3.7181437109375,15.00423609375,2.6897047409375,13.98327609375,2.6801211702375,12.71773609375C2.6705381109375,11.45220609375,3.6834037109375,10.41578319375,4.9488237109375,10.39627512975C6.214243710937501,10.37676709375,7.2585737109375,11.38147209375,7.2880037109375,12.64669609375C7.3180937109375,13.94019609375,6.2775637109375,15.00492609375,4.9837237109375,15.00457609375ZM4.9837237109375,11.16766909375C4.1304137109375,11.16819009375,3.4418537109375,11.86553609375,3.4521477109375,12.71877609375C3.4624427109375002,13.57202609375,4.1676237109375,14.25254609375,5.0206937109375005,14.23248609375C5.873763710937499,14.21241609375,6.5461737109375004,13.49948609375,6.5163337109375,12.64669609375C6.5163337109375,11.80025609375,5.8301637109375,11.11407909375,4.9837237109375,11.11408009375L4.9837237109375,11.16766909375Z" fill="#898989" fill-opacity="1"/></g><g><path d="M21.4888,15.9370925390625C20.9191,15.5426925390625,20.2418,15.3331525390625,19.5489,15.3369025390625L16.4837,15.3369025390625C16.2983,15.3207725390625,16.1118,15.3207725390625,15.9264,15.3369025390625C15.6781,14.9602825390625,15.3619,14.6331765390625,14.9939,14.3723165390625L14.8117,14.2544235390625C14.2745,13.9315665390625,13.6594,13.7611317630625,13.0326,13.7614128436625L9.96738,13.7614128436625C8.79616,13.7544655490625,7.70342,14.3494015390625,7.07363,15.3369025390625C6.8882,15.3207725390625,6.70173,15.3207725390625,6.51631,15.3369025390625L3.45107,15.3369025390625C2.75817,15.3331525390625,2.0809,15.5426925390625,1.51118,15.9370925390625C0.56687,16.5788925390625,0.00111286,17.6462025390625,0,18.7879725390625L0,20.3634625390625C0.00409891,21.4097225390625,0.61445,22.358692539062503,1.56477,22.7963625390625C1.90083,22.952642539062502,2.26596,23.036632539062502,2.63653,23.0428625390625L6.51631,23.0428625390625L6.51631,22.2819225390625L3.06524,22.2819225390625L3.06524,18.0163025390625L2.30429,18.0163025390625L2.30429,22.196172539062502C2.15964,22.1675625390625,2.01919,22.120742539062498,1.8863,22.0568425390625C1.21901,21.7548925390625,0.785154,21.0957725390625,0.771668,20.3634625390625L0.771668,18.7879725390625C0.769695,17.9006425390625,1.20715,17.0698825390625,1.93989,16.5694325390625C2.38153,16.2547925390625,2.90885,16.0827525390625,3.45107,16.0764125390625L6.66636,16.0764125390625C6.53479,16.4445925390625,6.46596,16.8322425390625,6.46272,17.2232025390625L6.46272,21.0493925390625C6.46272,22.108922539062497,7.32164,22.967842539062502,8.38118,22.967842539062502L9.58155,22.967842539062502L9.58155,16.8695225390625L8.8206,16.8695225390625L8.8206,22.2283325390625L8.43476,22.2283325390625C7.80141,22.2283325390625,7.28798,21.7148925390625,7.28798,21.0815425390625L7.28798,17.2553525390625C7.28203,15.7713925390625,8.48338,14.5652345390625,9.96738,14.5652335390625L13.0326,14.5652335390625C13.528,14.5672125390625,14.0134,14.7043205390625,14.4366,14.9617825390625L14.5438,15.0368125390625C15.2778,15.5374125390625,15.7186,16.3669525390625,15.7227,17.2553525390625L15.7227,21.0815425390625C15.7227,21.7208125390625,15.2045,22.2390525390625,14.5652,22.239042539062503L14.1794,22.239042539062503L14.1794,16.8802425390625L13.4185,16.8802425390625L13.4185,23.0107125390625L14.5652,23.0107125390625C15.6248,23.0107125390625,16.4837,22.151792539062498,16.4837,21.0922625390625L16.4837,17.2553525390625C16.4878,16.8542025390625,16.4225,16.4553525390625,16.2908,16.0764125390625L19.5061,16.0764125390625C20.0463,16.0744025390625,20.574,16.2390825390625,21.0172,16.5479925390625C21.7526,17.0473225390625,22.1939,17.8776625390625,22.1962,18.7665425390625L22.1962,20.3634625390625C22.192,21.1122325390625,21.7526,21.7901725390625,21.0708,22.099722539062498C20.941,22.1619925390625,20.8043,22.208762539062498,20.6636,22.239042539062503L20.6636,18.0591725390625L19.9348,18.0591725390625L19.9348,22.2819225390625L16.4837,22.2819225390625L16.4837,23.0428625390625L20.3635,23.0428625390625C20.7345,23.0406525390625,21.1005,22.9564725390625,21.4352,22.7963625390625C22.3911,22.3650725390625,23.004,21.412102539062502,23,20.3634625390625L23,18.7879725390625C22.9989,17.6462025390625,22.4331,16.5788925390625,21.4888,15.9370925390625Z" fill="#898989" fill-opacity="1"/></g><g><path d="M9.967376708984375,22.239013671875L13.032616708984374,22.239013671875L13.032616708984374,22.999963671875L9.967376708984375,22.999963671875L9.967376708984375,22.239013671875Z" fill="#898989" fill-opacity="1"/></g><g><g clipPath="url(#master_svg1_1070_1494)"><g style="opacity:0.6000000238418579;"><rect x="-502.40960693359375" y="-162.6399383544922" width="606.5526733398438" height="263.974853515625" rx="0" fill="url(#master_svg2_1011_1434)" fill-opacity="1"/></g></g><g><g clipPath="url(#master_svg3_1070_1491)"><g><path d="M0.8895869140624999,59.10756340332031L-12.1859130859375,59.10756340332031L-12.1859130859375,-7.009356596679687L-5.9804130859375,-12.293136596679688L0.8895869140624999,-7.020066596679688L0.8895869140624999,59.10756340332031ZM-11.8858200859375,58.807563403320316L0.6001869140624994,58.807563403320316L0.6001869140624994,-6.870026596679687L-5.9696930859375,-11.918020596679687L-11.8858200859375,-6.870026596679687L-11.8858200859375,58.807563403320316Z" fill="#AAA9A9" fill-opacity="1"/></g></g></g><g><g clipPath="url(#master_svg4_1070_1498)"><g><path d="M65.827244140625,89.5346124267578L36.515244140624986,89.5346124267578L36.515244140624986,88.65561242675781L16.580244140624984,88.65561242675781C16.52824414062502,88.7496124267578,16.430244140625007,88.8076124267578,16.32324414062498,88.80661242675782L-7.255755859374972,88.80661242675782C-7.3587558593749804,88.80361242675781,-7.4527558593749745,88.74661242675782,-7.502755859374986,88.65561242675781L-8.380755859374972,88.65561242675781C-8.432755859374993,88.7496124267578,-8.531755859374982,88.8076124267578,-8.63875585937501,88.80661242675782L-90.41375585937499,88.80661242675782C-95.00075585937498,88.80661242675782,-100.63875585937501,88.80661242675782,-107.17575585937499,88.80661242675782C-107.22475585937502,88.82161242675781,-107.27775585937502,88.82161242675781,-107.32575585937502,88.80661242675782L-165.694755859375,88.80661242675782C-165.80175585937502,88.80961242675781,-165.901755859375,88.75161242675782,-165.951755859375,88.65561242675781L-169.07075585937503,88.65561242675781L-169.07075585937503,88.7956124267578L-187.98675585937502,88.7956124267578L-187.98675585937502,88.64561242675782L-191.201755859375,88.64561242675782C-191.295755859375,88.74061242675782,-191.422755859375,88.79361242675782,-191.55575585937498,88.7956124267578L-237.930755859375,88.7956124267578C-238.055755859375,88.79861242675781,-238.174755859375,88.7436124267578,-238.252755859375,88.64561242675782L-241.467755859375,88.64561242675782L-241.467755859375,88.74161242675783L-241.542755859375,88.74161242675783L-251.563755859375,88.74161242675783C-252.797755859375,89.3316124267578,-254.231755859375,89.3316124267578,-255.464755859375,88.74161242675783L-256.825755859375,88.74161242675783C-257.059755859375,88.7846124267578,-257.299755859375,88.7846124267578,-257.533755859375,88.74161242675783L-258.744755859375,88.74161242675783C-259.143755859375,88.7846124267578,-259.545755859375,88.7846124267578,-259.944755859375,88.74161242675783L-264.724755859375,88.74161242675783L-264.724755859375,88.64561242675782L-267.715755859375,88.64561242675782C-267.768755859375,88.7426124267578,-267.872755859375,88.80061242675782,-267.982755859375,88.7956124267578L-320.274755859375,88.7956124267578C-320.381755859375,88.7966124267578,-320.479755859375,88.73861242675781,-320.53175585937504,88.64561242675782L-323.275755859375,88.64561242675782C-323.35875585937504,88.74161242675783,-323.480755859375,88.7956124267578,-323.607755859375,88.7956124267578L-367.281755859375,88.7956124267578L-367.281755859375,88.64561242675782L-367.924755859375,88.64561242675782C-367.98175585937497,88.73961242675782,-368.083755859375,88.7966124267578,-368.192755859375,88.7956124267578L-377.602955859375,88.7956124267578C-377.712455859375,88.7966124267578,-377.814255859375,88.73961242675782,-377.870855859375,88.64561242675782L-379.789355859375,88.64561242675782C-379.854355859375,88.74061242675782,-379.963155859375,88.79761242675781,-380.078755859375,88.7956124267578L-431.255355859375,88.7956124267578L-431.255355859375,88.64561242675782L-432.327055859375,88.64561242675782C-432.366955859375,88.73961242675782,-432.460855859375,88.79961242675782,-432.562855859375,88.7956124267578L-444.287955859375,88.7956124267578C-444.369355859375,88.7956124267578,-444.445555859375,88.7556124267578,-444.491555859375,88.6886124267578L-450.622055859375,88.6886124267578L-466.912865859375,88.6886124267578L-466.912865859375,88.53861242675782L-470.749755859375,88.53861242675782L-470.749755859375,66.66361242675782L-469.538655859375,66.66361242675782L-469.538655859375,63.98461242675782L-466.430555859375,63.98461242675782L-465.037285859375,65.37761242675782L-465.037285859375,61.58361242675781L-463.000945859375,61.58361242675781C-462.412205859375,60.6416124267578,-461.378875859375,60.0696124267578,-460.267955859375,60.072612426757814C-459.153255859375,60.066612426757814,-458.115055859375,60.63861242675782,-457.524255859375,61.58361242675781L-456.356055859375,61.58361242675781L-456.356055859375,26.493612426757807L-455.284255859375,26.493612426757807L-455.284255859375,25.915612426757804C-455.254855859375,23.83961242675781,-453.554855859375,22.17861242675781,-451.479555859375,22.19661242675781L-445.381255859375,22.19661242675781C-443.301755859375,22.17261242675781,-441.595155859375,23.83561242675782,-441.565755859375,25.915612426757804L-441.565755859375,26.493612426757807L-441.040555859375,26.493612426757807L-441.040555859375,54.46661242675782L-439.22925585937503,54.46661242675782L-439.22925585937503,59.8256124267578C-438.522355859375,59.9806124267578,-438.015655859375,60.602612426757815,-438.007455859375,61.326612426757805C-438.002155859375,61.3796124267578,-438.002155859375,61.433612426757804,-438.007455859375,61.4866124267578L-437.943155859375,61.4866124267578C-437.82505585937497,61.4926124267578,-437.724855859375,61.5756124267578,-437.696655859375,61.69061242675781L-437.525155859375,61.69061242675781C-437.387155859375,61.69061242675781,-437.273655859375,61.79961242675782,-437.267955859375,61.93661242675782L-437.267955859375,64.8626124267578L-436.924955859375,64.8626124267578L-436.924955859375,54.35961242675782L-435.435155859375,54.35961242675782L-435.435155859375,49.183612426757804L-434.299155859375,49.183612426757804C-433.972855859375,47.1056124267578,-432.304355859375,45.497612426757826,-430.215755859375,45.24961242675781L-430.04425585937497,42.37761242675782L-429.026055859375,42.37761242675782L-428.854555859375,45.2606124267578C-428.487555859375,45.31561242675781,-428.127955859375,45.41361242675782,-427.782855859375,45.54961242675782L-427.782855859375,36.24661242675782L-427.782855859375,35.92561242675782L-426.946855859375,35.92561242675782L-426.946855859375,23.760612426757802L-426.893255859375,23.760612426757802L-426.893255859375,23.43961242675782L-419.787455859375,23.43961242675782L-419.787455859375,23.34261242675781L-419.251555859375,23.34261242675781L-419.251555859375,15.733612426757816L-417.193755859375,15.733612426757816L-417.193755859375,10.974612426757815L-415.607555859375,10.974612426757815L-415.607555859375,15.733612426757816L-409.101955859375,15.733612426757816L-409.101955859375,44.12461242675781L-402.81075585937504,44.12461242675781L-402.81075585937504,57.64961242675781L-400.388555859375,57.64961242675781L-400.388555859375,47.586612426757824C-400.382755859375,47.38961242675782,-400.22135585937497,47.23261242675781,-400.024155859375,47.23261242675781L-399.734755859375,47.23261242675781L-399.734755859375,42.302612426757804C-399.745755859375,42.245612426757816,-399.745755859375,42.18761242675782,-399.734755859375,42.13061242675781C-399.698755859375,41.959612426757815,-399.545655859375,41.8376124267578,-399.37035585937497,41.84161242675782L-398.802355859375,41.84161242675782L-398.802355859375,41.03761242675782C-398.817855859375,40.977612426757815,-398.817855859375,40.915612426757804,-398.802355859375,40.8556124267578L-395.12625585937496,34.564612426757805L-395.12625585937496,34.296612426757804C-395.126555859375,34.10361242675782,-394.976155859375,33.943612426757824,-394.783255859375,33.93161242675782L-392.468255859375,29.96661242675782C-392.404855859375,29.860612426757825,-392.291255859375,29.7956124267578,-392.168155859375,29.794612426757823L-392.02885585937497,29.794612426757823C-391.947455859375,29.82361242675782,-391.879055859375,29.880612426757807,-391.835955859375,29.955612426757824L-389.520955859375,33.921612426757804L-389.467355859375,33.921612426757804C-389.266055859375,33.921612426757804,-389.102955859375,34.084612426757815,-389.102955859375,34.28561242675781L-389.102955859375,34.628612426757826L-385.501855859375,40.8016124267578C-385.466655859375,40.856612426757806,-385.448055859375,40.91961242675782,-385.44825585937497,40.98461242675782L-385.44825585937497,41.79861242675781L-384.869555859375,41.79861242675781C-384.71545585937497,41.802612426757804,-384.579355859375,41.90061242675782,-384.526555859375,42.0456124267578C-384.47995585937497,42.10761242675781,-384.453755859375,42.18161242675782,-384.451555859375,42.259612426757826L-384.451555859375,47.189612426757805L-384.162155859375,47.189612426757805C-383.965055859375,47.189612426757805,-383.803555859375,47.346612426757815,-383.797755859375,47.54361242675782L-383.797755859375,52.816612426757814L-376.016755859375,52.816612426757814L-376.016755859375,39.108612426757816C-376.01095585937503,38.94261242675782,-375.871655859375,38.8136124267578,-375.70595585937497,38.8196124267578L-374.430555859375,38.8196124267578L-374.430555859375,33.8676124267578C-374.430655859375,33.697612426757814,-374.289655859375,33.56161242675782,-374.119755859375,33.56761242675782L-371.18305585937503,33.56761242675782C-371.013155859375,33.56161242675782,-370.87215585937497,33.697612426757814,-370.872255859375,33.8676124267578L-370.872255859375,38.8196124267578L-369.961755859375,38.8196124267578C-369.795755859375,38.8136124267578,-369.656755859375,38.94261242675782,-369.650755859375,39.108612426757816L-369.650755859375,64.7556124267578L-365.470755859375,64.7556124267578L-365.470755859375,37.39361242675781L-359.597755859375,37.39361242675781L-359.532755859375,23.139612426757807L-357.389755859375,23.139612426757807L-357.389755859375,30.41661242675781L-355.245755859375,30.41661242675781L-355.245755859375,32.560612426757814L-353.155755859375,32.560612426757814L-353.155755859375,35.36861242675781L-351.976755859375,36.52561242675782L-350.572755859375,35.1536124267578L-344.23875585937503,41.32761242675781L-344.23875585937503,42.602612426757815L-343.992755859375,42.602612426757815L-343.992755859375,51.6586124267578L-341.205755859375,51.6586124267578L-341.205755859375,36.332612426757805C-341.199755859375,36.076612426757805,-340.990755859375,35.87161242675782,-340.734755859375,35.87161242675782L-340.369755859375,35.87161242675782L-340.369755859375,34.628612426757826L-340.734755859375,34.628612426757826C-340.990755859375,34.628612426757826,-341.199755859375,34.42361242675781,-341.205755859375,34.16761242675781L-341.205755859375,29.21661242675782C-341.199755859375,28.959612426757815,-340.990755859375,28.755612426757807,-340.734755859375,28.755612426757807L-336.307755859375,28.755612426757807L-336.307755859375,25.068612426757824C-336.307755859375,24.80961242675781,-336.094755859375,24.60161242675781,-335.836755859375,24.60761242675781L-334.925755859375,24.60761242675781L-334.925755859375,19.656612426757818C-334.91975585937496,19.403612426757817,-334.716755859375,19.200612426757814,-334.46475585937503,19.19561242675782L-334.46475585937503,13.525612426757817C-334.458755859375,13.319612426757814,-334.319755859375,13.142612426757807,-334.121755859375,13.08661242675781L-334.121755859375,7.395612426757808C-334.11375585937503,7.186612426757819,-333.969755859375,7.007612426757817,-333.76775585937503,6.95561242675781L-333.76775585937503,-4.019387573242184C-333.76775585937503,-4.273387573242189,-333.561755859375,-4.479987573242184,-333.306755859375,-4.479987573242184L-333.028755859375,-4.479987573242184C-332.769755859375,-4.485987573242184,-332.556755859375,-4.277387573242194,-332.556755859375,-4.019387573242184L-332.556755859375,6.998612426757816C-332.415755859375,7.082612426757819,-332.326755859375,7.231612426757806,-332.320755859375,7.395612426757808L-332.320755859375,13.107612426757811C-332.147755859375,13.173612426757813,-332.032755859375,13.33961242675781,-332.03175585937504,13.525612426757817L-332.03175585937504,19.216612426757806C-331.824755859375,19.261612426757807,-331.677755859375,19.444612426757814,-331.677755859375,19.656612426757818L-331.677755859375,24.650612426757817L-330.852755859375,24.650612426757817C-330.596755859375,24.650612426757817,-330.386755859375,24.8556124267578,-330.380755859375,25.1116124267578L-330.380755859375,28.798612426757813L-329.244755859375,28.798612426757813L-329.244755859375,19.91361242675781L-326.415755859375,19.91361242675781L-326.415755859375,16.44061242675781L-319.79175585937503,16.44061242675781L-319.79175585937503,-8.402587573242187C-319.76275585937503,-10.476087573242182,-318.06075585937504,-12.13468757324219,-315.987755859375,-12.11088757324218L-305.751755859375,-12.11088757324218C-303.678755859375,-12.13468757324219,-301.976755859375,-10.476087573242182,-301.947755859375,-8.402587573242187L-301.947755859375,2.850612426757806L-289.375755859375,-6.430587573242192L-289.375755859375,30.973612426757825L-286.288755859375,30.973612426757825L-286.288755859375,-64.74508757324219L-268.80875585937497,-64.74508757324219L-268.80875585937497,30.9206124267578L-267.41475585937496,30.9206124267578L-267.41475585937496,26.215612426757815L-264.85375585937504,26.215612426757815L-264.85375585937504,20.856612426757806C-264.847755859375,20.659612426757818,-264.686755859375,20.502612426757807,-264.489755859375,20.502612426757807L-263.706755859375,20.502612426757807C-263.50775585937504,20.496612426757807,-263.34275585937496,20.656612426757818,-263.34275585937496,20.856612426757806L-263.34275585937496,33.824612426757824L-263.009755859375,33.824612426757824L-263.009755859375,25.368612426757807C-263.009755859375,25.173612426757813,-262.851755859375,25.01461242675782,-262.65675585937504,25.01461242675782L-261.423755859375,25.01461242675782C-261.226755859375,25.01461242675782,-261.06575585937503,25.171612426757804,-261.059755859375,25.368612426757807L-261.059755859375,27.512612426757812L-260.759755859375,27.512612426757812L-260.759755859375,21.831612426757815C-260.771755859375,21.782612426757808,-260.771755859375,21.730612426757816,-260.759755859375,21.68161242675781L-260.759755859375,21.617612426757816C-260.756755859375,21.44561242675782,-260.629755859375,21.30061242675781,-260.45975585937504,21.274612426757812L-260.45975585937504,19.47361242675781C-260.45975585937504,19.276612426757808,-260.302755859375,19.115612426757806,-260.105755859375,19.109612426757806C-259.904755859375,19.109612426757806,-259.74175585937496,19.272612426757817,-259.74175585937496,19.47361242675781L-259.74175585937496,21.31761242675782L-257.726755859375,21.31761242675782L-257.726755859375,19.441612426757814C-257.720755859375,19.24461242675781,-257.55875585937497,19.087612426757815,-257.36175585937497,19.087612426757815C-257.16475585937496,19.087612426757815,-257.003755859375,19.24461242675781,-256.997755859375,19.441612426757814L-256.997755859375,21.31761242675782L-254.853755859375,21.31761242675782L-254.853755859375,19.441612426757814C-254.848755859375,19.24461242675781,-254.686755859375,19.087612426757815,-254.489755859375,19.087612426757815C-254.292755859375,19.087612426757815,-254.130755859375,19.24461242675781,-254.125755859375,19.441612426757814L-254.125755859375,21.31761242675782L-251.981755859375,21.31761242675782L-251.981755859375,19.441612426757814C-251.981755859375,19.246612426757807,-251.823755859375,19.087612426757815,-251.627755859375,19.087612426757815C-251.430755859375,19.087612426757815,-251.269755859375,19.24461242675781,-251.263755859375,19.441612426757814L-251.263755859375,21.31761242675782L-249.119755859375,21.31761242675782L-249.119755859375,19.441612426757814C-249.114755859375,19.24461242675781,-248.952755859375,19.087612426757815,-248.755755859375,19.087612426757815C-248.560755859375,19.087612426757815,-248.401755859375,19.246612426757807,-248.401755859375,19.441612426757814L-248.401755859375,21.30661242675781L-245.261755859375,21.11361242675781L-245.261755859375,-27.11558757324218C-245.232755859375,-29.18908757324219,-243.530755859375,-30.847687573242183,-241.456755859375,-30.82388757324219L-230.428755859375,-30.82388757324219C-228.354755859375,-30.847687573242183,-226.653755859375,-29.18908757324219,-226.623755859375,-27.11558757324218L-226.623755859375,-19.40958757324219L-226.023755859375,-19.40958757324219L-226.023755859375,-21.18868757324219L-225.294755859375,-21.18868757324219L-225.294755859375,-19.40958757324219L-222.979755859375,-19.40958757324219L-222.979755859375,-21.18868757324219L-222.240755859375,-21.18868757324219L-222.240755859375,-19.40958757324219L-219.925755859375,-19.40958757324219L-219.925755859375,-21.18868757324219L-219.185755859375,-21.18868757324219L-219.185755859375,-19.40958757324219L-217.921755859375,-19.40958757324219L-216.849755859375,-61.744187573242186L-214.201755859375,-61.744187573242186L-214.201755859375,-66.24558757324219L-211.85475585937502,-66.24558757324219L-206.999755859375,-77.94918757324218L-206.999755859375,-103.80009057324219C-206.99375585937503,-104.17893457324219,-206.68175585937502,-104.48126675324218,-206.30375585937497,-104.47529762744219C-205.924755859375,-104.48125040324219,-205.612755859375,-104.1789265732422,-205.60675585937503,-103.80009057324219L-205.60675585937503,-78.07778757324219L-200.67675585937502,-66.20268757324219L-198.393755859375,-66.20268757324219L-198.393755859375,-61.70128757324219L-194.19275585937498,-61.70128757324219L-194.19275585937498,-61.283287573242184L-193.27075585937502,-23.23578757324219L-193.27075585937502,-23.085787573242186L-193.27075585937502,-22.732087573242183L-192.713755859375,0.6216124267578067L-181.427755859375,0.6216124267578067L-181.427755859375,5.422612426757809L-171.48175585937503,5.422612426757809L-171.48175585937503,-47.23248757324219L-158.62075585937498,-47.23248757324219L-158.62075585937498,-24.72548757324219L-158.127755859375,-24.72548757324219L-158.127755859375,-27.28708757324219C-158.12375585937502,-27.41548757324219,-158.04375585937498,-27.52938757324219,-157.92375585937498,-27.576387573242187L-156.85175585937498,-27.983687573242193L-156.744755859375,-27.983687573242193L-155.88775585937498,-27.983687573242193L-155.88775585937498,-28.498087573242188C-155.88775585937498,-28.668187573242193,-155.746755859375,-28.804287573242192,-155.576755859375,-28.79818757324219L-155.33075585937502,-28.79818757324219L-155.33075585937502,-29.602087573242187C-155.33075585937502,-29.77208757324219,-155.189755859375,-29.908187573242188,-155.01975585937498,-29.902187573242188L-154.665755859375,-29.902187573242188L-154.665755859375,-31.981387573242188C-154.665755859375,-32.06638757324218,-154.63075585937497,-32.147787573242184,-154.569755859375,-32.20638757324218L-154.30175585937502,-32.442187573242194L-154.30175585937502,-34.37138757324219C-154.30375585937497,-34.47008757324218,-154.254755859375,-34.563087573242186,-154.172755859375,-34.617887573242186L-153.86175585937502,-34.83228757324218L-153.86175585937502,-37.30798757324219C-153.859755859375,-37.40828757324219,-153.807755859375,-37.50078757324219,-153.722755859375,-37.554487573242184L-153.55175585937502,-37.66168757324219L-153.55175585937502,-37.96178757324219L-153.754755859375,-38.09038757324218C-153.838755859375,-38.14378757324219,-153.88775585937498,-38.237687573242184,-153.88375585937501,-38.336887573242194L-153.88375585937501,-42.87048757324219C-153.88375585937501,-42.968687573242185,-153.835755859375,-43.06078757324219,-153.754755859375,-43.116987573242184L-153.754755859375,-43.52418757324219L-153.81875585937502,-43.52418757324219C-153.98875585937498,-43.51818757324219,-154.129755859375,-43.654287573242186,-154.129755859375,-43.82428757324219L-154.129755859375,-44.43518757324219C-154.12375585937502,-44.600987573242186,-153.984755859375,-44.73058757324219,-153.81875585937502,-44.72458757324219L-153.36875585937503,-44.72458757324219L-153.36875585937503,-44.92818757324219L-153.81875585937502,-44.92818757324219C-153.98675585937502,-44.92818757324219,-154.124755859375,-45.06088757324219,-154.129755859375,-45.228287573242184L-154.129755859375,-45.62488757324219C-154.129755859375,-45.794887573242185,-153.98875585937498,-45.93108757324219,-153.81875585937502,-45.924987573242184L-153.679755859375,-45.924987573242184L-153.422755859375,-46.139287573242186L-153.36875585937503,-46.139287573242186L-153.36875585937503,-46.857387573242185C-153.538755859375,-46.85128757324219,-153.679755859375,-46.987487573242184,-153.679755859375,-47.157487573242186L-153.679755859375,-47.66118757324219C-153.67375585937498,-47.828687573242185,-153.53675585937498,-47.961387573242185,-153.36875585937503,-47.96128757324219L-152.961755859375,-47.96128757324219L-152.425755859375,-48.55078757324219L-152.307755859375,-62.10858757324219C-152.429755859375,-62.153187573242185,-152.51075585937502,-62.26848757324219,-152.511755859375,-62.39798757324219L-152.511755859375,-62.633687573242184C-152.511755859375,-62.803687573242186,-152.37075585937498,-62.93988757324219,-152.20075585937502,-62.933787573242185L-152.00775585937498,-62.933787573242185L-152.00775585937498,-68.59268757324219C-152.10375585937498,-68.66688757324218,-152.15975585937503,-68.7820875732422,-152.15775585937502,-68.90358757324219C-152.153755859375,-69.10858757324219,-151.997755859375,-69.27858757324219,-151.79375585937498,-69.3000875732422L-151.79375585937498,-72.51538757324218C-151.79375585937498,-72.7461875732422,-151.60675585937503,-72.93338757324219,-151.37575585937498,-72.93338757324219C-151.146755859375,-72.9276875732422,-150.963755859375,-72.74388757324219,-150.95775585937503,-72.51538757324218L-150.95775585937503,-69.3000875732422C-150.75575585937497,-69.27808757324219,-150.602755859375,-69.10688757324219,-150.60375585937498,-68.90358757324219C-150.602755859375,-68.78458757324219,-150.653755859375,-68.67098757324219,-150.742755859375,-68.59268757324219L-150.742755859375,-62.95528757324219L-150.550755859375,-62.95528757324219C-150.38075585937497,-62.96128757324219,-150.239755859375,-62.82518757324219,-150.239755859375,-62.65518757324219L-150.239755859375,-62.41938757324219C-150.24075585937499,-62.28988757324219,-150.321755859375,-62.17468757324219,-150.44275585937498,-62.12998757324219L-150.335755859375,-48.625787573242185L-149.778755859375,-47.982787573242184L-149.381755859375,-47.982787573242184C-149.21475585937497,-47.98288757324219,-149.076755859375,-47.850087573242185,-149.071755859375,-47.682687573242184L-149.071755859375,-47.157487573242186C-149.07075585937503,-46.987487573242184,-149.211755859375,-46.851387573242185,-149.381755859375,-46.857387573242185L-149.381755859375,-46.17148757324219C-149.32075585937503,-46.16028757324219,-149.264755859375,-46.130287573242185,-149.22175585937498,-46.08568757324219L-149.038755859375,-45.89278757324219L-148.93175585937502,-45.89278757324219C-148.761755859375,-45.898887573242185,-148.62075585937498,-45.762787573242186,-148.62075585937498,-45.59268757324219L-148.62075585937498,-45.196187573242184C-148.626755859375,-45.02868757324219,-148.764755859375,-44.89598757324219,-148.93175585937502,-44.896087573242184L-149.381755859375,-44.896087573242184L-149.381755859375,-44.69248757324219L-148.93175585937502,-44.69248757324219C-148.76575585937502,-44.69848757324219,-148.626755859375,-44.568887573242186,-148.62075585937498,-44.40308757324219L-148.62075585937498,-43.79218757324219C-148.62075585937498,-43.622187573242186,-148.761755859375,-43.485987573242184,-148.93175585937502,-43.49208757324219L-148.93175585937502,-43.106287573242184C-148.85475585937502,-43.046787573242185,-148.807755859375,-42.95678757324219,-148.80375585937497,-42.85978757324219L-148.80375585937497,-38.37978757324218C-148.807755859375,-38.277087573242184,-148.85875585937498,-38.182087573242185,-148.94275585937498,-38.122587573242185L-149.13575585937502,-38.004687573242194L-149.13575585937502,-37.70458757324219L-148.97475585937502,-37.59738757324219C-148.884755859375,-37.54778757324219,-148.82775585937497,-37.453887573242184,-148.824755859375,-37.35088757324219L-148.824755859375,-34.87508757324218L-148.513755859375,-34.66078757324219C-148.434755859375,-34.60338757324219,-148.386755859375,-34.512087573242184,-148.38575585937502,-34.41428757324219L-148.38575585937502,-32.48508757324218L-148.117755859375,-32.249287573242185C-148.057755859375,-32.18928757324218,-148.023755859375,-32.10878757324218,-148.02075585937502,-32.02418757324219L-148.02075585937502,-30.00928757324219L-147.49575585937498,-30.00928757324219C-147.32575585937502,-30.015387573242194,-147.184755859375,-29.87918757324219,-147.184755859375,-29.70918757324219L-147.184755859375,-28.905387573242194L-146.93875585937502,-28.905387573242194C-146.768755859375,-28.911487573242184,-146.627755859375,-28.77528757324218,-146.627755859375,-28.605287573242194L-146.627755859375,-28.090887573242185L-145.55575585937498,-28.090887573242185L-145.448755859375,-28.090887573242185L-144.376755859375,-27.683587573242193C-144.25775585937498,-27.636487573242192,-144.177755859375,-27.522687573242195,-144.17375585937498,-27.394187573242192L-144.17375585937498,-24.832687573242183L-142.56575585937497,-24.832687573242183C-142.39975585937498,-24.838687573242183,-142.26075585937502,-24.709087573242186,-142.254755859375,-24.543287573242182L-142.254755859375,-21.649587573242187L-141.95475585937498,-21.649587573242187C-141.79875585937498,-21.655787573242193,-141.665755859375,-21.537287573242182,-141.65475585937497,-21.381587573242186L-141.65475585937497,-19.506087573242183L-136.53175585937498,-19.506087573242183L-136.53175585937498,31.080612426757824L-132.14775585937502,31.080612426757824L-130.66875585937498,16.740612426757806C-130.67375585937498,16.70561242675781,-130.67375585937498,16.66961242675781,-130.66875585937498,16.633612426757807L-125.43875585937502,6.762612426757812L-125.43875585937502,6.655612426757813L-125.01075585937502,5.851612426757811L-124.088755859375,-19.97758757324219C-124.07775585937497,-20.140887573242182,-123.94175585937501,-20.26738757324219,-123.77775585937502,-20.26698757324219C-123.61475585937501,-20.261487573242192,-123.482755859375,-20.130287573242185,-123.47775585937501,-19.96688757324219L-123.04875585937498,3.611612426757816L-123.04875585937498,3.83661242675781L-115.54675585937503,0.6216124267578067C-115.45575585937502,0.5736124267578191,-115.34775585937501,0.5736124267578191,-115.25775585937498,0.6216124267578067C-115.172755859375,0.6706124267578133,-115.119755859375,0.7596124267578119,-115.117755859375,0.8576124267578109L-114.54975585937501,16.472612426757806L-113.85375585937498,17.233612426757816L-113.63875585937501,17.233612426757816L-112.85675585937503,18.069612426757814L-112.85675585937503,18.380612426757807C-112.814755859375,18.424612426757818,-112.78875585937499,18.481612426757806,-112.78175585937498,18.54161242675781L-111.70975585937498,25.882612426757817L-106.41475585937502,25.882612426757817L-106.41475585937502,3.397612426757817L-98.16275585937501,3.397612426757817L-98.16275585937501,-4.104387573242192C-98.22875585937498,-4.275387573242185,-98.153755859375,-4.469387573242187,-97.98875585937498,-4.549987573242191C-97.82475585937499,-4.630887573242191,-97.624755859375,-4.572587573242188,-97.530755859375,-4.415387573242185L-97.112755859375,-4.415387573242185L-97.112755859375,-16.74088757324219C-97.10975585937501,-16.858087573242187,-97.04975585937501,-16.966387573242187,-96.951755859375,-17.03028757324219L-95.75075585937498,-17.801987573242187L-95.75075585937498,-19.94548757324219C-95.75275585937499,-20.018587573242186,-95.72975585937502,-20.09018757324219,-95.68675585937501,-20.149087573242184L-95.20475585937498,-20.813587573242188L-95.20475585937498,-23.664487573242184C-95.20375585937501,-23.747387573242193,-95.17375585937498,-23.82738757324219,-95.11875585937503,-23.88958757324218L-94.46475585937497,-24.629087573242188L-94.46475585937497,-27.147687573242195C-94.468755859375,-27.229387573242192,-94.44175585937501,-27.309587573242183,-94.38975585937499,-27.372787573242192L-93.57575585937502,-28.380287573242185L-93.57575585937502,-31.016787573242183C-93.57475585937499,-31.12618757324219,-93.52275585937502,-31.229087573242182,-93.43575585937498,-31.295487573242184L-92.52475585937498,-31.992087573242188L-92.52475585937498,-34.66078757324219C-92.52675585937499,-34.76288757324218,-92.48375585937498,-34.860587573242185,-92.40775585937502,-34.928687573242186L-91.667755859375,-35.58248757324219L-91.667755859375,-38.454787573242186C-91.68375585937503,-38.51078757324218,-91.68375585937503,-38.57028757324218,-91.667755859375,-38.62628757324218L-91.206755859375,-39.45158757324219L-91.206755859375,-42.19528757324219C-91.11575585937499,-42.76968757324219,-90.88775585937498,-43.313687573242184,-90.542755859375,-43.78148757324219L-90.39275585937497,-57.57498757324219C-90.39275585937497,-57.69288757324219,-90.350755859375,-57.806887573242186,-90.27475585937498,-57.896587573242186C-90.22475585937502,-57.99368757324219,-90.13475585937499,-58.06418757324219,-90.02775585937502,-58.08948757324219L-89.75975585937499,-58.08948757324219C-89.65275585937502,-58.06698757324219,-89.56075585937498,-57.995687573242186,-89.51375585937501,-57.896587573242186C-89.43875585937502,-57.805987573242184,-89.39675585937499,-57.69248757324219,-89.39575585937502,-57.57498757324219L-89.256755859375,-43.78148757324219C-88.90475585937497,-43.31978757324219,-88.672755859375,-42.77868757324219,-88.58075585937502,-42.20598757324219L-88.58075585937502,-39.45158757324219L-88.119755859375,-38.62628757324218C-88.10375585937498,-38.57028757324218,-88.10375585937498,-38.51078757324218,-88.119755859375,-38.454787573242186L-88.119755859375,-35.58248757324219L-87.38075585937497,-34.928687573242186C-87.304755859375,-34.860587573242185,-87.261755859375,-34.76288757324218,-87.26275585937498,-34.66078757324219L-87.26275585937498,-31.992087573242188L-86.35175585937498,-31.306187573242184C-86.26475585937499,-31.23548757324218,-86.21275585937502,-31.12928757324218,-86.21275585937502,-31.016787573242183L-86.21275585937502,-28.380287573242185L-85.39775585937502,-27.372787573242192C-85.350755859375,-27.306887573242193,-85.32475585937499,-27.22848757324219,-85.32275585937498,-27.147687573242195L-85.32275585937498,-24.650487573242188L-84.66875585937498,-23.91098757324218C-84.61475585937501,-23.84878757324219,-84.583755859375,-23.768887573242182,-84.583755859375,-23.685887573242184L-84.583755859375,-20.83508757324219L-84.100755859375,-20.170587573242187C-84.05875585937503,-20.11088757324218,-84.03675585937498,-20.039787573242194,-84.03675585937498,-19.96688757324219L-84.03675585937498,-17.823387573242186L-82.84675585937498,-17.05168757324219C-82.74375585937503,-16.99188757324218,-82.67875585937497,-16.88208757324219,-82.67575585937499,-16.762387573242194L-82.67575585937499,-4.437387573242191L-82.268755859375,-4.437387573242191C-82.071755859375,-4.437387573242191,-81.90975585937503,-4.280387573242194,-81.903755859375,-4.083387573242192L-81.903755859375,26.2366124267578L-75.74175585937502,26.2366124267578L-75.74175585937502,-33.696187573242184L-68.59275585937502,-26.79398757324219L-68.59275585937502,-5.691087573242186L-66.266755859375,-5.691087573242186L-66.266755859375,15.10161242675781L-64.68075585937498,14.83361242675781L-64.68075585937498,39.3016124267578L-61.92675585937502,39.890612426757826L-61.92675585937502,42.0346124267578L-56.87875585937502,42.0346124267578L-56.87875585937502,34.96061242675782L-50.64075585937502,34.96061242675782L-50.64075585937502,7.019612426757817L-37.865755859374985,7.019612426757817L-37.865755859374985,1.1896124267578188C-37.865755859374985,0.9946124267578114,-37.706755859374994,0.8356124267578195,-37.511755859375,0.8356124267578195L-37.02975585937497,0.8356124267578195C-36.829755859374984,0.8296124267578193,-36.66475585937502,0.9896124267578159,-36.66475585937502,1.1896124267578188L-36.66475585937502,1.3936124267578123L-36.15075585937501,1.3936124267578123L-36.15075585937501,-12.10018757324218C-36.14975585937498,-12.209587573242189,-36.09775585937501,-12.312487573242194,-36.010755859375024,-12.378887573242181C-35.92075585937499,-12.442587573242193,-35.808755859375026,-12.465887573242185,-35.70075585937502,-12.443187573242184L-35.56075585937498,-12.443187573242184L-35.56075585937498,-16.076387573242187C-35.559755859375,-16.185887573242184,-35.508755859375015,-16.28878757324219,-35.421755859375025,-16.355087573242187C-35.331755859374994,-16.42068757324219,-35.216755859374985,-16.440587573242183,-35.11075585937499,-16.40868757324219L-34.03875585937499,-16.14068757324219L-33.66375585937499,-16.14068757324219C-33.59975585937502,-16.25198757324219,-33.48175585937503,-16.321187573242184,-33.35275585937501,-16.322887573242184L-33.020755859375015,-16.322887573242184C-32.934755859375,-16.322287573242193,-32.851755859374975,-16.29198757324218,-32.784755859375025,-16.23718757324218L-32.784755859375025,-21.11368757324219C-32.78675585937498,-21.22928757324219,-32.730755859374995,-21.33808757324219,-32.63475585937499,-21.40308757324219C-32.530755859375006,-21.454787573242186,-32.407755859375015,-21.454787573242186,-32.302755859375,-21.40308757324219L-31.552755859374997,-21.12438757324219C-31.43575585937498,-21.081087573242186,-31.349755859375023,-20.97928757324219,-31.327755859374975,-20.85648757324219L-31.327755859374975,-22.94638757324219C-31.327755859374975,-23.03468757324218,-31.293755859374983,-23.119587573242185,-31.230755859374995,-23.18218757324219L-30.855755859374995,-23.557287573242192C-30.70975585937498,-23.700287573242193,-30.476755859374975,-23.700287573242193,-30.330755859375017,-23.557287573242192L-29.966755859374985,-23.18218757324219C-29.89675585937499,-23.123887573242186,-29.857755859375004,-23.037187573242193,-29.85875585937498,-22.94638757324219L-29.85875585937498,-20.85648757324219C-29.841755859374985,-20.97208757324219,-29.76375585937501,-21.06978757324218,-29.655755859375006,-21.11368757324219L-28.937755859374988,-21.43518757324219C-28.831755859374994,-21.498787573242183,-28.69975585937499,-21.498787573242183,-28.594755859375027,-21.43518757324219C-28.493755859375028,-21.37418757324218,-28.431755859375016,-21.264087573242193,-28.433755859375026,-21.14588757324219L-28.433755859375026,-16.25858757324218C-28.367755859374995,-16.31338757324218,-28.283755859374992,-16.343687573242192,-28.19775585937498,-16.344387573242187L-27.865755859374985,-16.344387573242187C-27.737755859375,-16.342687573242188,-27.618755859375028,-16.27338757324219,-27.554755859375007,-16.162187573242193L-27.168755859374983,-16.162187573242193L-26.097755859375013,-16.43008757324219C-25.990755859374985,-16.461987573242183,-25.875755859374976,-16.442187573242194,-25.786755859374978,-16.376487573242187C-25.724755859375023,-16.28968757324219,-25.701755859374998,-16.18108757324218,-25.722755859375013,-16.076387573242187L-25.722755859375013,-12.410987573242181L-25.529755859374973,-12.410987573242181C-25.421755859375025,-12.433787573242185,-25.308755859375026,-12.410487573242193,-25.218755859374994,-12.346687573242193C-25.131755859375005,-12.280387573242194,-25.079755859374984,-12.177487573242189,-25.078755859375008,-12.067987573242192L-25.078755859375008,1.3936124267578123L-24.928755859374974,1.3936124267578123L-24.928755859374974,1.1896124267578188C-24.928755859374974,0.9946124267578114,-24.770755859375015,0.8356124267578195,-24.575755859375022,0.8356124267578195L-24.092755859375018,0.8356124267578195C-23.893755859375005,0.8296124267578193,-23.728755859374985,0.9896124267578159,-23.728755859374985,1.1896124267578188L-23.728755859374985,7.019612426757817L-22.421755859375025,7.019612426757817L-22.421755859375025,30.780612426757813C-22.36675585937502,30.84761242675782,-22.335755859375013,30.93061242675782,-22.335755859375013,31.016612426757803L-22.335755859375013,39.11961242675781L-11.467755859375018,39.11961242675781L-11.467755859375018,46.37461242675781L-8.252755859374986,45.5286124267578L-3.686755859375012,46.600612426757806L-3.686755859375012,45.99961242675781C-3.697755859374979,45.95461242675782,-3.697755859374979,45.90661242675782,-3.686755859375012,45.860612426757825L-3.5257558593750105,45.44261242675782L-3.5257558593750105,43.8676124267578C-3.5357558593750014,43.832612426757805,-3.5357558593750014,43.79461242675782,-3.5257558593750105,43.759612426757826L-3.236755859375023,42.870612426757816C-3.180755859374983,42.69861242675782,-3.0077558593749814,42.5936124267578,-2.829755859374984,42.6236124267578C-2.6577558593750155,42.65461242675781,-2.5317558593749823,42.802612426757804,-2.5297558593749727,42.977612426757815L-2.5297558593749727,44.53161242675782L-2.3147558593749977,44.12461242675781C-2.2377558593749995,43.99961242675781,-2.09675585937498,43.92861242675781,-1.9507558593750218,43.94261242675782C-1.7907558593749968,43.9806124267578,-1.676755859375021,44.12161242675782,-1.6717558593750255,44.28561242675781L-1.6717558593750255,45.27161242675783L-1.5437558593749827,45.27161242675783L-0.6967558593750027,45.27161242675783L-0.6967558593750027,28.47661242675781C-0.6907558593749741,28.279612426757808,-0.5297558593749727,28.122612426757826,-0.33175585937499363,28.122612426757826L-0.06475585937499773,27.8016124267578L-0.06475585937499773,27.19061242675781C-0.08775585937502228,26.953612426757815,0.118244140624995,26.757612426757817,0.35324414062500864,26.793612426757818L0.750244140625,26.793612426757818L0.750244140625,21.810612426757814C0.7452441406250045,21.774612426757812,0.7452441406250045,21.73861242675781,0.750244140625,21.703612426757815L0.750244140625,21.081612426757815C0.7442441406250282,21.049612426757818,0.7442441406250282,21.016612426757817,0.750244140625,20.984612426757806L0.750244140625,19.977612426757815C0.7442441406250282,19.94261242675782,0.7442441406250282,19.905612426757813,0.750244140625,19.870612426757816L0.750244140625,18.862612426757806C0.7442441406250282,18.82761242675781,0.7442441406250282,18.79161242675781,0.750244140625,18.755612426757807L0.750244140625,17.758612426757807C0.7442441406250282,17.72361242675781,0.7442441406250282,17.68761242675781,0.750244140625,17.651612426757808L0.750244140625,15.508612426757807C0.7482441406249905,15.435612426757814,0.771244140625015,15.363612426757811,0.8142441406250214,15.304612426757814L1.0722441406250027,14.875612426757812L1.5322441406249823,13.611612426757816C1.5892441406249986,13.47061242675781,1.7242441406249895,13.377612426757807,1.875244140625,13.375612426757812C2.0332441406250155,13.377612426757807,2.1722441406250255,13.481612426757806,2.2182441406250177,13.632612426757817L2.3362441406250127,14.018612426757812L3.601244140624999,10.921612426757818L3.601244140624999,9.742612426757816C3.5892441406249986,9.692612426757819,3.5892441406249986,9.641612426757817,3.601244140624999,9.59261242675781L3.9222441406250255,8.874612426757807L3.9222441406250255,7.738612426757811C3.955244140624984,7.623612426757816,4.044244140624983,7.534612426757818,4.1582441406250155,7.502612426757807L4.4152441406250205,7.341612426757806L4.4152441406250205,6.741612426757811C4.399244140625001,6.6966124267578095,4.399244140625001,6.646612426757812,4.4152441406250205,6.601612426757811L4.619244140625028,6.119612426757811L4.619244140625028,4.587612426757815C4.647244140624991,4.3996124267578125,4.817244140625007,4.2676124267578075,5.0052441406249955,4.286612426757813L5.3592441406249804,4.286612426757813C5.556244140624983,4.286612426757813,5.7172441406249845,4.443612426757809,5.723244140625013,4.640612426757812L5.723244140625013,5.840612426757815L6.055244140625007,6.601612426757811C6.060244140625002,6.648612426757808,6.060244140625002,6.694612426757814,6.055244140625007,6.741612426757811L6.055244140625007,7.287612426757818L6.345244140625027,7.502612426757807C6.443244140624984,7.566612426757814,6.503244140624986,7.674612426757818,6.5052441406249955,7.791612426757808L6.5052441406249955,8.874612426757807L6.838244140625022,9.645612426757808C6.848244140625013,9.695612426757819,6.848244140625013,9.746612426757807,6.838244140625022,9.795612426757813L6.838244140625022,10.996612426757807L8.145244140624982,13.932612426757814L8.25224414062501,13.58961242675781C8.305244140625007,13.459612426757815,8.433244140624993,13.374612426757807,8.574244140625012,13.375612426757812C8.730244140625018,13.370612426757816,8.872244140625014,13.46461242675781,8.928244140624997,13.611612426757816L9.388244140624977,14.875612426757812L9.656244140625006,15.261612426757807C9.701244140625022,15.319612426757814,9.72424414062499,15.392612426757807,9.721244140625004,15.465612426757815L9.721244140625004,16.537612426757818C9.737244140625023,16.593612426757815,9.737244140625023,16.652612426757813,9.721244140625004,16.70861242675781L9.721244140625004,22.06761242675782C9.737244140625023,22.123612426757816,9.737244140625023,22.182612426757814,9.721244140625004,22.23861242675781L9.721244140625004,26.793612426757818L9.839244140624999,26.793612426757818L10.13924414062501,26.793612426757818C10.336244140625013,26.793612426757818,10.497244140625014,26.9506124267578,10.503244140624986,27.147612426757803L10.503244140624986,27.75861242675782L10.771244140625015,28.080612426757824C10.966244140625008,28.080612426757824,11.125244140625,28.23861242675781,11.125244140625,28.433612426757804L11.125244140625,45.29261242675781L11.789244140624987,45.29261242675781L12.218244140625018,45.2066124267578L12.218244140625018,44.28561242675781C12.223244140625013,44.12161242675782,12.337244140624989,43.9806124267578,12.496244140624981,43.94261242675782C12.657244140624982,43.91061242675781,12.820244140624993,43.983612426757816,12.904244140624996,44.12461242675781L13.118244140624995,44.53161242675782L13.118244140624995,42.977612426757815C13.116244140624985,42.8016124267578,13.244244140625028,42.65061242675782,13.418244140625006,42.6236124267578C13.590244140624975,42.5936124267578,13.759244140625015,42.693612426757824,13.815244140624998,42.85961242675782L14.115244140625009,43.759612426757826C14.122244140625014,43.7956124267578,14.122244140625014,43.8316124267578,14.115244140625009,43.8676124267578L14.115244140625009,45.485612426757825L14.27624414062501,45.9036124267578C14.282244140624982,45.949612426757824,14.282244140624982,45.99661242675782,14.27624414062501,46.04261242675781L14.104244140624985,48.497612426757826L14.329244140625008,48.7006124267578C14.404244140624996,48.765612426757826,14.447244140625003,48.85961242675782,14.447244140625003,48.957612426757805L14.447244140625003,53.727612426757815L18.048244140625002,53.727612426757815L18.048244140625002,76.98461242675782L34.29624414062499,76.98461242675782L34.29624414062499,56.8676124267578L39.065244140625,56.8676124267578L39.065244140625,36.439612426757805L53.93124414062504,36.439612426757805L53.93124414062504,46.08561242675782L59.686244140625035,46.08561242675782C61.76424414062501,46.06161242675782,63.467244140624985,47.72661242675781,63.491244140624985,49.804612426757814L63.491244140624985,50.56561242675781L65.827244140625,50.56561242675781L65.827244140625,64.30561242675782L69.45024414062505,64.30561242675782C71.52324414062502,64.28761242675782,73.22024414062503,65.9516124267578,73.24424414062503,68.02461242675781L73.24424414062503,75.15161242675782L78.33524414062504,75.15161242675782L78.33524414062504,80.76761242675781L82.30024414062495,80.76761242675781L82.30024414062495,88.70961242675781L65.827244140625,88.70961242675781L65.827244140625,89.5346124267578ZM36.804244140624974,89.25661242675781L65.53824414062501,89.25661242675781L65.53824414062501,88.37761242675782L82.01124414062497,88.37761242675782L82.01124414062497,81.00361242675783L78.04524414062496,81.00361242675783L78.04524414062496,75.38761242675781L72.95524414062504,75.38761242675781L72.95524414062504,67.9816124267578C72.93124414062504,66.06861242675782,71.36424414062503,64.5346124267578,69.45024414062505,64.5526124267578L65.53824414062501,64.5526124267578L65.53824414062501,50.854612426757825L63.23424414062504,50.854612426757825L63.23424414062504,49.7836124267578C63.210244140625036,47.86561242675782,61.63624414062497,46.32961242675782,59.71824414062496,46.35361242675782L53.64124414062496,46.35361242675782L53.64124414062496,36.707612426757805L39.387244140625,36.707612426757805L39.387244140625,57.17861242675781L34.618244140624995,57.17861242675781L34.618244140624995,77.26361242675782L17.759244140625015,77.26361242675782L17.759244140625015,54.00561242675781L14.158244140625015,54.00561242675781L14.158244140625015,48.957612426757805L13.825244140624989,48.66861242675782L14.008244140624981,46.074612426757824L13.836244140625013,45.592612426757825L13.836244140625013,43.8676124267578L13.536244140625001,42.9566124267578C13.512244140625,42.9446124267578,13.485244140625014,42.9446124267578,13.461244140625013,42.9566124267578C13.424244140624978,42.961612426757824,13.396244140625015,42.99361242675781,13.397244140624991,43.03161242675782L13.397244140624991,44.820612426757805L12.968244140625018,44.9386124267578L12.636244140625024,44.31761242675782C12.616244140624985,44.30561242675782,12.591244140625008,44.30561242675782,12.572244140625003,44.31761242675782Q12.496244140624981,44.31761242675782,12.496244140624981,44.38161242675781L12.496244140624981,45.44261242675782L11.800244140625011,45.57161242675781L10.932244140625016,45.57161242675781L10.932244140625016,28.42261242675781C10.932244140625016,28.387612426757812,10.90324414062502,28.358612426757816,10.867244140625019,28.358612426757816L10.610244140625014,28.358612426757816L10.610244140625014,28.2306124267578L10.214244140624999,27.86561242675782L10.214244140624999,27.1586124267578C10.223244140625013,27.11961242675781,10.188244140624988,27.08561242675782,10.149244140625001,27.094612426757806L9.84924414062499,27.094612426757806Q9.774244140625001,27.094612426757806,9.774244140625001,27.1586124267578L9.774244140625001,27.86561242675782L9.442244140625007,28.155612426757813L9.442244140625007,22.19661242675781L9.442244140625007,16.837612426757815L9.442244140625007,15.658612426757813L9.131244140624972,15.004612426757816L8.660244140625025,13.718612426757815C8.640244140624986,13.706612426757815,8.615244140625009,13.706612426757815,8.595244140625027,13.718612426757815C8.575244140624989,13.706612426757815,8.551244140624988,13.706612426757815,8.531244140625006,13.718612426757815L8.199244140625012,14.85461242675781L6.580244140624984,10.974612426757815L6.580244140624984,9.69961242675781L6.216244140625008,8.906612426757818L6.216244140625008,7.738612426757811L5.830244140624984,7.491612426757811L5.830244140624984,6.741612426757811L5.476244140624999,5.873612426757816L5.476244140624999,4.587612426757815C5.478244140625009,4.5586124267578185,5.462244140624989,4.532612426757808,5.437244140625012,4.518612426757812C5.412244140624978,4.5046124267578165,5.382244140625005,4.506612426757812,5.3592441406249804,4.522612426757817L5.0052441406249955,4.522612426757817C4.969244140624994,4.522612426757817,4.941244140624974,4.5516124267578135,4.941244140624974,4.587612426757815L4.941244140624974,6.20561242675781L4.716244140625008,6.719612426757806L4.716244140625008,7.437612426757809L4.287244140624978,7.684612426757809L4.287244140624978,8.959612426757815L3.955244140624984,9.71061242675782L3.955244140624984,10.996612426757807L2.3152441406249977,14.897612426757817L1.97224414062498,13.70761242675782C1.9522441406249982,13.69661242675781,1.927244140625021,13.69661242675781,1.9082441406250155,13.70761242675782Q1.854244140624985,13.70761242675782,1.8322441406249936,13.70761242675782L1.3502441406250227,15.004612426757816L1.0722441406250027,15.422612426757809L1.0722441406250027,17.68361242675782L1.0722441406250027,18.68061242675782L1.0722441406250027,19.838612426757805L1.0722441406250027,21.638612426757817L1.0722441406250027,27.93061242675782L0.7182441406250177,27.86561242675782L0.7182441406250177,27.211612426757824C0.7182441406250177,27.1766124267578,0.6892441406250214,27.147612426757803,0.6542441406249964,27.147612426757803L0.35324414062500864,27.147612426757803C0.3152441406249977,27.138612426757817,0.2802441406249727,27.173612426757813,0.28924414062498727,27.211612426757824L0.28924414062498727,27.86561242675782L-0.06475585937499773,28.272612426757803L-0.06475585937499773,28.36961242675781L-0.19275585937498363,28.36961242675781L-0.33175585937499363,28.36961242675781C-0.36975585937500455,28.36961242675781,-0.4017558593749868,28.396612426757827,-0.40775585937501546,28.433612426757804L-0.40775585937501546,45.5816124267578L-1.5647558593749977,45.5816124267578L-1.961755859374989,45.51761242675781L-1.961755859374989,44.28561242675781C-1.9517558593749982,44.26461242675782,-1.9517558593749982,44.241612426757825,-1.961755859374989,44.22061242675781C-2.0147558593749864,44.22061242675781,-2.0367558593749777,44.22061242675781,-2.0467558593750255,44.22061242675781L-2.3797558593749955,44.842612426757825L-2.8077558593749927,44.7246124267578L-2.8077558593749927,42.977612426757815C-2.7787558593749964,42.9446124267578,-2.780755859375006,42.89461242675782,-2.8137558593750214,42.864612426757816C-2.8457558593750036,42.83561242675782,-2.8967558593749914,42.8376124267578,-2.9257558593749877,42.870612426757816C-2.9487558593750123,42.856612426757806,-2.9777558593750086,42.856612426757806,-3.0007558593749764,42.870612426757816L-3.3007558593749877,43.759612426757826L-3.3007558593749877,45.4746124267578L-3.472755859375013,45.9146124267578L-3.3977558593750246,46.921612426757804L-8.284755859375025,45.7426124267578L-11.746755859375014,46.6646124267578L-11.746755859375014,39.3976124267578L-22.635755859375024,39.3976124267578L-22.635755859375024,31.016612426757803L-22.68875585937502,30.95261242675781L-22.68875585937502,7.373612426757816L-23.996755859375014,7.373612426757816L-23.996755859375014,1.1896124267578188C-23.963755859375,1.1596124267578176,-23.96175585937499,1.1096124267578062,-23.99175585937502,1.0776124267578098C-24.020755859375015,1.0446124267578085,-24.071755859375003,1.0426124267578132,-24.103755859374985,1.0716124267578095L-24.585755859375013,1.0716124267578095C-24.623755859375024,1.0776124267578098,-24.65075585937501,1.1096124267578062,-24.65075585937501,1.1466124267578124L-24.65075585937501,1.6396124267578074L-25.314755859374998,1.6396124267578074L-25.379755859374995,1.478612426757806L-25.379755859374995,-12.10018757324218C-25.369755859375005,-12.116787573242192,-25.369755859375005,-12.137187573242187,-25.379755859374995,-12.153787573242184L-25.94775585937498,-12.014487573242192L-25.94775585937498,-16.076387573242187L-27.018755859375005,-15.79778757324219L-27.865755859374985,-15.79778757324219L-27.865755859374985,-15.915687573242181C-27.889755859374986,-15.927187573242193,-27.916755859374973,-15.927187573242193,-27.940755859374974,-15.915687573242181L-28.272755859375025,-15.915687573242181C-28.292755859375006,-15.927187573242193,-28.317755859374984,-15.927187573242193,-28.337755859375022,-15.915687573242181L-28.337755859375022,-15.79778757324219L-28.776755859374987,-15.79778757324219L-28.776755859374987,-21.11368757324219C-28.766755859374996,-21.130287573242185,-28.766755859374996,-21.15068757324218,-28.776755859374987,-21.16728757324219L-28.840755859375008,-21.16728757324219L-29.494755859375005,-20.88858757324219C-29.504755859374995,-20.868287573242185,-29.504755859374995,-20.844687573242183,-29.494755859375005,-20.824287573242188L-29.494755859375005,-20.609987573242194L-30.08475585937498,-20.609987573242194L-30.08475585937498,-22.978587573242194L-30.45975585937498,-23.353687573242183C-30.490755859374985,-23.378787573242192,-30.535755859375,-23.378787573242192,-30.566755859375007,-23.353687573242183L-30.930755859374983,-22.978587573242194L-30.930755859374983,-20.609987573242194L-31.530755859375006,-20.609987573242194L-31.530755859375006,-20.824287573242188C-31.519755859374982,-20.84418757324218,-31.519755859374982,-20.868687573242184,-31.530755859375006,-20.88858757324219L-32.270755859375015,-21.16728757324219L-32.33475585937498,-21.16728757324219C-32.34475585937503,-21.15068757324218,-32.34475585937503,-21.130287573242185,-32.33475585937498,-21.11368757324219L-32.33475585937498,-15.851387573242192L-32.77475585937498,-15.851387573242192L-32.77475585937498,-15.969287573242184C-32.797755859375,-15.980787573242182,-32.82575585937502,-15.980787573242182,-32.84975585937502,-15.969287573242184L-33.181755859375016,-15.969287573242184C-33.201755859375,-15.980687573242193,-33.225755859375,-15.980687573242193,-33.24575585937498,-15.969287573242184L-33.24575585937498,-15.851387573242192L-33.910755859375,-15.851387573242192L-34.982755859375004,-16.12998757324219L-34.982755859375004,-12.10018757324218L-35.48575585937499,-12.228787573242187L-35.55075585937499,-12.228787573242187C-35.55575585937498,-12.211387573242192,-35.55575585937498,-12.192587573242193,-35.55075585937499,-12.175187573242184L-35.55075585937499,1.478612426757806L-35.55075585937499,1.607612426757811L-36.621755859375014,1.607612426757811L-36.621755859375014,1.1896124267578188C-36.589755859374975,1.0746124267578097,-36.65675585937498,0.9546124267578193,-36.77175585937499,0.9216124267578181C-36.88775585937498,0.8896124267578074,-37.00775585937498,0.9566124267578147,-37.03975585937502,1.0716124267578095L-37.511755859375,1.0716124267578095C-37.54875585937498,1.0776124267578098,-37.576755859375,1.1096124267578062,-37.57575585937502,1.1466124267578124L-37.57575585937502,7.255612426757807L-50.37275585937499,7.255612426757807L-50.37275585937499,35.22861242675782L-56.62075585937498,35.22861242675782L-56.62075585937498,42.302612426757804L-62.24775585937499,42.302612426757804L-62.24775585937499,40.11561242675782L-65.00275585937499,39.53761242675782L-65.00275585937499,15.176612426757814L-66.588755859375,15.433612426757819L-66.588755859375,-5.358787573242182L-68.91375585937499,-5.358787573242182L-68.91375585937499,-26.665387573242185L-75.41975585937502,-33.01028757324218L-75.41975585937502,26.515612426757826L-82.160755859375,26.515612426757826L-82.160755859375,-4.062387573242191C-82.160755859375,-4.103387573242188,-82.194755859375,-4.137387573242194,-82.23675585937502,-4.137387573242194L-82.94375585937502,-4.137387573242194L-82.94375585937502,-16.74088757324219C-82.93775585937499,-16.758287573242185,-82.93775585937499,-16.777087573242184,-82.94375585937502,-16.794487573242193L-84.27275585937502,-17.651887573242192L-84.27275585937502,-19.92408757324219L-84.797755859375,-20.663587573242182L-84.797755859375,-23.60018757324218L-85.51575585937502,-24.41468757324219L-85.51575585937502,-27.040587573242192L-86.39475585937498,-28.112287573242185L-86.39475585937498,-30.85598757324219C-86.38475585937499,-30.876387573242184,-86.38475585937499,-30.899987573242186,-86.39475585937498,-30.92028757324219L-87.46675585937498,-31.691987573242187L-87.46675585937498,-34.499987573242194L-88.302755859375,-35.23948757324219L-88.302755859375,-38.24048757324219L-88.79575585937499,-39.14068757324219L-88.79575585937499,-42.120187573242184C-88.87575585937498,-42.662587573242185,-89.093755859375,-43.17538757324219,-89.427755859375,-43.609987573242186L-89.56675585937501,-57.54288757324219C-89.56775585937498,-57.59938757324219,-89.59075585937501,-57.65328757324219,-89.631755859375,-57.69288757324219L-89.78175585937498,-57.69288757324219C-89.79675585937503,-57.643987573242185,-89.79675585937503,-57.591787573242186,-89.78175585937498,-57.54288757324219L-89.93175585937502,-43.609987573242186C-90.25575585937497,-43.17078757324219,-90.468755859375,-42.65968757324219,-90.552755859375,-42.120187573242184L-90.552755859375,-39.36578757324219L-91.04575585937499,-38.465487573242186L-91.04575585937499,-35.464587573242184L-91.881755859375,-34.72508757324219L-91.881755859375,-31.917087573242185L-93.242755859375,-31.081087573242186C-93.25275585937499,-31.06068757324219,-93.25275585937499,-31.03708757324219,-93.242755859375,-31.016787573242183L-93.242755859375,-28.273087573242194L-94.12175585937501,-27.201287573242183L-94.12175585937501,-24.575487573242185L-94.850755859375,-23.76098757324219L-94.850755859375,-20.824287573242188L-95.386755859375,-20.08478757324218L-95.386755859375,-17.812687573242187L-96.71575585937501,-16.955287573242188C-96.725755859375,-16.93868757324219,-96.725755859375,-16.918287573242182,-96.71575585937501,-16.901687573242185L-96.71575585937501,-4.137387573242194L-97.530755859375,-4.137387573242194C-97.56775585937498,-4.131387573242193,-97.59475585937503,-4.099387573242183,-97.59475585937503,-4.062387573242191L-97.59475585937503,3.6766124267578135L-105.84675585937498,3.6766124267578135L-105.84675585937498,26.268612426757812L-111.677755859375,26.268612426757812L-112.749755859375,18.68061242675782L-112.845755859375,18.57361242675782L-112.845755859375,18.262612426757812L-113.47775585937501,17.587612426757815L-113.69275585937498,17.587612426757815L-114.53875585937499,16.644612426757817L-115.117755859375,0.9966124267578067L-123.09175585937498,4.286612426757813L-123.552755859375,-19.999087573242193L-124.47475585937502,5.894612426757817L-124.98875585937498,6.859612426757806L-130.22975585937502,16.740612426757806L-131.72975585937502,31.348612426757825L-136.670755859375,31.348612426757825L-136.670755859375,-19.152387573242194L-141.79375585937498,-19.152387573242194L-141.79375585937498,-21.027987573242186L-141.79375585937498,-21.285187573242183L-141.997755859375,-21.285187573242183L-142.393755859375,-21.285187573242183L-142.393755859375,-24.500487573242182L-144.312755859375,-24.500487573242182L-144.312755859375,-27.34058757324219L-145.384755859375,-27.780087573242184L-146.788755859375,-27.780087573242184L-146.788755859375,-28.573187573242194L-147.345755859375,-28.573187573242194L-147.345755859375,-29.644887573242187L-148.18175585937502,-29.644887573242187L-148.18175585937502,-32.00278757324219L-148.545755859375,-32.33498757324219L-148.545755859375,-34.39278757324219L-148.985755859375,-34.70358757324219L-148.985755859375,-37.32948757324219L-149.29675585937503,-37.522387573242185L-149.29675585937503,-38.133287573242185L-148.97475585937502,-38.347587573242194L-148.97475585937502,-42.87048757324219L-149.13575585937502,-42.999087573242186L-149.13575585937502,-43.80288757324219L-148.824755859375,-43.80288757324219L-148.824755859375,-44.43518757324219L-149.59675585937498,-44.43518757324219L-149.59675585937498,-45.206887573242184L-148.845755859375,-45.206887573242184L-148.845755859375,-45.61418757324219L-149.10375585937498,-45.61418757324219L-149.371755859375,-45.89278757324219L-149.617755859375,-45.89278757324219L-149.617755859375,-47.157487573242186L-149.29675585937503,-47.157487573242186L-149.29675585937503,-47.682687573242184L-149.84275585937502,-47.682687573242184L-150.550755859375,-48.507887573242186L-150.550755859375,-48.56148757324219L-150.65775585937502,-62.38718757324219L-150.475755859375,-62.38718757324219L-150.475755859375,-62.64448757324219L-150.97875585937498,-62.64448757324219L-150.97875585937498,-68.71058757324218L-150.903755859375,-68.71058757324218C-150.859755859375,-68.73268757324219,-150.83475585937498,-68.77968757324219,-150.83975585937497,-68.82848757324219C-150.83975585937497,-68.89808757324218,-150.898755859375,-68.95268757324219,-150.968755859375,-68.94638757324219L-151.19375585937502,-68.94638757324219L-151.19375585937502,-72.46178757324219C-151.19375585937502,-72.53278757324219,-151.25075585937498,-72.59038757324218,-151.321755859375,-72.59038757324218C-151.39275585937497,-72.59038757324218,-151.45075585937502,-72.53278757324219,-151.45075585937502,-72.46178757324219L-151.45075585937502,-68.94638757324219L-151.686755859375,-68.94638757324219C-151.75375585937502,-68.94668757324219,-151.809755859375,-68.89528757324219,-151.814755859375,-68.82848757324219C-151.81575585937497,-68.7778875732422,-151.785755859375,-68.7316875732422,-151.739755859375,-68.71058757324218L-151.66475585937502,-68.71058757324218L-151.66475585937502,-62.64448757324219L-152.189755859375,-62.64448757324219L-152.189755859375,-62.38718757324219L-152.03975585937502,-62.38718757324219L-152.15775585937502,-48.45428757324219L-152.85475585937502,-47.69338757324219L-153.39075585937502,-47.69338757324219L-153.39075585937502,-47.178887573242186L-153.057755859375,-47.178887573242186L-153.057755859375,-45.935687573242184L-153.19775585937498,-45.935687573242184L-153.561755859375,-45.65698757324219L-153.797755859375,-45.65698757324219L-153.797755859375,-45.23908757324219L-153.03675585937498,-45.23908757324219L-153.03675585937498,-44.467387573242185L-153.776755859375,-44.467387573242185L-153.776755859375,-43.845787573242184L-153.400755859375,-43.845787573242184L-153.400755859375,-43.020487573242185L-153.540755859375,-42.92408757324219L-153.540755859375,-38.433387573242186L-153.208755859375,-38.20828757324219L-153.208755859375,-37.59738757324219L-153.50875585937501,-37.41518757324219L-153.50875585937501,-34.77868757324218L-153.94775585937498,-34.478587573242194L-153.94775585937498,-32.410087573242194L-154.30175585937502,-32.088587573242194L-154.30175585937502,-29.719987573242193L-154.944755859375,-29.719987573242193L-154.944755859375,-28.648187573242183L-155.480755859375,-28.648187573242183L-155.480755859375,-27.833687573242187L-156.626755859375,-27.833687573242187L-157.698755859375,-27.41568757324218L-157.698755859375,-24.554087573242185L-158.77075585937502,-24.554087573242185L-158.77075585937502,-46.943187573242184L-171.127755859375,-46.943187573242184L-171.127755859375,5.712612426757815L-181.65275585937502,5.712612426757815L-181.65275585937502,0.9006124267578173L-192.927755859375,0.9006124267578173L-193.506755859375,-23.032187573242183L-193.506755859375,-23.096487573242186L-194.42875585937497,-61.29398757324219L-194.42875585937497,-61.422687573242186L-203.602755859375,-61.422687573242186L-203.602755859375,-61.744187573242186L-199.50875585937501,-61.744187573242186L-199.43375585937503,-61.572687573242185L-198.982755859375,-61.744187573242186L-198.57575585937502,-61.744187573242186L-198.57575585937502,-65.93478757324219L-200.71975585937503,-65.93478757324219L-200.71975585937503,-66.02048757324218L-205.70275585937497,-78.03498757324219L-205.70275585937497,-103.75721957324218C-205.708755859375,-103.97795457324219,-205.889755859375,-104.15386357324219,-206.110755859375,-104.15377457324219C-206.33075585937502,-104.15384757324219,-206.511755859375,-103.97795457324219,-206.51775585937497,-103.75721957324218L-206.51775585937497,-77.78848757324218L-211.458755859375,-65.89188757324219L-213.708755859375,-65.89188757324219L-213.708755859375,-61.70128757324219L-213.18375585937503,-61.70128757324219L-212.787755859375,-61.540587573242185L-212.71275585937502,-61.71198757324219L-208.78975585937502,-61.71198757324219L-208.843755859375,-61.39048757324219L-216.345755859375,-61.39048757324219L-217.417755859375,-19.055887573242188L-219.271755859375,-19.055887573242188L-219.271755859375,-20.84578757324219L-219.710755859375,-20.84578757324219L-219.710755859375,-19.055887573242188L-222.604755859375,-19.055887573242188L-222.604755859375,-20.84578757324219L-222.754755859375,-20.84578757324219L-222.754755859375,-19.055887573242188L-225.659755859375,-19.055887573242188L-225.659755859375,-20.84578757324219L-225.809755859375,-20.84578757324219L-225.809755859375,-19.055887573242188L-226.988755859375,-19.055887573242188L-226.988755859375,-27.051287573242192C-227.017755859375,-28.966587573242194,-228.587755859375,-30.498787573242183,-230.503755859375,-30.480887573242185L-241.521755859375,-30.480887573242185C-243.436755859375,-30.498787573242183,-245.007755859375,-28.966587573242194,-245.036755859375,-27.051287573242192L-245.036755859375,21.435612426757814L-245.411755859375,21.435612426757814L-248.755755859375,21.660612426757808L-248.755755859375,19.516612426757817C-248.766755859375,19.48861242675781,-248.794755859375,19.469612426757806,-248.825755859375,19.469612426757806C-248.855755859375,19.469612426757806,-248.883755859375,19.48861242675781,-248.894755859375,19.516612426757817L-248.894755859375,21.660612426757808L-251.606755859375,21.660612426757808L-251.606755859375,19.516612426757817C-251.617755859375,19.48861242675781,-251.645755859375,19.469612426757806,-251.676755859375,19.469612426757806C-251.706755859375,19.469612426757806,-251.734755859375,19.48861242675781,-251.745755859375,19.516612426757817L-251.745755859375,21.660612426757808L-254.457755859375,21.660612426757808L-254.457755859375,19.516612426757817C-254.468755859375,19.48861242675781,-254.496755859375,19.469612426757806,-254.527755859375,19.469612426757806C-254.557755859375,19.469612426757806,-254.585755859375,19.48861242675781,-254.596755859375,19.516612426757817L-254.596755859375,21.660612426757808L-257.222755859375,21.660612426757808L-257.222755859375,19.516612426757817C-257.222755859375,19.441612426757814,-257.36175585937497,19.43061242675782,-257.36175585937497,19.516612426757817L-257.36175585937497,21.660612426757808L-259.955755859375,21.660612426757808L-259.955755859375,19.516612426757817C-259.966755859375,19.48861242675781,-259.994755859375,19.469612426757806,-260.025755859375,19.469612426757806C-260.05575585937504,19.469612426757806,-260.083755859375,19.48861242675781,-260.094755859375,19.516612426757817L-260.094755859375,21.660612426757808L-260.319755859375,21.660612426757808Q-260.394755859375,21.660612426757808,-260.394755859375,21.724612426757815L-260.394755859375,21.86361242675781L-260.394755859375,27.86561242675782L-261.273755859375,27.86561242675782L-261.273755859375,25.368612426757807C-261.273755859375,25.32761242675781,-261.307755859375,25.293612426757818,-261.348755859375,25.293612426757818L-262.581755859375,25.293612426757818C-262.618755859375,25.298612426757813,-262.646755859375,25.330612426757824,-262.64575585937496,25.368612426757807L-262.64575585937496,34.114612426757816L-263.653755859375,34.114612426757816L-263.653755859375,20.84561242675781C-263.653755859375,20.804612426757814,-263.686755859375,20.770612426757808,-263.72875585937504,20.770612426757808L-264.51075585937497,20.770612426757808C-264.551755859375,20.770612426757808,-264.585755859375,20.804612426757814,-264.585755859375,20.84561242675781L-264.585755859375,26.504612426757802L-267.136755859375,26.504612426757802L-267.136755859375,31.209612426757815L-269.119755859375,31.209612426757815L-269.119755859375,-64.46648757324219L-286.02075585937496,-64.46648757324219L-286.02075585937496,31.209612426757815L-289.686755859375,31.209612426757815L-289.686755859375,-5.905387573242194L-302.23675585937497,3.4296124267578136L-302.23675585937497,-8.359787573242187C-302.26575585937496,-10.275087573242189,-303.836755859375,-11.807287573242192,-305.751755859375,-11.78938757324218L-315.987755859375,-11.78938757324218C-317.902755859375,-11.807287573242192,-319.473755859375,-10.275087573242189,-319.502755859375,-8.359787573242187L-319.502755859375,16.730612426757816L-326.125755859375,16.730612426757816L-326.125755859375,20.20261242675781L-328.955755859375,20.20261242675781L-328.955755859375,29.0336124267578L-330.670755859375,29.0336124267578L-330.670755859375,25.068612426757824C-330.675755859375,24.97061242675781,-330.754755859375,24.891612426757803,-330.852755859375,24.886612426757807L-331.924755859375,24.886612426757807L-331.924755859375,19.656612426757818C-331.924755859375,19.55661242675781,-332.00775585937504,19.478612426757806,-332.10675585937497,19.484612426757806L-332.277755859375,19.484612426757806L-332.277755859375,13.525612426757817C-332.282755859375,13.436612426757819,-332.350755859375,13.364612426757816,-332.43875585937496,13.35461242675781L-332.567755859375,13.35461242675781L-332.567755859375,7.395612426757808C-332.569755859375,7.318612426757809,-332.622755859375,7.253612426757812,-332.695755859375,7.234612426757806L-332.803755859375,7.234612426757806L-332.803755859375,-4.019387573242184C-332.802755859375,-4.118387573242188,-332.886755859375,-4.196387573242191,-332.985755859375,-4.190387573242191L-333.317755859375,-4.190387573242191C-333.412755859375,-4.190387573242191,-333.489755859375,-4.113387573242193,-333.489755859375,-4.019387573242184L-333.489755859375,7.223612426757811L-333.639755859375,7.223612426757811C-333.743755859375,7.21161242675781,-333.83775585937497,7.289612426757813,-333.84275585937496,7.395612426757808L-333.84275585937496,13.35461242675781L-333.982755859375,13.35461242675781C-334.086755859375,13.341612426757806,-334.18075585937504,13.420612426757813,-334.18575585937504,13.525612426757817L-334.18575585937504,19.484612426757806L-334.46475585937503,19.484612426757806C-334.56075585937504,19.484612426757806,-334.64075585937496,19.55961242675781,-334.646755859375,19.656612426757818L-334.646755859375,24.886612426757807L-335.846755859375,24.886612426757807C-335.947755859375,24.886612426757807,-336.029755859375,24.967612426757825,-336.029755859375,25.068612426757824L-336.029755859375,29.0336124267578L-340.744755859375,29.0336124267578C-340.845755859375,29.0336124267578,-340.927755859375,29.11561242675782,-340.927755859375,29.21661242675782L-340.927755859375,34.16761242675781C-340.921755859375,34.265612426757826,-340.843755859375,34.344612426757806,-340.744755859375,34.3496124267578L-340.091755859375,34.3496124267578L-340.091755859375,36.16161242675781L-340.744755859375,36.16161242675781C-340.841755859375,36.16061242675781,-340.921755859375,36.2366124267578,-340.927755859375,36.332612426757805L-340.927755859375,51.94861242675782L-344.292755859375,51.94861242675782L-344.292755859375,42.870612426757816L-344.538755859375,42.870612426757816L-344.538755859375,41.43461242675781L-350.583755859375,35.5396124267578L-351.987755859375,36.91161242675781L-353.456755859375,35.475612426757806L-353.456755859375,32.88161242675781L-355.599755859375,32.88161242675781L-355.599755859375,30.73861242675781L-357.743755859375,30.73861242675781L-357.743755859375,23.42861242675781L-359.28675585937503,23.42861242675781L-359.350755859375,37.683612426757804L-365.224755859375,37.683612426757804L-365.224755859375,65.0456124267578L-369.757755859375,65.0456124267578L-369.757755859375,39.108612426757816L-370.979555859375,39.108612426757816L-370.979555859375,33.8676124267578L-373.926855859375,33.8676124267578L-373.926855859375,35.721612426757815L-373.926855859375,39.11961242675781L-375.50235585937503,39.11961242675781L-375.50235585937503,53.1596124267578L-383.862055859375,53.1596124267578L-383.862055859375,47.586612426757824C-383.866755859375,47.546612426757804,-383.897755859375,47.515612426757826,-383.937155859375,47.51161242675781L-384.515855859375,47.51161242675781L-384.515855859375,42.302612426757804C-384.535755859375,42.290612426757804,-384.560255859375,42.290612426757804,-384.580155859375,42.302612426757804L-385.44825585937497,42.302612426757804L-385.44825585937497,41.2306124267578L-389.092255859375,34.98261242675781L-389.092255859375,34.296612426757804C-389.096955859375,34.25661242675781,-389.127955859375,34.225612426757806,-389.167355859375,34.221612426757815L-389.381655859375,34.221612426757815L-391.782455859375,30.1056124267578C-391.835955859375,30.1056124267578,-391.857455859375,30.1056124267578,-391.868155859375,30.1056124267578L-394.472555859375,34.296612426757804L-394.622555859375,34.296612426757804C-394.664055859375,34.296612426757804,-394.69755585937503,34.32961242675782,-394.697655859375,34.37161242675782L-394.697655859375,34.671612426757804L-398.384455859375,40.98461242675782L-398.384455859375,42.05561242675782L-399.252555859375,42.05561242675782Q-399.327655859375,42.05561242675782,-399.327655859375,42.120612426757816L-399.327655859375,47.328612426757815L-399.906355859375,47.328612426757815C-399.945755859375,47.33361242675781,-399.976755859375,47.364612426757816,-399.981455859375,47.4036124267578L-399.981455859375,57.74661242675782L-402.982355859375,57.74661242675782L-402.982355859375,44.41361242675782L-409.273555859375,44.41361242675782L-409.273555859375,16.07661242675782L-415.843455859375,16.07661242675782L-415.843455859375,11.253612426757812L-416.850855859375,11.253612426757812L-416.850855859375,16.07661242675782L-418.908655859375,16.07661242675782L-418.908655859375,23.685612426757814L-419.444555859375,23.685612426757814L-419.444555859375,23.771612426757827L-426.561055859375,23.771612426757827L-426.561055859375,24.0936124267578L-426.561055859375,36.1826124267578L-426.700355859375,36.1826124267578L-427.397055859375,36.1826124267578L-427.397055859375,36.49361242675781L-427.450555859375,36.49361242675781L-427.450555859375,45.957612426757805L-427.654255859375,45.87161242675782C-428.074055859375,45.67561242675782,-428.522855859375,45.54861242675781,-428.983255859375,45.49661242675782L-429.101055859375,45.49661242675782L-429.272555859375,42.64561242675782L-429.77635585937503,42.64561242675782L-429.937055859375,45.49661242675782L-430.065655859375,45.49661242675782C-432.122555859375,45.6766124267578,-433.781355859375,47.25561242675781,-434.063355859375,49.30061242675782L-434.063355859375,49.41861242675782L-435.135155859375,49.41861242675782L-435.135155859375,54.6596124267578L-436.624955859375,54.6596124267578L-436.624955859375,65.1306124267578L-437.546655859375,65.1306124267578L-437.546655859375,61.915612426757804L-437.975255859375,61.915612426757804L-437.975255859375,61.711612426757824L-438.350455859375,61.711612426757824L-438.350455859375,61.540612426757804C-438.339855859375,61.447612426757814,-438.339855859375,61.354612426757825,-438.350455859375,61.26161242675781C-438.362355859375,60.64361242675781,-438.812555859375,60.12161242675782,-439.422155859375,60.01861242675781L-439.540055859375,60.01861242675781L-439.540055859375,54.75661242675781L-441.351355859375,54.75661242675781L-441.351355859375,26.793612426757818L-441.876455859375,26.793612426757818L-441.876455859375,25.93661242675782C-441.900055859375,24.018612426757812,-443.473955859375,22.483612426757816,-445.391855859375,22.506612426757812L-451.490155859375,22.506612426757812C-453.405755859375,22.48861242675781,-454.976255859375,24.021612426757827,-455.005555859375,25.93661242675782L-455.005555859375,26.793612426757818L-456.077355859375,26.793612426757818L-456.077355859375,61.8616124267578L-457.695755859375,61.8616124267578L-457.695755859375,61.79761242675781C-458.227855859375,60.9026124267578,-459.194355859375,60.3556124267578,-460.235755859375,60.3616124267578C-461.273395859375,60.35961242675782,-462.234935859375,60.90561242675781,-462.765115859375,61.79761242675781L-462.765115859375,61.8616124267578L-464.629975859375,61.8616124267578L-464.629975859375,66.0526124267578L-466.580615859375,64.30561242675782L-469.270755859375,64.30561242675782L-469.270755859375,66.98461242675782L-470.503271859375,66.98461242675782L-470.503271859375,88.22761242675782L-466.666375859375,88.22761242675782L-466.666375859375,88.37761242675782L-450.375555859375,88.37761242675782L-444.287955859375,88.37761242675782L-444.287955859375,88.48461242675782L-432.637955859375,88.48461242675782L-432.637955859375,88.34561242675781L-431.019555859375,88.34561242675781L-431.019555859375,88.49561242675782L-380.132355859375,88.49561242675782Q-380.078755859375,88.49561242675782,-380.068055859375,88.49561242675782L-380.068055859375,88.39861242675781L-377.710155859375,88.39861242675781L-377.710155859375,88.5276124267578L-368.289755859375,88.5276124267578L-368.289755859375,88.38861242675782L-367.099755859375,88.38861242675782L-367.099755859375,88.53861242675782L-323.671755859375,88.53861242675782C-323.61375585937503,88.5346124267578,-323.561755859375,88.50261242675782,-323.532755859375,88.45261242675781L-323.532755859375,88.38861242675782L-320.402755859375,88.38861242675782L-320.402755859375,88.5166124267578L-310.692755859375,88.5166124267578L-268.100755859375,88.5166124267578L-268.100755859375,88.37761242675782L-264.692755859375,88.37761242675782L-264.692755859375,88.4636124267578L-264.596755859375,88.4636124267578L-260.148755859375,88.4636124267578C-259.76075585937497,88.5056124267578,-259.368755859375,88.5056124267578,-258.980755859375,88.4636124267578L-257.726755859375,88.4636124267578C-257.513755859375,88.50661242675781,-257.295755859375,88.50661242675781,-257.083755859375,88.4636124267578L-255.593755859375,88.4636124267578C-254.426755859375,89.03161242675782,-253.062755859375,89.03161242675782,-251.895755859375,88.4636124267578L-242.035755859375,88.4636124267578L-241.939755859375,88.4636124267578L-241.939755859375,88.37761242675782L-241.832755859375,88.37761242675782L-238.327755859375,88.37761242675782L-238.327755859375,88.45261242675781C-238.302755859375,88.49561242675782,-238.258755859375,88.52361242675781,-238.209755859375,88.5276124267578L-220.043755859375,88.5276124267578L-219.978755859375,88.5276124267578L-191.93075585937498,88.5276124267578C-191.86175585937502,88.52461242675781,-191.797755859375,88.48861242675781,-191.759755859375,88.43061242675782L-191.759755859375,88.37761242675782L-188.083755859375,88.37761242675782L-188.083755859375,88.5276124267578L-169.338755859375,88.5276124267578L-169.338755859375,88.37761242675782L-165.694755859375,88.37761242675782L-165.694755859375,88.5056124267578L-163.16475585937502,88.5056124267578L-107.31575585937497,88.5056124267578L-107.25075585937498,88.5056124267578C-100.69175585937501,88.5056124267578,-95.04375585937498,88.5056124267578,-90.44575585937503,88.5056124267578L-8.670755859374992,88.5056124267578L-8.670755859374992,88.36661242675783L-7.309755859375002,88.36661242675783L-7.309755859375002,88.49561242675782L10.782244140624982,88.49561242675782L16.269244140625005,88.49561242675782L16.269244140625005,88.3556124267578L36.74024414062501,88.3556124267578L36.804244140624974,89.25661242675781ZM-135.984755859375,74.09061242675782L-136.56375585937502,74.09061242675782L-136.56375585937502,72.5046124267578L-136.28475585937503,72.5046124267578L-135.984755859375,74.09061242675782ZM-204.191755859375,-61.422687573242186L-205.970755859375,-61.422687573242186L-205.970755859375,-61.744187573242186L-204.223755859375,-61.744187573242186L-204.191755859375,-61.422687573242186ZM-206.785755859375,-61.422687573242186L-208.660755859375,-61.422687573242186L-208.660755859375,-61.744187573242186L-206.81775585937498,-61.744187573242186L-206.785755859375,-61.422687573242186ZM-201.42675585937502,-65.93478757324219L-204.331755859375,-65.93478757324219L-205.660755859375,-76.11648757324218L-201.42675585937502,-65.93478757324219ZM-204.073755859375,-66.21338757324219L-201.855755859375,-66.21338757324219L-205.07075585937503,-73.98368757324218L-204.073755859375,-66.21338757324219ZM-204.77075585937502,-65.93478757324219L-205.970755859375,-65.93478757324219L-205.970755859375,-72.87978757324218L-205.68175585937502,-72.87978757324218L-204.77075585937502,-65.93478757324219ZM-205.68175585937502,-66.21338757324219L-205.102755859375,-66.21338757324219L-205.68175585937502,-70.65048757324219L-205.68175585937502,-66.21338757324219ZM-206.75375585937502,-65.93478757324219L-208.050755859375,-65.93478757324219L-207.042755859375,-73.71578757324218L-206.75375585937502,-73.71578757324218L-206.75375585937502,-65.93478757324219ZM-207.71775585937502,-66.21338757324219L-207.042755859375,-66.21338757324219L-207.042755859375,-71.46508757324219L-207.71775585937502,-66.21338757324219ZM-208.50075585937498,-65.93478757324219L-211.222755859375,-65.93478757324219L-207.246755859375,-75.49488757324218L-208.50075585937498,-65.93478757324219ZM-210.79375585937498,-66.21338757324219L-208.75775585937498,-66.21338757324219L-207.82575585937502,-73.37278757324219L-210.79375585937498,-66.21338757324219Z" fill="#AAA9A9" fill-opacity="1"/></g></g></g></g></g></svg>